<?xml version="1.0" encoding="UTF-8"?>
<svg width="128px" height="128px" viewBox="0 0 128 128" version="1.1" xmlns="http://www.w3.org/2000/svg" xmlns:xlink="http://www.w3.org/1999/xlink">
    <!-- Generator: Sketch 53 (72520) - https://sketchapp.com -->
    <title>top-schemes</title>
    <desc>Created with Sketch.</desc>
    <g id="top-schemes" stroke="none" stroke-width="1" fill="none" fill-rule="evenodd">
        <path d="M110.347966,83.4221888 L104.451246,83.4221888 L104.451246,71.6310508 C104.451246,69.6223473 102.833199,67.9964848 100.839535,67.9964848 L68.0915495,67.9964848 L68.0915495,54.1045676 L88.9202867,54.1045676 C90.9139512,54.1045676 92.5319977,52.476282 92.5319977,50.4700015 L92.5319977,21.634566 C92.5319977,19.6276798 90.9139512,18 88.9202867,18 L40.0424,18 C38.0457258,18 36.4306891,19.6276798 36.4306891,21.634566 L36.4306891,50.4700015 C36.4306891,52.476282 38.0457258,54.1045676 40.0424,54.1045676 L60.8681275,54.1045676 L60.8681275,67.9964848 L28.1231519,67.9964848 C26.1264776,67.9964848 24.5114409,69.6223473 24.5114409,71.6310508 L24.5114409,83.4221888 L18.611711,83.4221888 C16.6180465,83.4221888 15,85.0498686 15,87.0567549 L15,106.200014 C15,108.206295 16.6180465,109.83458 18.611711,109.83458 L37.6345927,109.83458 C39.6282572,109.83458 41.2463037,108.206295 41.2463037,106.200014 L41.2463037,87.0567549 C41.2463037,85.0498686 39.6282572,83.4221888 37.6345927,83.4221888 L31.7348628,83.4221888 L31.7348628,75.2656168 L60.8681275,75.2656168 L60.8681275,83.4221888 L54.9683976,83.4221888 C52.9747332,83.4221888 51.3566866,85.0498686 51.3566866,87.0567549 L51.3566866,106.200014 C51.3566866,108.206295 52.9747332,109.83458 54.9683976,109.83458 L73.9912794,109.83458 C75.9849438,109.83458 77.6029904,108.206295 77.6029904,106.200014 L77.6029904,87.0567549 C77.6029904,85.0498686 75.9849438,83.4221888 73.9912794,83.4221888 L68.0915495,83.4221888 L68.0915495,75.2656168 L97.2278239,75.2656168 L97.2278239,83.4221888 L91.328094,83.4221888 C89.3314198,83.4221888 87.7163831,85.0498686 87.7163831,87.0567549 L87.7163831,106.200014 C87.7163831,108.206295 89.3314198,109.83458 91.328094,109.83458 L110.347966,109.83458 C112.34464,109.83458 113.959677,108.206295 113.959677,106.200014 L113.959677,87.0567549 C113.959677,85.0498686 112.34464,83.4221888 110.347966,83.4221888 Z" id="Fill-1" fill="#8D1813"></path>
    </g>
</svg>