<?xml version="1.0" encoding="UTF-8"?>
<svg width="60px" height="60px" viewBox="0 0 60 60" version="1.1" xmlns="http://www.w3.org/2000/svg" xmlns:xlink="http://www.w3.org/1999/xlink">
    <!-- Generator: Sketch 52.5 (67469) - http://www.bohemiancoding.com/sketch -->
    <title>car</title>
    <desc>Created with Sketch.</desc>
    <g id="car" stroke="none" stroke-width="1" fill="none" fill-rule="evenodd">
        <path d="M20.8266602,38.5 L38.8266602,38.5" id="Path-13" stroke="#2A8FE5"></path>
        <path d="M11.8266602,29.5 L31.5,29.5" id="Path-13-Copy" stroke="#2A8FE5" stroke-linecap="round"></path>
        <path d="M13.0031738,38.4384191 C10.6604004,38.4384191 9.18766276,38.4384191 8.58496094,38.4384191 C7.6809082,38.4384191 6,38.1855025 6,36.6918945 C6,35.1982866 6,31.2858887 7.13598633,30.6608887 C7.13598633,28.9888393 8.13916016,22.4921875 8.13916016,21.2055664 C8.13916016,19.9189453 9.21006316,18 11.5310059,18 C13.8519486,18 27.7758789,18 28.9902344,18 C30.2045898,18 32.9724121,18.503418 34.3139648,20.0532227 C35.2083333,21.0864258 37.9393717,23.6123861 42.5070801,27.6311035 C48.009847,28.3934036 51.0102539,28.8459821 51.5083008,28.9888393 C52.2553711,29.203125 54.2084961,29.8371582 54.2084961,31.8974609 C54.2084961,33.9577637 53.9729004,35.0974107 53.6723633,36.1502679 C53.3718262,37.203125 52.5556641,38.4384191 51.0095215,38.4384191 C49.9787598,38.4384191 48.6206326,38.4275868 46.93514,38.4059222" id="Path-12" stroke="#2A8FE5" stroke-linejoin="round"></path>
        <circle id="Oval" stroke="#2A8FE5" cx="17" cy="38" r="4"></circle>
        <circle id="Oval-Copy-5" stroke="#2A8FE5" cx="43" cy="38" r="4"></circle>
    </g>
</svg>