<?xml version="1.0" encoding="UTF-8"?>
<svg width="153px" height="153px" viewBox="0 0 153 153" version="1.1" xmlns="http://www.w3.org/2000/svg" xmlns:xlink="http://www.w3.org/1999/xlink">
    <!-- Generator: Sketch 52.3 (67297) - http://www.bohemiancoding.com/sketch -->
    <title>active-governance</title>
    <desc>Created with Sketch.</desc>
    <defs>
        <linearGradient x1="9.21158451%" y1="-22.5501053%" x2="81.8045833%" y2="88.4714304%" id="linearGradient-1">
            <stop stop-color="#2F7AE5" offset="0%"></stop>
            <stop stop-color="#7FB156" offset="67.121188%"></stop>
            <stop stop-color="#9DD835" offset="100%"></stop>
        </linearGradient>
        <polygon id="path-2" points="0.0121463415 0.119199234 82.9186203 0.119199234 82.9186203 52.797341 0.0121463415 52.797341"></polygon>
    </defs>
    <g id="strategy" stroke="none" stroke-width="1" fill="none" fill-rule="evenodd">
        <g id="Strategic-Plan" transform="translate(-1326.000000, -1812.000000)">
            <g id="Group-75-Copy-2" transform="translate(1245.000000, 1812.000000)">
                <g id="active-governance" transform="translate(81.000000, 0.000000)">
                    <g id="Group-74" fill="url(#linearGradient-1)">
                        <circle id="Oval-Copy" transform="translate(76.500000, 76.500000) scale(1, -1) translate(-76.500000, -76.500000) " cx="76.5" cy="76.5" r="76.5"></circle>
                    </g>
                    <g id="city-hall" transform="translate(35.000000, 35.000000)">
                        <path d="M14.6670892,58 L9.33291,58 C8.59594203,58 8,58.6159339 8,59.3752769 L8,67.6255287 C8,68.3838646 8.59594203,69 9.33291,69 L14.6670892,69 C15.4040572,69 15.9999992,68.3838646 15.9999992,67.6255287 L15.9999992,59.3752769 C16.0007805,58.6159339 15.4040572,58 14.6670892,58 Z M10.6666013,66.2502518 L13.3333979,66.2502518 L13.3333979,60.7505539 L10.6666013,60.7505539 L10.6666013,66.2502518 Z" id="Fill-1" fill="#FFFFFF"></path>
                        <path d="M30,51.6247231 L30,46.1250252 C30,43.8504202 28.2047313,42 25.9999023,42 C23.7942921,42 22,43.8504202 22,46.1250252 L22,51.6247231 C22,52.3838646 22.5956886,53 23.3335612,53 L28.6662435,53 C29.4041161,53 30,52.3838646 30,51.6247231 Z M27.3334635,50.2502518 L24.6663412,50.2502518 L24.6663412,46.1250252 C24.6663412,45.3674949 25.2637875,44.7497482 25.9999023,44.7497482 C26.7354313,44.7497482 27.3326823,45.3674949 27.3326823,46.1250252 L27.3326823,50.2502518 L27.3334635,50.2502518 Z" id="Fill-2" fill="#FFFFFF"></path>
                        <path d="M53.6497133,59 L29.3494957,59 C28.6033575,59 28,59.597251 28,60.3335612 C28,61.0688948 28.6033575,61.6663412 29.3494957,61.6663412 L30.6999802,61.6663412 L30.6999802,73.6662435 C30.6999802,74.4025536 31.3031399,75 32.0494759,75 C32.7964052,75 33.3997627,74.4025536 33.3997627,73.6662435 L33.3997627,61.6663412 L40.1498121,61.6663412 L40.1498121,67 C39.4034761,67 38.7995254,67.597251 38.7995254,68.3335612 C38.7995254,69.0688948 39.4034761,69.6663412 40.1498121,69.6663412 L40.1498121,73.6662435 C40.1498121,74.4025536 40.7529719,75 41.5000989,75 C42.2462371,75 42.8495946,74.4025536 42.8495946,73.6662435 L42.8495946,69.6663412 C43.5965239,69.6663412 44.1998813,69.0688948 44.1998813,68.3335612 C44.1998813,67.597251 43.5965239,67 42.8495946,67 L42.8495946,61.6671224 L49.6004351,61.6671224 L49.6004351,73.6662435 C49.6004351,74.4025536 50.2035948,75 50.9499308,75 C51.6968601,75 52.3002175,74.4025536 52.3002175,73.6662435 L52.3002175,61.6671224 L53.6497133,61.6671224 C54.3968403,61.6671224 55,61.069676 55,60.3335612 C55,59.597251 54.3968403,59 53.6497133,59 Z" id="Fill-3" fill="#FFFFFF"></path>
                        <path d="M26.3752686,30 C27.1352112,30 27.7497314,29.3891615 27.7497314,28.6361003 C27.7497314,22.8121608 31.6332336,18.2997863 37.4154846,16.8563857 C35.405957,19.2314248 33.2502014,23.0672428 33.2502014,28.6361003 C33.2502014,29.3891615 33.8647217,30 34.62547,30 C35.3854126,30 35.9999329,29.3891615 35.9999329,28.6361003 C35.9999329,21.7073382 39.8568481,17.9572133 41.4947632,16.6760106 C43.1171692,17.9550161 46.9998657,21.7339051 46.9998657,28.6361003 C46.9998657,29.3891615 47.614386,30 48.3753357,30 C49.1352783,30 49.7497986,29.3891615 49.7497986,28.6361003 C49.7497986,23.0672428 47.594043,19.2314248 45.585321,16.8563857 C51.3673706,18.2997863 55.2500671,22.8121608 55.2500671,28.6361003 C55.2500671,29.3891615 55.8645874,30 56.6247314,30 C57.3854797,30 58,29.3891615 58,28.6361003 C58,20.5088323 51.5869141,14.2923822 42.8748657,13.6947272 L42.8748657,2.72700034 L51.1250671,2.72700034 L51.1250671,5.45499943 L46.9998657,5.45499943 C46.2391174,5.45499943 45.6245972,6.06583792 45.6245972,6.8181001 C45.6245972,7.57096153 46.2391174,8.18199977 46.9998657,8.18199977 L52.49953,8.18199977 C53.2604797,8.18199977 53.8747986,7.57096153 53.8747986,6.8181001 L53.8747986,1.36389967 C53.8747986,0.611038239 53.2604797,0 52.49953,0 L41.5004028,0 C40.7394531,0 40.1251343,0.611038239 40.1251343,1.36389967 L40.1251343,13.6947272 C31.4130859,14.2923822 25,20.5088323 25,28.6361003 C25,29.3891615 25.6145203,30 26.3752686,30 Z" id="Fill-4" fill="#FFFFFF"></path>
                        <path d="M53.6497133,78 L29.3494957,78 C28.6033575,78 28,78.5600718 28,79.2501373 L28,81.7496796 C28,82.4399282 28.6033575,83 29.3494957,83 C30.0966227,83 30.6999802,82.4399282 30.6999802,81.7496796 L30.6999802,80.4995423 L52.3002175,80.4995423 L52.3002175,81.7496796 C52.3002175,82.4399282 52.903575,83 53.6497133,83 C54.3968403,83 55,82.4399282 55,81.7496796 L55,79.2501373 C55,78.5600718 54.3968403,78 53.6497133,78 Z" id="Fill-5" fill="#FFFFFF"></path>
                        <path d="M59.6670899,53 C60.4040579,53 61,52.3838646 61,51.6247231 L61,46.1250252 C61,43.8504202 59.2055326,42 57.0004883,42 C54.7946627,42 53,43.8504202 53,46.1250252 L53,51.6247231 C53,52.3838646 53.5959421,53 54.3329101,53 L59.6670899,53 Z M55.6666016,46.1250252 C55.6666016,45.3674949 56.2641063,44.7497482 57.0004883,44.7497482 C57.7358937,44.7497482 58.3333984,45.3674949 58.3333984,46.1250252 L58.3333984,50.2502518 L55.6666016,50.2502518 L55.6666016,46.1250252 Z" id="Fill-6" fill="#FFFFFF"></path>
                        <g id="Group-10" transform="translate(0.000000, 30.000000)">
                            <mask id="mask-3" fill="white">
                                <use xlink:href="#path-2"></use>
                            </mask>
                            <g id="Clip-8"></g>
                            <path d="M67.7174732,22.2993946 L73.2448683,22.2993946 C74.0096829,22.2993946 74.6273244,21.6782184 74.6273244,20.9128659 L74.6273244,15.3681724 C74.6273244,13.0749579 72.7665049,11.2093985 70.4811707,11.2093985 C68.1950268,11.2093985 66.3352195,13.0749579 66.3352195,15.3681724 L66.3352195,20.9128659 C66.3352195,21.6782184 66.9526585,22.2993946 67.7174732,22.2993946 Z M69.0989171,15.3681724 C69.0989171,14.6044444 69.718178,13.9816437 70.4811707,13.9816437 C71.2443659,13.9816437 71.8634244,14.6044444 71.8634244,15.3681724 L71.8634244,19.5271494 L69.0989171,19.5271494 L69.0989171,15.3681724 Z" id="Fill-7" fill="#FFFFFF" mask="url(#mask-3)"></path>
                            <path d="M81.5369732,0.119199234 C80.7731707,0.119199234 80.1547195,0.740375479 80.1547195,1.50511877 L80.1547195,2.89164751 L2.76369756,2.89164751 L2.76369756,1.50511877 C2.76369756,0.740375479 2.14625854,0.119199234 1.38225366,0.119199234 C0.617641463,0.119199234 0,0.740375479 0,1.50511877 L0,51.4106092 C0,52.1761648 0.617641463,52.797341 1.38225366,52.797341 L23.494061,52.797341 C24.2578634,52.797341 24.8755049,52.1761648 24.8755049,51.4106092 L24.8755049,45.8661188 C24.8755049,44.3366322 23.6347561,43.0928582 22.1118073,43.0928582 C21.6087463,43.0928582 21.1358488,43.2285057 20.7293512,43.4664981 C19.9173683,42.9921379 18.7786488,42.9921379 17.9656537,43.4664981 C17.1526585,42.9921379 16.013939,42.9921379 15.2019561,43.4664981 C14.388961,42.9921379 13.2502415,42.9921379 12.4374488,43.4664981 C11.6252634,42.9921379 10.4865439,42.9921379 9.67354878,43.4664981 C8.8607561,42.9921379 7.72203659,42.9921379 6.90985122,43.4664981 C6.0968561,42.9921379 4.95813659,42.9921379 4.1453439,43.4664981 C3.73884634,43.229318 3.26675854,43.0928582 2.76369756,43.0928582 L2.76369756,5.66389272 L80.1547195,5.66389272 L80.1547195,43.0928582 C79.651861,43.0928582 79.1789634,43.2285057 78.7724659,43.4664981 C77.9602805,42.9921379 76.821561,42.9921379 76.0087683,43.4664981 C75.1957732,42.9921379 74.0570537,42.9921379 73.2448683,43.4664981 C72.4320756,42.9921379 71.2933561,42.9921379 70.480361,43.4664981 C69.668378,42.9921379 68.5296585,42.9921379 67.7166634,43.4664981 C66.9036683,42.9921379 65.7649488,42.9921379 64.9529659,43.4664981 C64.1399707,42.9921379 63.0012512,42.9921379 62.1882561,43.4664981 C61.7825683,43.229318 61.3096707,43.0928582 60.8068122,43.0928582 C59.2822439,43.0928582 58.0431146,44.3366322 58.0431146,45.8661188 L58.0431146,51.4106092 C58.0431146,52.1761648 58.6607561,52.797341 59.4245585,52.797341 L81.5363659,52.797341 C82.3001683,52.797341 82.9186195,52.1761648 82.9186195,51.4106092 L82.9186195,1.50511877 C82.9194293,0.740375479 82.300978,0.119199234 81.5369732,0.119199234 Z M4.14595122,47.2518352 C4.9099561,47.2518352 5.52759756,46.630659 5.52759756,45.8661188 C5.52759756,46.630659 6.14584634,47.2518352 6.90985122,47.2518352 C7.67365366,47.2518352 8.29210488,46.630659 8.29210488,45.8661188 C8.29210488,46.630659 8.90974634,47.2518352 9.67354878,47.2518352 C10.438161,47.2518352 11.0558024,46.630659 11.0558024,45.8661188 C11.0558024,46.630659 11.6734439,47.2518352 12.4374488,47.2518352 C13.202061,47.2518352 13.8197024,46.630659 13.8197024,45.8661188 C13.8197024,46.630659 14.4371415,47.2518352 15.2011463,47.2518352 C15.9657585,47.2518352 16.5834,46.630659 16.5834,45.8661188 C16.5834,46.630659 17.2010415,47.2518352 17.9648439,47.2518352 C18.7296585,47.2518352 19.3470976,46.630659 19.3470976,45.8661188 C19.3470976,46.630659 19.964739,47.2518352 20.7293512,47.2518352 C21.4933561,47.2518352 22.1109976,46.630659 22.1109976,45.8661188 L22.1109976,50.0240805 L2.76369756,50.0240805 L2.76369756,45.8661188 C2.76369756,46.630659 3.38133902,47.2518352 4.14595122,47.2518352 Z M80.1547195,50.0240805 L60.807622,50.0240805 L60.807622,45.8653065 C60.807622,46.630659 61.4252634,47.2518352 62.1890659,47.2518352 C62.9538805,47.2518352 63.5713195,46.630659 63.5713195,45.8653065 C63.5713195,46.630659 64.188961,47.2518352 64.9529659,47.2518352 C65.717578,47.2518352 66.3352195,46.630659 66.3352195,45.8653065 C66.3352195,46.630659 66.9526585,47.2518352 67.7166634,47.2518352 C68.4812756,47.2518352 69.0989171,46.630659 69.0989171,45.8653065 C69.0989171,46.630659 69.7165585,47.2518352 70.4811707,47.2518352 C71.2451756,47.2518352 71.8626146,46.630659 71.8626146,45.8653065 C71.8626146,46.630659 72.4802561,47.2518352 73.2448683,47.2518352 C74.0088732,47.2518352 74.6265146,46.630659 74.6265146,45.8653065 C74.6265146,46.630659 75.2441561,47.2518352 76.0087683,47.2518352 C76.7725707,47.2518352 77.3902122,46.630659 77.3902122,45.8653065 C77.3902122,46.630659 78.0078537,47.2518352 78.7724659,47.2518352 C79.5364707,47.2518352 80.1539098,46.630659 80.1539098,45.8653065 L80.1539098,50.0240805 L80.1547195,50.0240805 Z" id="Fill-9" fill="#FFFFFF" mask="url(#mask-3)"></path>
                        </g>
                        <path d="M67,67.6255287 C67,68.3838646 67.5956886,69 68.3335612,69 L73.6662435,69 C74.4041161,69 75,68.3838646 75,67.6255287 L75,59.3752769 C75,58.6159339 74.4041161,58 73.6662435,58 L68.3335612,58 C67.5956886,58 67,58.6159339 67,59.3752769 L67,67.6255287 Z M69.6663412,66.2502518 L72.3334635,66.2502518 L72.3334635,60.7505539 L69.6663412,60.7505539 L69.6663412,66.2502518 Z" id="Fill-11" fill="#FFFFFF"></path>
                        <path d="M44.6664388,53 C45.4041161,53 46,52.3838646 46,51.6247231 L46,46.1250252 C46,43.8504202 44.2049266,42 42.0000977,42 C39.7944874,42 38,43.8504202 38,46.1250252 L38,51.6247231 C38,52.3838646 38.5958839,53 39.3329753,53 L44.6664388,53 Z M40.6665365,46.1250252 C40.6665365,45.3674949 41.2637875,44.7497482 42.0000977,44.7497482 C42.7354313,44.7497482 43.3328776,45.3674949 43.3328776,46.1250252 L43.3328776,50.2502518 L40.6665365,50.2502518 L40.6665365,46.1250252 Z" id="Fill-12" fill="#FFFFFF"></path>
                        <path d="M16,46.1250252 C16,43.8504202 14.2047313,42 11.9999023,42 C9.79429213,42 8,43.8504202 8,46.1250252 L8,51.6247231 C8,52.3838646 8.59588389,53 9.33277996,53 L14.6664388,53 C15.4033349,53 15.9992188,52.3838646 15.9992188,51.6247231 L15.9992188,46.1250252 L16,46.1250252 Z M13.3328776,50.2502518 L10.6663412,50.2502518 L10.6663412,46.1250252 C10.6663412,45.3674949 11.2637875,44.7497482 11.9999023,44.7497482 C12.7354313,44.7497482 13.3328776,45.3674949 13.3328776,46.1250252 L13.3328776,50.2502518 Z" id="Fill-13" fill="#FFFFFF"></path>
                    </g>
                </g>
            </g>
        </g>
    </g>
</svg>