<?xml version="1.0" encoding="UTF-8"?>
<svg width="175px" height="175px" viewBox="0 0 175 175" version="1.1" xmlns="http://www.w3.org/2000/svg" xmlns:xlink="http://www.w3.org/1999/xlink">
    <!-- Generator: Sketch 52.2 (67145) - http://www.bohemiancoding.com/sketch -->
    <title>population</title>
    <desc>Created with Sketch.</desc>
    <defs>
        <polygon id="path-1" points="0 0 111 0 111 112 0 112"></polygon>
    </defs>
    <g id="population" stroke="none" stroke-width="1" fill="none" fill-rule="evenodd">
        <g id="Group" transform="translate(32.000000, 32.000000)">
            <mask id="mask-2" fill="white">
                <use xlink:href="#path-1"></use>
            </mask>
            <g id="Clip-2"></g>
            <path d="M111,28.3592109 L111,0 L82.8918453,0 L82.8918453,12.4454091 L28.1060036,12.4454091 L28.1060036,0 L0,0 L0,28.3592109 L12.3342894,28.3592109 L12.3342894,83.6299368 L0,83.6299368 L0,112 L28.1060036,112 L28.1060036,99.5524204 L82.8918453,99.5524204 L82.8918453,112 L111,112 L111,83.6386187 L98.6635596,83.6386187 L98.6635596,28.3592109 L111,28.3592109 Z M86.3292702,24.8843068 L107.553971,24.8843068 L107.553971,3.47707453 L86.3292702,3.47707453 L86.3292702,24.8843068 Z M3.44602922,24.8843068 L3.44602922,3.47707453 L24.6621255,3.47707453 L24.6621255,24.8929886 L3.44602922,24.8929886 L3.44602922,24.8843068 Z M3.44602922,108.522925 L24.6707298,108.522925 L24.6707298,87.1070114 L3.44602922,87.1070114 L3.44602922,108.522925 Z M86.3292702,108.522925 L107.553971,108.522925 L107.553971,87.1070114 L86.3292702,87.1070114 L86.3292702,108.522925 Z M95.2196814,83.6386187 L82.8918453,83.6386187 L82.8918453,96.0775164 L28.1060036,96.0775164 L28.1060036,83.6386187 L15.7717143,83.6386187 L15.7717143,28.3592109 L28.1060036,28.3592109 L28.1060036,15.9138018 L82.8918453,15.9138018 L82.8918453,28.3592109 L95.2196814,28.3592109 L95.2196814,83.6386187 Z" id="Fill-1" stroke="#FFFFFF" fill="#FFFFFF" mask="url(#mask-2)"></path>
        </g>
    </g>
</svg>