<?xml version="1.0" encoding="UTF-8"?>
<svg width="128px" height="128px" viewBox="0 0 128 128" version="1.1" xmlns="http://www.w3.org/2000/svg" xmlns:xlink="http://www.w3.org/1999/xlink">
    <!-- Generator: Sketch 52.2 (67145) - http://www.bohemiancoding.com/sketch -->
    <title>Average Population Density</title>
    <desc>Created with Sketch.</desc>
    <defs>
        <polygon id="path-1" points="0.013620283 0.00443090014 24.0468367 0.00443090014 24.0468367 46.40625 0.013620283 46.40625"></polygon>
    </defs>
    <g id="Average-Population-Density" stroke="none" stroke-width="1" fill="none" fill-rule="evenodd">
        <g id="population" transform="translate(9.000000, 25.000000)">
            <path d="M95.9855879,31.1307128 C95.6944666,31.1846757 95.4225681,31.282411 95.1418688,31.3599971 C94.7884471,31.4496264 94.4401206,31.5580153 94.0982789,31.6847007 C93.8801116,31.7713192 93.6774615,31.8834137 93.4676319,31.9839282 C93.0910501,32.1599444 92.7253536,32.3586574 92.3728583,32.5789093 C92.2056431,32.6861402 92.0488498,32.8061091 91.8888141,32.9226041 C91.5312236,33.18107 91.1905399,33.4622327 90.869079,33.764471 C90.7331298,33.8932408 90.6027389,34.0261793 90.4744325,34.1621287 C90.1705732,34.485211 89.8882527,34.8275162 89.628629,35.1869598 C89.5153765,35.3435216 89.4009661,35.4984622 89.2965145,35.6615088 C89.063988,36.0311428 88.8553163,36.415136 88.6718891,36.8111725 C88.5852706,36.9948315 88.4891566,37.1727005 88.4134234,37.3619179 C88.2510717,37.7829672 88.1169753,38.2144385 88.0115972,38.6535526 C87.9645824,38.8399908 87.89765,39.0187862 87.8610572,39.20893 C86.9617541,43.6614451 89.0820528,48.1776502 93.0817861,50.3306062 C97.0815195,52.4833307 102.01877,51.7653699 105.239864,48.5625698 C108.460726,45.3600014 109.206942,40.4269158 107.077147,36.4149044 C104.947353,32.4028931 100.443195,30.2571166 95.9855879,31.1307128" id="Fill-5" fill="#5AC4ED"></path>
            <path d="M43.1588668,31.3601454 C42.8754736,31.2820504 42.6014256,31.183674 42.307519,31.1291241 C41.6818579,31.0067364 41.045917,30.9426286 40.408107,30.9375 L40.3730625,30.9375 C39.7352526,30.9426286 39.0995453,31.0067364 38.4736505,31.1291241 C38.1797439,31.183674 37.9056959,31.2820504 37.6223027,31.3601454 C37.2657833,31.4503625 36.9144037,31.5594624 36.5697994,31.6869787 C36.3494863,31.7741653 36.1452937,31.886995 35.9333913,31.9881688 C35.5535089,32.1653395 35.1848407,32.3653559 34.8292558,32.5870524 C34.6603413,32.6949867 34.5024074,32.8157425 34.3407355,32.9330015 C33.9800107,33.1931627 33.6363409,33.4761696 33.3120625,33.7803903 C33.1751553,33.9100046 33.043388,34.0438151 32.9141906,34.1806562 C32.607668,34.5058577 32.3226394,34.850408 32.0609737,35.2122092 C31.9467287,35.3697979 31.8310818,35.5257547 31.7259483,35.6898708 C31.4913838,36.0619292 31.2806495,36.4484411 31.0956145,36.8470751 C31.0082369,37.0319388 30.9115141,37.2109744 30.835117,37.4014329 C30.6713424,37.8252439 30.535837,38.2595452 30.429769,38.7015394 C30.3821084,38.8892005 30.314823,39.0691686 30.2776758,39.2605596 C29.4618398,43.3431785 31.1916364,47.5139165 34.6601077,49.8273928 C38.1288126,52.1408691 42.6525906,52.1408691 46.1210618,49.8273928 C49.5895331,47.5139165 51.3195633,43.3431785 50.5034937,39.2605596 C50.4663465,39.0691686 50.3990611,38.8892005 50.3514005,38.7015394 C50.2453325,38.2595452 50.1100607,37.8252439 49.9460525,37.4014329 C49.8696554,37.2109744 49.7729326,37.0319388 49.685555,36.8470751 C49.50052,36.4484411 49.2900194,36.0619292 49.0552212,35.6898708 C48.9500877,35.5257547 48.8344408,35.3697979 48.7204294,35.2122092 C48.4585301,34.850408 48.1735015,34.5058577 47.8672126,34.1806562 C47.7375479,34.0438151 47.6060142,33.9100046 47.469107,33.7803903 C47.1448286,33.4761696 46.8011588,33.1931627 46.4404341,32.9330015 C46.2789957,32.8157425 46.1208282,32.6949867 45.9519137,32.5870524 C45.5965624,32.3653559 45.2276606,32.1653395 44.8477782,31.9881688 C44.6358758,31.886995 44.4316832,31.7741653 44.2116037,31.6869787 C43.8667658,31.5594624 43.5153862,31.4503625 43.1588668,31.3601454" id="Fill-6" fill="#5AC4ED"></path>
            <path d="M57.9188489,32.4633219 C58.1651002,32.1338566 58.4247298,31.8165417 58.6972842,31.5113773 C58.8827663,31.3027159 59.0673414,31.0963911 59.2643878,30.8991792 C59.6101827,30.5547594 59.9727571,30.2287989 60.3507506,29.9224662 C60.53782,29.7708187 60.7264766,29.6245454 60.9212555,29.4827117 C61.3840537,29.1392266 61.8665793,28.8254166 62.3665647,28.5424503 C62.475405,28.4821651 62.5905944,28.4333295 62.7014755,28.3760819 C63.2082634,28.112276 63.7300169,27.8807155 64.2642416,27.6828027 C64.3293191,27.6587353 64.387594,27.6220502 64.453125,27.5989175 C64.3980246,27.4316145 64.3243306,27.2741254 64.2610671,27.1107947 C64.1442905,26.7916105 64.0120948,26.4785016 63.8651603,26.1728698 C63.8166357,26.0768342 63.7547327,25.9894441 63.7032603,25.8952777 C63.4985044,25.5116024 63.2701664,25.1417133 63.0196068,24.7879469 L63.004868,24.7697212 C62.0872078,23.5151825 60.9071969,22.4894002 59.5523612,21.7687823 C59.478894,21.7299942 59.3990777,21.7024219 59.3244767,21.6655031 C58.9562335,21.4783387 58.5771063,21.3147743 58.1893625,21.1755109 C57.9036566,21.0773723 57.6050259,21.0096099 57.3082092,20.9376416 C57.0980112,20.885301 56.8934821,20.8168376 56.6789759,20.7785168 C56.6030144,20.7630951 56.5154886,20.7558515 56.4356723,20.7427663 C55.970153,20.6691624 55.5003255,20.6299069 55.029591,20.6254673 L54.9769848,20.625 C54.503756,20.6292059 54.0314342,20.6684614 53.5636474,20.7427663 C53.4840579,20.7558515 53.3965321,20.7630951 53.3210241,20.7785168 C53.1065179,20.8168376 52.9019888,20.885301 52.6920176,20.9376416 C52.3952009,21.0098436 52.0963434,21.0773723 51.8106375,21.1755109 C51.4228937,21.3147743 51.0437665,21.4783387 50.6755233,21.6655031 C50.6009223,21.7024219 50.521106,21.7299942 50.4476388,21.7687823 C49.0928031,22.4894002 47.9127922,23.5151825 46.995132,24.7697212 L46.9803932,24.7879469 C46.7300604,25.1417133 46.5017224,25.5116024 46.2967397,25.8952777 C46.245494,25.9894441 46.1835911,26.0768342 46.1350664,26.1728698 C45.9879052,26.4785016 45.8557095,26.7916105 45.7389329,27.1107947 C45.6756694,27.2741254 45.6022022,27.4316145 45.546875,27.5989175 C45.612406,27.6220502 45.6706809,27.6587353 45.7359851,27.6828027 C46.2699831,27.8807155 46.7919633,28.112276 47.2985245,28.3760819 C47.4096323,28.4333295 47.524595,28.4821651 47.6336621,28.5424503 C48.1336474,28.8254166 48.6166265,29.1394602 49.0794248,29.4829454 C49.2739769,29.6247791 49.4626335,29.7708187 49.6492494,29.9224662 C50.0272429,30.2287989 50.3898173,30.5547594 50.7356122,30.8991792 C50.9328853,31.0963911 51.1172337,31.3027159 51.3027158,31.5113773 C51.5752702,31.8174763 51.8348998,32.1350249 52.0816046,32.4637893 C52.2249111,32.6558606 52.3693513,32.8446606 52.5031342,33.0442091 C52.8205853,33.5152745 53.1103727,34.0055003 53.3713628,34.5120825 C53.4597956,34.6845261 53.5362106,34.8621103 53.6178409,35.0387598 C53.8350681,35.5049183 54.0275794,35.9829936 54.1946947,36.4708827 C54.2389111,36.6012669 54.2919708,36.7267441 54.3327859,36.8589976 C54.5203088,37.4732986 54.6672433,38.0999839 54.7729091,38.7346136 C54.799439,38.8895324 54.8207535,39.0449186 54.8422949,39.2012394 C54.9420652,39.8795642 54.9948981,40.5639643 55.0001134,41.25 C55.0053286,40.5644316 55.0579348,39.8800316 55.1577051,39.2021741 C55.1794732,39.0451523 55.2007878,38.8890651 55.2275444,38.733679 C55.3329835,38.0992829 55.4801447,37.4728313 55.6674408,36.8589976 C55.7082559,36.7269778 55.7613156,36.6012669 55.805532,36.4708827 C55.9724206,35.9829936 56.1649319,35.5049183 56.3821591,35.0387598 C56.4637894,34.8621103 56.5402044,34.6845261 56.6286372,34.5120825 C56.8894005,34.005734 57.179188,33.5157418 57.4964123,33.0449101 C57.6306487,32.8451279 57.7750889,32.6558606 57.9188489,32.4633219" id="Fill-7" fill="#5AC4ED"></path>
            <path d="M72.3773731,31.3590036 C72.0942138,31.2809042 71.8199323,31.1825223 71.5262596,31.1279693 C70.9038698,31.0067404 70.2716674,30.942862 69.637596,30.9375 L69.5766186,30.9379663 C68.943949,30.9433283 68.3133821,31.0069735 67.692394,31.1279693 C67.3987213,31.1825223 67.1244399,31.2809042 66.8410469,31.3590036 C66.4847614,31.4492259 66.1333821,31.5583319 65.7885445,31.6858554 C65.5684651,31.7730469 65.364039,31.885883 65.1521368,31.9870626 C64.7722547,32.1642433 64.4035868,32.364271 64.0480022,32.58598 C63.8793214,32.6939203 63.721154,32.814683 63.5597158,32.9319486 C63.1987577,33.1921245 62.8553218,33.4751474 62.53081,33.7793853 C62.3939029,33.909007 62.2623693,34.042825 62.1329384,34.1796738 C61.826416,34.5048937 61.5413876,34.8494635 61.2797222,35.2112852 C61.1654772,35.3688827 61.0498305,35.5248484 60.944697,35.6889737 C60.7101327,36.0610532 60.4996322,36.4475869 60.3143637,36.8462435 C60.2269862,37.0311175 60.1302634,37.2101633 60.0538665,37.4006326 C59.8900919,37.8244675 59.7545866,38.2587933 59.6485187,38.7008126 C59.6008582,38.8884842 59.5335728,39.0684625 59.4964257,39.2598643 C58.6805903,43.342714 60.4103856,47.5136877 63.8788542,49.8272947 C67.3475564,52.1409018 71.8713309,52.1409018 75.3397995,49.8272947 C78.8085017,47.5136877 80.538297,43.342714 79.722228,39.2598643 C79.6853145,39.0684625 79.6177954,38.8884842 79.5703686,38.7008126 C79.464067,38.2587933 79.3287953,37.8244675 79.1650208,37.4006326 C79.0886239,37.2101633 78.9916675,37.0311175 78.9042899,36.8462435 C78.7192551,36.4475869 78.5087546,36.0610532 78.2741902,35.6889737 C78.1688232,35.5248484 78.0534101,35.3688827 77.9391651,35.2112852 C77.677266,34.8494635 77.3922376,34.5048937 77.0859489,34.1796738 C76.956518,34.042825 76.8247507,33.909007 76.6878436,33.7793853 C76.3635654,33.4751474 76.0198959,33.1921245 75.6591715,32.9319486 C75.4977333,32.814683 75.3395659,32.6939203 75.1708851,32.58598 C74.8153005,32.364271 74.446399,32.1642433 74.0665169,31.9870626 C73.8548482,31.885883 73.6504221,31.7730469 73.4303428,31.6858554 C73.0855052,31.5583319 72.7341259,31.4492259 72.3773731,31.3590036" id="Fill-8" fill="#5AC4ED"></path>
            <path d="M86.2705128,32.4641182 C86.5168373,32.1346827 86.7760784,31.8173966 87.0486896,31.5122598 C87.2338295,31.3036173 87.4182895,31.0973113 87.6154397,30.9001172 C87.9607925,30.5557286 88.3231409,30.2297977 88.7008988,29.9234928 C88.8878516,29.771859 89.0763906,29.625599 89.2710481,29.4837782 C89.7335579,29.1403241 90.2157827,28.8265426 90.7154565,28.5436019 C90.824229,28.4833222 90.9393466,28.434491 91.0501586,28.3772486 C91.5566306,28.1134666 92.0780589,27.8819271 92.6119507,27.6840322 C92.6810665,27.6583315 92.7427043,27.6193133 92.8125,27.5950145 C91.4111474,23.4392205 87.6208783,20.6462614 83.3535965,20.625 C82.5754197,20.634813 81.8008688,20.7404193 81.0469392,20.9394824 C80.7503075,21.0116779 80.4518629,21.0792005 80.1661084,21.1775638 C79.7786063,21.316581 79.3997154,21.4803641 79.0317017,21.6675116 C78.9571472,21.7041934 78.8776073,21.7317632 78.8041859,21.7705478 C77.4501946,22.4911004 76.2709192,23.5167897 75.3536043,24.7712147 L75.3391013,24.7894388 C75.0886979,25.1431731 74.8605022,25.5130287 74.6558739,25.8966693 C74.6044336,25.9908271 74.5425692,26.0782093 74.4940748,26.1742362 C74.3470053,26.4798402 74.214892,26.7929208 74.0984148,27.112076 C74.0351908,27.275392 73.9615427,27.4328668 73.90625,27.6001546 C73.9719667,27.6232852 74.0302053,27.659967 74.0952423,27.6840322 C74.629134,27.8821608 75.1505623,28.1134666 75.6570343,28.3772486 C75.7678463,28.4347246 75.8827373,28.4833222 75.9917364,28.5436019 C76.4916368,28.8265426 76.9740882,29.1405577 77.4368247,29.4842454 C77.6310289,29.6258326 77.819568,29.771859 78.0062941,29.9234928 C78.384052,30.2297977 78.7464005,30.5557286 79.0919798,30.9001172 C79.2889034,31.0973113 79.4733635,31.3036173 79.65873,31.5122598 C79.9308879,31.8183311 80.1903557,32.1358509 80.4369067,32.4645855 C80.5801238,32.6566394 80.724474,32.8454223 80.8581736,33.0449528 C81.1754268,33.5159755 81.4652602,34.0061568 81.725861,34.5126931 C81.8144653,34.6851211 81.8908327,34.8629228 81.9724121,35.0393227 C82.1892773,35.5054389 82.3816687,35.9834709 82.5486798,36.4713158 C82.5928687,36.6016882 82.6458953,36.7273877 82.686685,36.8593955 C82.8740909,37.4736409 83.0211604,38.1002693 83.1265338,38.7348416 C83.1530471,38.8897464 83.1743484,39.0451184 83.1958763,39.2016587 C83.2955845,39.8796884 83.3483844,40.5640265 83.3535965,41.25 C83.3588085,40.5644937 83.4116085,39.8801557 83.5113166,39.2023596 C83.5328445,39.0453521 83.5541458,38.8892791 83.5808857,38.733907 C83.6864857,38.0995684 83.8333286,37.4731736 84.020508,36.8593955 C84.0612977,36.7273877 84.1143243,36.6016882 84.1585131,36.4713158 C84.3255242,35.9834709 84.5179156,35.5054389 84.7347808,35.0393227 C84.8163602,34.8626892 84.8929542,34.6851211 84.9811053,34.5126931 C85.2417061,34.0063905 85.5313129,33.5164427 85.8483395,33.0456537 C85.9824923,32.8458896 86.1270691,32.6566394 86.2705128,32.4641182" id="Fill-9" fill="#5AC4ED"></path>
            <path d="M61.6047027,14.411545 L61.587934,14.4321072 C61.3364035,14.7837444 61.1070803,15.1517851 60.9013239,15.533457 C60.8519242,15.6237922 60.7918742,15.7069652 60.7449671,15.7991487 C60.5942755,16.1082752 60.4592195,16.4250258 60.340479,16.7482455 C60.2799758,16.9032709 60.2090487,17.0525203 60.15625,17.2112422 C60.2396403,17.2401217 60.3166856,17.2821703 60.3991695,17.3126671 C60.5945021,17.3863676 60.7841696,17.471389 60.9754234,17.5534068 C63.4531113,18.59977 65.5816025,20.3533351 67.1050611,22.603628 C67.1621653,22.6874942 67.216097,22.7734397 67.2713884,22.858461 C67.4594697,23.1491046 67.6455116,23.4392861 67.8125187,23.744254 C68.018955,24.1171465 68.2090757,24.5004356 68.3824277,24.8936593 C68.4585667,25.0680916 68.5211094,25.249224 68.5904502,25.427584 C68.715309,25.7443347 68.8311036,26.064782 68.9337552,26.3926224 C68.9595881,26.4767196 68.9972043,26.555503 69.0216776,26.6402933 C69.137019,26.6354415 69.2550797,26.6421415 69.3724605,26.6402933 C69.4501857,26.638907 69.5256448,26.6285104 69.6038232,26.6285104 C69.6820016,26.6285104 69.7574607,26.638907 69.8351859,26.6402933 C69.9525667,26.6421415 70.0706274,26.6354415 70.1859688,26.6402933 C70.2104421,26.555503 70.2480583,26.4769506 70.2738912,26.3928534 C70.3765428,26.065013 70.4923374,25.7445657 70.6169696,25.427584 C70.6863104,25.2494551 70.7490797,25.0683227 70.8249921,24.8938903 C70.9983441,24.5011287 71.1882382,24.1183016 71.3944479,23.7454092 C71.5619082,23.4399792 71.7481767,23.1491046 71.9364846,22.85823 C71.991776,22.7732086 72.0454811,22.6872632 72.1025853,22.6038591 C73.6262705,20.353104 75.7554415,18.5993079 78.2335826,17.5529448 C78.4241566,17.4711579 78.6133709,17.3863676 78.8080237,17.3131292 C78.8945864,17.2810151 78.9750309,17.2371182 79.0625,17.2066214 C77.6627672,13.0960246 73.8716826,10.3328312 69.6038232,10.3125 C68.827478,10.3222035 68.054985,10.4261698 67.3026598,10.6220886 C67.0035425,10.6937098 66.702839,10.7611724 66.415052,10.8591317 C66.0314114,10.9956742 65.6563818,11.1557823 65.2920026,11.338763 C65.2131445,11.377115 65.129301,11.4062256 65.052029,11.4464259 C63.6992033,12.1584796 62.5210892,13.1720356 61.6047027,14.411545" id="Fill-10" fill="#5AC4ED"></path>
            <path d="M46.3766647,7.241285 C48.8528983,8.2876694 50.9801402,10.0412701 52.5027046,12.2916088 C52.5597752,12.3754767 52.6136753,12.4614239 52.6689342,12.546447 C52.8566787,12.8368654 53.0428378,13.1272839 53.2097469,13.4322579 C53.416062,13.805158 53.6060711,14.1884549 53.7793214,14.5816866 C53.8554157,14.7561225 53.9179217,14.9372586 53.9872218,15.1153911 C54.1120073,15.4323793 54.227734,15.7528331 54.3300989,16.0806802 C54.356143,16.1647791 54.3937372,16.243333 54.4181961,16.328125 C54.609564,16.3202696 54.8027438,16.3163419 55,16.3163419 C55.1970297,16.3163419 55.390436,16.3202696 55.5818039,16.328125 C55.6062628,16.243333 55.6436305,16.1647791 55.6696747,16.0806802 C55.772266,15.7528331 55.8877662,15.4323793 56.0125517,15.1153911 C56.0818519,14.9372586 56.1445843,14.7561225 56.2204521,14.5816866 C56.3937024,14.188917 56.5832586,13.8060821 56.7895737,13.4331821 C56.9567092,13.127746 57.1430948,12.8368654 57.3310658,12.5459849 C57.3863247,12.4609618 57.4402248,12.3750146 57.4972954,12.2916088 C59.0200863,10.040808 61.1477811,8.28697628 63.6246942,7.24059188 C63.8151563,7.15880339 64.0042595,7.07424241 64.1987981,7.00077139 C64.28531,6.9686567 64.3657072,6.92475892 64.453125,6.89426152 C63.0709726,2.77087394 59.2716955,0 55,0 C50.728078,0 46.9290274,2.77087394 45.546875,6.89426152 C45.6340663,6.92475892 45.7144635,6.9686567 45.800749,7.00054035 C45.9959669,7.07424241 46.1852967,7.15903443 46.3766647,7.241285" id="Fill-11" fill="#5AC4ED"></path>
            <path d="M31.7679936,17.553785 C34.2456519,18.6001694 36.3741176,20.3537701 37.8975579,22.6041088 C37.9546614,22.6877456 38.0085925,22.7739239 38.0638832,22.858947 C38.2517357,23.1493654 38.4380019,23.4397839 38.605007,23.7447579 C38.8114408,24.117658 39.0015592,24.5007239 39.1749092,24.8941866 C39.2510472,25.0686225 39.3135892,25.2497586 39.3829292,25.4278911 C39.5077865,25.7448793 39.6235797,26.0653331 39.7260035,26.3931802 C39.7520626,26.4772791 39.7894518,26.555833 39.8141514,26.640625 C40.0056294,26.6327696 40.1989203,26.6288419 40.39629,26.6288419 C40.5934331,26.6288419 40.7869506,26.6327696 40.9784287,26.640625 C41.0029016,26.555833 41.0402908,26.4772791 41.06635,26.3931802 C41.1690003,26.0653331 41.284567,25.7448793 41.4094243,25.4278911 C41.4787643,25.2497586 41.5415328,25.0686225 41.6174443,24.8941866 C41.7907942,24.501417 41.9804595,24.1185821 42.1868932,23.7456821 C42.354125,23.440246 42.5406178,23.1493654 42.7286969,22.8584849 C42.7839876,22.7734618 42.8379187,22.6875146 42.8950222,22.6041088 C44.4186891,20.353308 46.547608,18.5994763 49.025946,17.5530919 C49.2165177,17.4713034 49.4057298,17.3865114 49.6003802,17.3132714 C49.6830897,17.2825429 49.7601341,17.2404935 49.84375,17.2113823 C49.7907253,17.0526572 49.7197991,16.9034048 49.6595232,16.7483763 C49.5405575,16.4253811 49.4055032,16.108624 49.2550399,15.7994912 C49.2079068,15.7073058 49.1480841,15.6241311 49.0984584,15.5335631 C48.8929311,15.1518834 48.6636106,14.7840663 48.4118566,14.432422 L48.3950881,14.4118593 C47.4789392,13.1720937 46.3008392,12.1587481 44.9482563,11.4464489 C44.870532,11.4060167 44.7866896,11.3771366 44.7080589,11.3387838 C44.3436841,11.1557994 43.968659,10.995688 43.585023,10.8593739 C43.2972394,10.7614125 42.9965396,10.6937175 42.6974259,10.6220949 C41.9451097,10.4261721 41.172626,10.3222037 40.39629,10.3125 C36.1282552,10.3328316 32.3374426,13.0960812 30.9375,17.2067615 C31.0249681,17.2372589 31.1054115,17.2811567 31.1917466,17.3130403 C31.3870769,17.3867424 31.5765156,17.4715344 31.7679936,17.553785" id="Fill-12" fill="#5AC4ED"></path>
            <path d="M29.5635465,32.4641182 C29.8096443,32.1346827 30.0691121,31.8173966 30.3414966,31.5122598 C30.5268631,31.3036173 30.7113232,31.0973113 30.9082468,30.9001172 C31.2538261,30.5557286 31.6161746,30.2297977 31.9939325,29.9234928 C32.1806586,29.771859 32.3694243,29.625599 32.5640818,29.4837782 C33.026365,29.1403241 33.5088164,28.8265426 34.0082636,28.5436019 C34.1172627,28.4833222 34.2321537,28.434491 34.3429657,28.3772486 C34.8494377,28.1134666 35.370866,27.8819271 35.9047577,27.6840322 C35.9697947,27.659967 36.0280333,27.6232852 36.09375,27.6001546 C36.0375509,27.4302967 35.963223,27.2704855 35.8988659,27.1048331 C35.7760436,26.7915189 35.6593398,26.4749337 35.5079647,26.1779745 C35.4553913,26.0733028 35.3885415,25.9786777 35.332569,25.8763424 C35.1322463,25.5020476 34.9094892,25.1408367 34.6656575,24.7950462 C34.6529673,24.7772894 34.6377845,24.7621027 34.6248678,24.7445795 C33.7123117,23.5034721 32.5425539,22.488063 31.2005729,21.7726506 C31.1169541,21.7284922 31.0265369,21.6967168 30.9413318,21.6551285 C30.5826091,21.4733549 30.2139155,21.3142445 29.8368375,21.1780311 C29.5463242,21.0780323 29.2428942,21.0088742 28.9408239,20.9359778 C28.1907467,20.739251 27.4205013,20.634813 26.6466301,20.625 C22.3788951,20.6450932 18.5879462,23.4385195 17.1875,27.5950145 C17.2572957,27.6193133 17.3191601,27.6583315 17.3880493,27.6840322 C17.9219411,27.8819271 18.443596,28.1134666 18.9498414,28.3772486 C19.0606534,28.434491 19.175771,28.4833222 19.2847701,28.5436019 C19.7844439,28.8265426 20.2671219,29.1405577 20.7296317,29.4840118 C20.9240626,29.6258326 21.1126017,29.771859 21.2991012,29.9234928 C21.6768591,30.2297977 22.0392075,30.5557286 22.3847869,30.9001172 C22.5819371,31.0973113 22.7661705,31.3036173 22.951537,31.5122598 C23.2239216,31.8183311 23.4833893,32.1358509 23.7299404,32.4645855 C23.8731575,32.6566394 24.0175077,32.8454223 24.1512073,33.0449528 C24.4684605,33.5159755 24.7580673,34.0061568 25.0188947,34.5126931 C25.1072724,34.6851211 25.1836398,34.8626892 25.2652192,35.0393227 C25.482311,35.5054389 25.6747024,35.9834709 25.8414869,36.4713158 C25.8859023,36.6016882 25.938929,36.727154 25.9797186,36.8593955 C26.166898,37.4736409 26.3139675,38.1002693 26.4195675,38.7348416 C26.4460808,38.8897464 26.4671555,39.0451184 26.48891,39.2014251 C26.5886181,39.8796884 26.6411915,40.5640265 26.6466301,41.25 C26.6518422,40.5644937 26.7044155,39.8801557 26.8041237,39.2023596 C26.8258782,39.0453521 26.8471795,38.8892791 26.8736928,38.733907 C26.9792928,38.0995684 27.1261357,37.4731736 27.313315,36.8593955 C27.3541047,36.7273877 27.4071313,36.6016882 27.4515468,36.4713158 C27.6183313,35.9834709 27.8107227,35.5054389 28.0278145,35.0393227 C28.1093939,34.8626892 28.1857613,34.6851211 28.274139,34.5126931 C28.5347398,34.0063905 28.8243466,33.5164427 29.1413732,33.0456537 C29.275526,32.8458896 29.4198762,32.6566394 29.5635465,32.4641182" id="Fill-13" fill="#5AC4ED"></path>
            <g id="Group-17" transform="translate(0.000000, 30.937500)">
                <mask id="mask-2" fill="white">
                    <use xlink:href="#path-1"></use>
                </mask>
                <g id="Clip-15"></g>
                <path d="M12.0233048,20.1723168 C15.0197671,20.1848899 17.8630012,18.8409375 19.7675708,16.5117095 C21.6723673,14.1824815 22.4366922,11.1146398 21.849658,8.15561268 C21.8135643,7.96793026 21.7479599,7.79144935 21.7018779,7.60742457 C21.5985908,7.17399477 21.4671551,6.74810884 21.3080248,6.33251001 C21.2337942,6.145742 21.1395873,5.97017549 21.0549145,5.78912254 C20.8748998,5.39798414 20.6703685,5.01896167 20.4424558,4.65434113 C20.3403037,4.49317657 20.2279363,4.34024169 20.116931,4.18570659 C19.8624587,3.83091595 19.58574,3.49304187 19.2879098,3.17414178 C19.1621492,3.03995228 19.0341185,2.90873461 18.9010937,2.78163177 C18.5860112,2.48330588 18.2520873,2.20578279 17.901592,1.95066272 C17.7447317,1.8356758 17.5910495,1.71725985 17.4271521,1.61141703 C17.0816509,1.39401632 16.7234375,1.19787562 16.3543278,1.02413793 C16.1484346,0.924924569 15.9498054,0.814281096 15.735967,0.728783867 C15.400908,0.603738454 15.0594929,0.496752617 14.7133107,0.408512161 C14.437954,0.331701817 14.1714505,0.235231681 13.8861055,0.181967365 C10.1498349,-0.532871767 6.33411262,0.945270166 4.03682488,3.99756696 C1.73976415,7.04963516 1.35771521,11.1489301 3.0509434,14.578192 C4.74439858,18.0074538 8.22052182,20.1746028 12.0233048,20.1723168" id="Fill-14" fill="#5AC4ED" mask="url(#mask-2)"></path>
                <path d="M12.0233048,24.2082889 C5.38614092,24.2156042 0.00726415094,29.6321051 0,36.3162054 L0,46.40625 L24.0468367,46.40625 L24.0468367,36.3162054 C24.0395725,29.6321051 18.6606958,24.2156042 12.0233048,24.2082889" id="Fill-16" fill="#5AC4ED" mask="url(#mask-2)"></path>
            </g>
            <path d="M40.3907386,55 C33.7490243,55.0073633 28.3666439,60.459438 28.359375,67.1874372 L28.359375,77.34375 L52.421875,77.34375 L52.421875,67.1874372 C52.4146061,60.459438 47.0324529,55.0073633 40.3907386,55" id="Fill-18" fill="#5AC4ED"></path>
            <path d="M69.6094886,55 C62.9677743,55.0073633 57.5853939,60.459438 57.578125,67.1874372 L57.578125,77.34375 L81.640625,77.34375 L81.640625,67.1874372 C81.6335833,60.459438 76.2512029,55.0073633 69.6094886,55" id="Fill-19" fill="#5AC4ED"></path>
            <path d="M97.9686364,55 C91.3269221,55.0073633 85.9447689,60.459438 85.9375,67.1874372 L85.9375,77.34375 L110,77.34375 L110,67.1874372 C109.992731,60.459438 104.610351,55.0073633 97.9686364,55" id="Fill-20" fill="#5AC4ED"></path>
        </g>
    </g>
</svg>