<?xml version="1.0" encoding="UTF-8"?>
<svg width="111px" height="111px" viewBox="0 0 111 111" version="1.1" xmlns="http://www.w3.org/2000/svg" xmlns:xlink="http://www.w3.org/1999/xlink">
    <!-- Generator: Sketch 52.2 (67145) - http://www.bohemiancoding.com/sketch -->
    <title>birth</title>
    <desc>Created with Sketch.</desc>
    <g id="birth" stroke="none" stroke-width="1" fill="none" fill-rule="evenodd">
        <g id="Group-53" transform="translate(28.000000, 16.000000)" stroke="#FFFFFF" stroke-width="2">
            <g id="Group-54">
                <ellipse id="Oval-2" cx="28.0523156" cy="13.4284752" rx="12.703259" ry="12.7395411"></ellipse>
                <path d="M49.5348611,51.191327 C51.962032,51.9786641 53.4872781,51.7368296 54.3203857,50.6137286 C55.2200048,49.4009644 55.2379578,48.0153396 54.3076827,46.2877534 L39.6790963,30.7282346 C37.9109286,29.9316249 36.5941084,29.4947929 35.7739501,29.4142273 C34.9547,29.3337509 34.0993301,29.2705992 33.167768,29.219564 C32.0522693,29.158452 31.1576006,29.1262511 29.1369176,29.0661651 C28.5166125,29.04772 28.238945,29.039299 27.8928872,29.0281914 C22.2206774,28.8461289 18.0587994,29.5483214 15.3864801,31.1072273 L14.664724,31.4884747 L1.63666811,46.2396174 C0.714529513,48.3923799 0.807646436,49.9644145 1.8166158,51.1117754 C2.7644812,52.1896512 4.18535707,52.2843164 6.32406327,51.2458077 L16.1720678,39.9641529 L16.4593063,51.0534623 L39.3650627,51.0534623 L39.3650627,39.5410323 L49.5348612,51.191327 Z M13.6854031,57.2211585 C9.99412151,61.7639457 7.90430722,64.4128077 7.50453448,65.0480228 C7.04985648,65.770479 7.02041836,66.0815925 7.24276518,67.1877858 C7.35756602,67.7589292 7.63300535,68.3308965 8.08104458,68.907818 L18.0207395,78.5217131 C20.0466192,79.3616517 21.5273253,79.0956626 22.6993437,77.7545589 C23.8612629,76.4250113 23.8169782,75.0803887 22.4777969,73.3953108 L15.5022503,66.331684 L19.0730295,61.8349402 L13.6854031,57.2211585 Z M41.9442213,57.2211585 L36.5565949,61.8349402 L40.1273741,66.331684 L33.1518275,73.3953108 C31.8126462,75.0803887 31.7683614,76.4250113 32.9302807,77.7545589 C34.102299,79.0956626 35.5830052,79.3616517 37.6088848,78.5217131 L47.5485798,68.907818 C47.996619,68.3308965 48.2720583,67.7589292 48.3868592,67.1877858 C48.609206,66.0815925 48.5797679,65.770479 48.1250899,65.0480228 C47.7253171,64.4128077 45.6355028,61.7639457 41.9442213,57.2211585 Z" id="Combined-Shape"></path>
            </g>
        </g>
    </g>
</svg>