<?xml version="1.0" encoding="UTF-8"?>
<svg width="74px" height="74px" viewBox="0 0 74 74" version="1.1" xmlns="http://www.w3.org/2000/svg" xmlns:xlink="http://www.w3.org/1999/xlink">
    <!-- Generator: Sketch 52.5 (67469) - http://www.bohemiancoding.com/sketch -->
    <title>birth-certificate</title>
    <desc>Created with Sketch.</desc>
    <g id="birth-certificate" stroke="none" stroke-width="1" fill="none" fill-rule="evenodd">
        <g id="Group-53" transform="translate(13.000000, 3.000000)" stroke="#FFFFFF" stroke-width="1.6">
            <g id="Group-54">
                <ellipse id="Oval-2" cx="24.9832762" cy="11.04" rx="11.1153516" ry="11.04"></ellipse>
                <path d="M43.2974487,44.0815179 C45.4625017,44.7812409 46.8391321,44.5678786 47.5926981,43.5613839 C48.3970382,42.4870731 48.4116875,41.2588258 47.5825604,39.7374109 L34.7663761,26.2314634 C33.2049052,25.5336473 32.04081,25.1505951 31.3102536,25.0794937 C30.5921523,25.0096045 29.8425401,24.9547717 29.0263024,24.9104673 C28.0493275,24.8574382 27.2660351,24.8295062 25.4972513,24.7773961 C24.9545491,24.7614075 24.7116334,24.7541084 24.408919,24.7444818 C19.4318606,24.5862063 15.7760192,25.1973267 13.4254354,26.5559743 L12.7817567,26.892841 L1.36624083,39.6988588 C0.546222388,41.5903271 0.627868989,42.9802879 1.53078081,43.9975665 C2.38797776,44.9633397 3.67437875,45.0458511 5.5827847,44.1245779 L14.0804465,34.4797048 L14.3286225,43.9725016 L34.5194299,43.9725016 L34.5194299,34.1184387 L43.2974488,44.0815181 Z M11.9645976,49.1516901 C8.700348,53.1311467 6.85497508,55.4480356 6.50120133,56.0049721 C6.09342158,56.6469289 6.06622794,56.931669 6.26360526,57.9045728 C6.36630557,58.4107987 6.61264667,58.9168643 7.0125084,59.4260209 L15.7234637,67.7736783 C17.5333457,68.5208906 18.8701257,68.2858348 19.920826,67.0946496 C20.9671926,65.9083774 20.9186978,64.7012322 19.7562612,63.2621693 L13.6601778,57.1460927 L16.7876998,53.2439061 L11.9645976,49.1516901 Z M36.7113237,49.1516901 L31.8882215,53.2439061 L35.0157435,57.1460927 L34.5106345,57.6528583 L28.9742451,63.2015097 C27.7572235,64.7012322 27.7087287,65.9083774 28.7550953,67.0946496 C29.8057956,68.2858348 31.1425756,68.5208906 32.9524576,67.7736783 L41.6634129,59.4260209 C42.0632746,58.9168643 42.3096157,58.4107987 42.412316,57.9045728 C42.6096934,56.931669 42.5824997,56.6469289 42.17472,56.0049721 C41.8209462,55.4480356 39.9755733,53.1311467 36.7113237,49.1516901 Z" id="Combined-Shape"></path>
            </g>
        </g>
    </g>
</svg>