<?xml version="1.0" encoding="UTF-8"?>
<svg width="153px" height="153px" viewBox="0 0 153 153" version="1.1" xmlns="http://www.w3.org/2000/svg" xmlns:xlink="http://www.w3.org/1999/xlink">
    <!-- Generator: Sketch 52.3 (67297) - http://www.bohemiancoding.com/sketch -->
    <title>Economics Progress</title>
    <desc>Created with Sketch.</desc>
    <defs>
        <linearGradient x1="9.21158451%" y1="-22.5501053%" x2="81.8045833%" y2="88.4714304%" id="linearGradient-1">
            <stop stop-color="#2F7AE5" offset="0%"></stop>
            <stop stop-color="#7FB156" offset="67.121188%"></stop>
            <stop stop-color="#9DD835" offset="100%"></stop>
        </linearGradient>
        <polygon id="path-2" points="0.151640011 0.18132039 55.2898231 0.18132039 55.2898231 44.5945946 0.151640011 44.5945946"></polygon>
        <polygon id="path-4" points="0.0114970439 0.0381057579 98.1077249 0.0381057579 98.1077249 78.3456279 0.0114970439 78.3456279"></polygon>
    </defs>
    <g id="strategy" stroke="none" stroke-width="1" fill="none" fill-rule="evenodd">
        <g id="Strategic-Plan" transform="translate(-456.000000, -1812.000000)">
            <g id="Group-75" transform="translate(375.000000, 1812.000000)">
                <g id="Economics-Progress" transform="translate(81.000000, 0.000000)">
                    <circle id="Oval-Copy" fill="url(#linearGradient-1)" transform="translate(76.500000, 76.500000) scale(1, -1) translate(-76.500000, -76.500000) " cx="76.5" cy="76.5" r="76.5"></circle>
                    <g id="deal" transform="translate(27.000000, 29.000000)">
                        <g id="Group-3" transform="translate(15.162162, 49.945946)">
                            <mask id="mask-3" fill="white">
                                <use xlink:href="#path-2"></use>
                            </mask>
                            <g id="Clip-2"></g>
                            <path d="M45.4078222,15.2645575 C45.2995079,15.0817771 45.16326,14.9173704 45.0040189,14.7772706 L35.4140234,6.32094885 C35.0313129,5.98409697 34.5399081,5.79901984 34.031591,5.80016819 L29.8468587,5.80016819 L26.3545779,8.57134903 C24.4691491,10.0632583 21.8270404,10.1044078 19.8969557,8.67183041 C17.7122374,7.06987008 17.1159387,4.04624174 18.5270649,1.72521749 L18.7729574,1.31908131 L14.3180095,1.87182461 C12.7928682,2.06034683 11.2479643,2.01766616 9.73536473,1.74512238 L1.14452104,0.195603758 C0.893307885,0.149095233 0.634493731,0.217422573 0.438387852,0.38221204 C0.257103929,0.530733094 0.151830036,0.753706067 0.151640011,0.989119592 L0.151640011,21.755272 C0.162661466,22.2113618 0.537960992,22.572712 0.990980775,22.5631423 L8.13117303,22.5631423 C9.48415157,22.5598886 10.7875336,23.0756931 11.7764241,24.0056722 L31.6547573,43.4081487 C32.5915809,44.2694177 33.8453664,44.693162 35.1082731,44.5752639 L30.4306158,38.0778506 C29.9050064,37.3476859 30.0667177,36.3264122 30.7916634,35.7970189 C31.5166091,35.2676256 32.5305829,35.4305011 33.0561923,36.1606658 L38.5653993,43.8135193 L43.0594923,42.6990372 L36.5081878,31.8663786 C36.0460468,31.09583 36.289659,30.093887 37.0533697,29.6259309 C37.8168905,29.1579747 38.8124319,29.4002784 39.2795135,30.1677648 L46.2817476,41.7462823 C47.2537258,41.349333 48.1690766,40.8241503 49.0040468,40.1848973 L50.9552243,38.6792077 L41.4410488,23.33905 C41.132068,22.8444902 41.109075,22.2211228 41.3810008,21.7047442 C41.6527367,21.188557 42.177966,20.8578297 42.7579225,20.8381162 C43.337689,20.8182113 43.8840111,21.1119998 44.1899515,21.6084735 L53.5403254,36.6843174 L53.5551474,36.6728338 C55.3309317,35.3131771 55.8130254,32.8288946 54.6762953,30.8960155 L45.4078222,15.2645575" id="Fill-1" fill="#FFFFFF" mask="url(#mask-3)"></path>
                        </g>
                        <path d="M23.0793552,75.8108721 L17.1804381,75.8108721 L17.0456046,76.2168191 C16.813631,77.1713017 16.9908461,78.1814801 17.5331804,78.9945225 L24.0325659,85.5281449 C24.9278301,86.4246351 26.0132488,87.0987253 27.2049966,87.4979735 L36.3596074,90.5665961 C37.2899396,90.8730181 38.2664039,91.007951 39.2432432,90.9652701 L24.4700714,76.3540487 C24.0899498,76.0007351 23.5933726,75.8068528 23.0793552,75.8108721" id="Fill-4" fill="#FFFFFF"></path>
                        <g id="Group-8">
                            <mask id="mask-5" fill="white">
                                <use xlink:href="#path-4"></use>
                            </mask>
                            <g id="Clip-6"></g>
                            <path d="M82.4669547,56.8579616 L76.1564189,57.4172252 C72.8040725,57.7201755 69.4835346,56.5711257 67.0530595,54.2669597 L63.3117298,51.7076177 C63.1760647,51.6158606 63.0342678,51.533772 62.8869141,51.4619209 L62.7048775,51.3584097 L59.3626869,49.1624943 C57.1654102,47.7169401 54.5843238,46.948 51.9455606,46.9531187 L41.1224351,46.9531187 C40.4259058,46.9491375 39.7730654,47.2877289 39.3802497,47.8566612 L38.0207242,49.843848 L36.038059,53.0623627 C35.5049794,53.9304536 35.7341538,55.0580807 36.5650069,55.6548813 C37.3253447,56.2130074 38.3694679,56.1985993 39.1135183,55.6192401 L42.4572419,53.0125029 L42.4572419,51.3798324 C42.4572419,50.4863376 43.189412,49.7619491 44.0923131,49.7619491 C44.9954059,49.7619491 45.727576,50.4863376 45.727576,51.3798324 L45.727576,52.1800533 L48.8796822,52.1800533 C50.1844051,52.1791054 51.4452476,52.6466118 52.42767,53.4959342 L62.0980252,61.872376 C62.5165176,62.2348547 62.8748422,62.6602742 63.1599689,63.1330889 L72.342083,78.3456279 L82.1459956,74.9432197 C82.901543,74.6379945 83.3941913,73.9098143 83.3915087,73.1025789 L83.3915087,57.6542013 C83.391317,57.4337188 83.296658,57.2236631 83.1312922,57.0757901 C82.9496389,56.9157838 82.7093507,56.8369181 82.4669547,56.8579616" id="Fill-5" fill="#FFFFFF" mask="url(#mask-5)"></path>
                            <path d="M73.5806978,27.540036 C72.2194478,27.5455339 70.9980785,26.7128946 70.5188434,25.4519922 C70.0396083,24.1912793 70.4036814,22.7686643 71.4315171,21.885407 L71.4363075,21.8825633 L71.4386069,21.87953 C72.72321,20.7483008 74.6775158,20.8078292 75.8893043,22.0154595 L75.8914121,22.0184928 L75.8942863,22.0203886 C76.828996,22.9455433 77.1081825,24.3366878 76.6017378,25.5450764 C76.095293,26.7532754 74.9028579,27.5407944 73.5806978,27.540036 Z M59.826401,13.65153 L59.8242932,13.6484967 L59.8212273,13.6466009 C58.8623738,12.7089338 58.5810795,11.2863188 59.1124345,10.0604888 C59.643598,8.83465883 60.879147,8.05529181 62.2266005,8.09624128 C63.5740541,8.13700118 64.759016,8.989736 65.2133409,10.2455198 C65.6676658,11.5013036 65.2988023,12.9042021 64.2838049,13.781772 L64.2793977,13.7844262 L64.2770983,13.7872699 C62.9924952,14.9186886 61.0379978,14.8589706 59.826401,13.65153 Z M37.6077887,38.8642711 C36.2856287,38.8650294 35.0933852,38.0777 34.5867488,36.8693114 C34.0803041,35.6611124 34.3594906,34.2699679 35.2942003,33.3446236 L35.2972662,33.3427278 L35.2993739,33.3396945 C35.9113999,32.7336044 36.7418697,32.3933067 37.6077887,32.3933067 C38.4737078,32.3933067 39.3041776,32.7336044 39.9162035,33.3396945 L39.9183113,33.3427278 L39.9213772,33.3446236 C40.8560869,34.2699679 41.1352734,35.6611124 40.6288287,36.8693114 C40.1221923,38.0777 38.9299488,38.8650294 37.6077887,38.8642711 Z M17.9861671,19.4511884 C17.9850174,17.9866761 18.9781704,16.7039718 20.4078278,16.3238621 C21.8372936,15.9437524 23.3466639,16.5612174 24.0876483,17.8291344 C24.8284412,19.0970513 24.6161291,20.6991994 23.5700897,21.7352589 L23.5670239,21.7371547 L23.5649161,21.7403776 C22.6298232,22.6649636 21.2237347,22.9411829 20.0023654,22.4399311 C18.7811877,21.9388688 17.9854007,20.7592965 17.9861671,19.4511884 Z M97.9818322,1.03795535 C97.7281308,0.434519389 97.1333504,0.0405703094 96.4726536,0.0381057579 L91.5672482,0.0381057579 C90.6641554,0.0381057579 89.9321769,0.76249432 89.9321769,1.65579945 C89.9321769,2.54929416 90.6641554,3.27368273 91.5672482,3.27368273 L92.5253352,3.27368273 L76.8824572,18.7503079 C74.9885109,17.6052393 72.6262516,17.5277007 70.6596822,18.5457501 L67.5324863,15.0074125 C69.3957739,12.3568821 69.005066,8.75389738 66.6157886,6.55475911 C64.2265113,4.35543126 60.5662357,4.22973913 58.0284549,6.25958167 C55.4906741,8.28942421 54.848181,11.8567677 56.5210008,14.629009 L40.9095481,30.0745429 C38.8818528,28.8521253 36.3339163,28.8521253 34.306221,30.0745429 L26.8703162,22.7176671 C27.4706535,21.7312777 27.7908462,20.6027027 27.7969779,19.4511884 C27.7969779,15.8773991 24.8686808,12.9802241 21.2565013,12.9802241 C17.6441301,12.9802241 14.715833,15.8773991 14.715833,19.4511884 C14.7233061,20.504879 14.9940614,21.5403698 15.5039553,22.4653349 L0.529822107,36.0544928 C0.0994494299,36.4450294 -0.0877607686,37.0331093 0.0388983319,37.597302 C0.165557432,38.1613051 0.586924092,38.6157305 1.14395587,38.789197 C1.70098765,38.9628531 2.30937289,38.829009 2.73974557,38.4384724 L17.6956751,24.8659976 C19.7632269,26.2220697 22.436098,26.2764794 24.5582607,25.0053396 L31.9941654,32.3622154 C31.3936365,33.3487944 31.0734438,34.4771798 31.0673121,35.6286941 C31.0673121,39.2026729 33.9956092,42.099848 37.6077887,42.099848 C41.2199683,42.099848 44.1482654,39.2026729 44.1482654,35.6286941 C44.1421337,34.4771798 43.821941,33.3487944 43.2216037,32.3622154 L58.8330564,16.9166816 C60.7270027,18.0615605 63.0894537,18.1390991 65.056023,17.1210497 L68.183219,20.6593874 C66.3199314,23.3101073 66.7106393,26.913092 69.0999166,29.1122303 C71.4891939,31.3113686 75.1494695,31.4372503 77.6872503,29.4074078 C80.2250311,27.3775652 80.8675243,23.8100321 79.1945128,21.0379804 L94.8375823,5.56116569 L94.8375823,6.50907011 C94.8375823,7.40256483 95.5695608,8.12695339 96.4726536,8.12695339 C97.3757464,8.12695339 98.1077249,7.40256483 98.1077249,6.50907011 L98.1077249,1.65579945 C98.10715,1.44365844 98.0644193,1.2337924 97.9818322,1.03795535 Z" id="Fill-7" fill="#FFFFFF" mask="url(#mask-5)"></path>
                        </g>
                    </g>
                </g>
            </g>
        </g>
    </g>
</svg>