<?xml version="1.0" encoding="UTF-8"?>
<svg width="74px" height="74px" viewBox="0 0 74 74" version="1.1" xmlns="http://www.w3.org/2000/svg" xmlns:xlink="http://www.w3.org/1999/xlink">
    <!-- Generator: Sketch 52.5 (67469) - http://www.bohemiancoding.com/sketch -->
    <title>electricity</title>
    <desc>Created with Sketch.</desc>
    <g id="electricity" stroke="none" stroke-width="1" fill="none" fill-rule="evenodd">
        <g id="Group-2" transform="translate(7.000000, 7.000000)" fill="#FFFFFF">
            <g id="Group">
                <path d="M32.9679512,38.9252555 C33.5202439,38.9252555 33.9665854,38.4788321 33.9665854,37.9290511 L33.9665854,23.9766423 L36.9638049,23.9766423 C39.7179512,23.9766423 41.958878,21.7411679 41.958878,18.9937226 C41.958878,16.2462774 39.7179512,14.0108029 36.9638049,14.0108029 C34.2096585,14.0108029 31.9687317,16.2462774 31.9687317,18.9937226 L31.9687317,21.9835036 L27.972439,21.9835036 L27.972439,18.9937226 C27.972439,16.2462774 25.7320976,14.0108029 22.9773659,14.0108029 C20.2230732,14.0108029 17.9822927,16.2462774 17.9822927,18.9937226 C17.9822927,21.7411679 20.2230732,23.9766423 22.9773659,23.9766423 L25.974439,23.9766423 L25.974439,37.9290511 C25.974439,38.4788321 26.4220976,38.9252555 26.9736585,38.9252555 C27.5247805,38.9252555 27.972439,38.4788321 27.972439,37.9290511 L27.972439,23.9766423 L31.9687317,23.9766423 L31.9687317,37.9290511 C31.9687317,38.4788321 32.4152195,38.9252555 32.9679512,38.9252555 Z M33.9665854,18.9937226 C33.9665854,17.3451095 35.3117561,16.0039416 36.9638049,16.0039416 C38.616439,16.0039416 39.960878,17.3451095 39.960878,18.9937226 C39.960878,20.6417518 38.616439,21.9835036 36.9638049,21.9835036 L33.9665854,21.9835036 L33.9665854,18.9937226 Z M25.974439,21.9835036 L22.9773659,21.9835036 C21.3253171,21.9835036 19.9807317,20.6417518 19.9807317,18.9937226 C19.9807317,17.3451095 21.3253171,16.0039416 22.9773659,16.0039416 C24.63,16.0039416 25.974439,17.3451095 25.974439,18.9937226 L25.974439,21.9835036 Z" id="Fill-1"></path>
                <path d="M7.13297561,2.17810219 L10.9573171,5.38 C11.1453659,5.53737226 11.3729268,5.61328467 11.5999024,5.61328467 C11.8845366,5.61328467 12.168,5.4929927 12.3646829,5.25737226 C12.7197073,4.83605839 12.6648293,4.20759124 12.2417561,3.85343066 L8.418,0.651386861 C7.99507317,0.298540146 7.36565854,0.353284672 7.01004878,0.774014599 C6.65560976,1.19664234 6.7104878,1.82452555 7.13297561,2.17810219 Z" id="Fill-2"></path>
                <path d="M7.7795122,10.8744526 L3.08692683,9.17109489 C2.56843902,8.98408759 1.9962439,9.24978102 1.80643902,9.7670073 C1.61839024,10.2842336 1.88531707,10.8567883 2.40380488,11.0449635 L7.09580488,12.7483212 C7.20907317,12.7887591 7.32395122,12.8087591 7.43765854,12.8087591 C7.84521951,12.8087591 8.22878049,12.5566423 8.37687805,12.1524088 C8.5655122,11.6345985 8.298,11.0626277 7.7795122,10.8744526 Z" id="Fill-3"></path>
                <g id="Group-7" transform="translate(0.000000, 0.291971)">
                    <path d="M48.3389268,5.32131387 C48.5647317,5.32131387 48.7922927,5.24481752 48.9791707,5.0880292 L52.8052683,1.88437956 C53.2283415,1.53021898 53.2836585,0.902335766 52.9281951,0.479854015 C52.5765366,0.0601459854 51.9466829,0.00364963504 51.5218537,0.357226277 L47.6953171,3.56145985 C47.2728293,3.9150365 47.2179512,4.54291971 47.5723902,4.96540146 C47.7696585,5.19985401 48.053122,5.32131387 48.3389268,5.32131387 Z" id="Fill-4"></path>
                    <path d="M5.99195122,18.7035036 L0.999219512,18.7035036 C0.447658537,18.7035036 0,19.149927 0,19.700292 C0,20.249927 0.447658537,20.6964964 0.999219512,20.6964964 L5.99195122,20.6964964 C6.54365854,20.6964964 6.99117073,20.249927 6.99117073,19.700292 C6.99117073,19.149927 6.54365854,18.7035036 5.99195122,18.7035036 Z" id="Fill-6"></path>
                </g>
                <path d="M58.1329756,9.76408759 C57.9455122,9.2480292 57.3709756,8.98 56.8536585,9.16934307 L52.1599024,10.8732847 C51.6408293,11.0620438 51.3739024,11.6340146 51.5625366,12.1512409 C51.7104878,12.5554745 52.0930244,12.8070073 52.5017561,12.8070073 C52.6142927,12.8070073 52.7303415,12.7881752 52.842439,12.7459854 L57.5367805,11.0420438 C58.0552683,10.8532847 58.3227805,10.2813139 58.1329756,9.76408759 Z" id="Fill-8"></path>
                <path d="M29.970878,0.0583941606 C18.953561,0.0583941606 9.99014634,9 9.99014634,19.9905109 C9.99014634,28.4017518 13.2970244,34.6763504 20.3992683,39.7367883 C20.4329268,39.7607299 20.4832683,39.790365 20.5198537,39.810365 C20.5718049,39.8382482 21.647122,40.4370803 21.9169756,42.1175182 C20.789122,42.5470073 19.9807317,43.6305109 19.9807317,44.9049635 C19.9807317,45.670219 20.2700488,46.3693431 20.7456585,46.8985401 C20.2700488,47.4272993 19.9807317,48.1264234 19.9807317,48.8916788 C19.9807317,49.6569343 20.2700488,50.3554745 20.7456585,50.8846715 C20.2700488,51.4138686 19.9807317,52.1124088 19.9807317,52.8776642 C19.9807317,54.5262774 21.3253171,55.8675912 22.9773659,55.8675912 C23.5289268,55.8675912 23.9765854,55.4210219 23.9765854,54.8713869 C23.9765854,54.3210219 23.5289268,53.8745985 22.9773659,53.8745985 C22.4274146,53.8745985 21.9787317,53.4274453 21.9787317,52.8782482 C21.9787317,52.3291971 22.4274146,51.8814599 22.9773659,51.8814599 L32.9679512,51.8814599 C33.5202439,51.8814599 33.9665854,51.4350365 33.9665854,50.8852555 C33.9665854,50.3350365 33.5202439,49.8884672 32.9679512,49.8884672 L22.9773659,49.8884672 C22.4274146,49.8884672 21.9787317,49.4408759 21.9787317,48.8916788 C21.9787317,48.3424818 22.4274146,47.8954745 22.9773659,47.8954745 L32.9679512,47.8954745 C33.5202439,47.8954745 33.9665854,47.4489051 33.9665854,46.8985401 C33.9665854,46.3489051 33.5202439,45.9023358 32.9679512,45.9023358 L22.9773659,45.9023358 C22.4274146,45.9023358 21.9787317,45.4547445 21.9787317,44.9055474 C21.9787317,44.3563504 22.4274146,43.9093431 22.9773659,43.9093431 L32.9679512,43.9093431 C33.5202439,43.9093431 33.9665854,43.4627737 33.9665854,42.9125547 C33.9665854,42.3621898 33.5202439,41.9163504 32.9679512,41.9163504 L23.9085366,41.9163504 C23.5552683,39.4065693 21.924878,38.3191241 21.5161463,38.0842336 C14.9262439,33.3732847 11.9885854,27.7910949 11.9885854,19.9910949 C11.9885854,10.0994161 20.0556585,2.0519708 29.970878,2.0519708 C39.8860976,2.0519708 47.9531707,10.0994161 47.9531707,19.9910949 C47.9531707,27.7910949 45.0149268,33.3732847 38.4254634,38.0842336 C37.9659512,38.3481752 35.9651707,39.6889051 35.9651707,42.9125547 C35.9651707,43.4627737 36.4115122,43.9093431 36.9638049,43.9093431 C37.5153659,43.9093431 37.9630244,44.3563504 37.9630244,44.9055474 C37.9630244,45.4547445 37.5153659,45.9023358 36.9638049,45.9023358 C36.4115122,45.9023358 35.9651707,46.3489051 35.9651707,46.8985401 C35.9651707,47.4489051 36.4115122,47.8954745 36.9638049,47.8954745 C37.5153659,47.8954745 37.9630244,48.3424818 37.9630244,48.8916788 C37.9630244,49.4408759 37.5153659,49.8884672 36.9638049,49.8884672 C36.4115122,49.8884672 35.9651707,50.3350365 35.9651707,50.8852555 C35.9651707,51.4350365 36.4115122,51.8814599 36.9638049,51.8814599 C37.5153659,51.8814599 37.9630244,52.3291971 37.9630244,52.8782482 C37.9630244,53.4462774 37.5332195,53.8745985 36.9638049,53.8745985 L26.9736585,53.8745985 C26.4220976,53.8745985 25.974439,54.3210219 25.974439,54.8713869 L25.974439,56.8643796 C25.974439,58.5124088 27.3196098,59.8543066 28.9716585,59.8543066 L30.9700976,59.8543066 C32.6221463,59.8543066 33.9665854,58.5124088 33.9665854,56.8643796 L33.9665854,55.8675912 L36.9638049,55.8675912 C38.645561,55.8675912 39.960878,54.5543066 39.960878,52.8776642 C39.960878,52.1124088 39.671122,51.4138686 39.1955122,50.8846715 C39.671122,50.3554745 39.960878,49.6569343 39.960878,48.8916788 C39.960878,48.1258394 39.671122,47.4272993 39.1955122,46.8981022 C39.671122,46.3689051 39.960878,45.670219 39.960878,44.9049635 C39.960878,43.6305109 39.1526341,42.5470073 38.0241951,42.1175182 C38.2934634,40.4370803 39.3676098,39.8394161 39.4087317,39.8166423 C39.455561,39.7937226 39.5007805,39.7664234 39.5424878,39.7367883 C46.6434146,34.6757664 49.9510244,28.4011679 49.9510244,19.989927 C49.9510244,9 40.9881951,0.0583941606 29.970878,0.0583941606 Z M31.9687317,56.8643796 C31.9687317,57.4135766 31.5212195,57.8605839 30.9700976,57.8605839 L28.9716585,57.8605839 C28.421122,57.8605839 27.972878,57.4135766 27.972878,56.8643796 L27.972878,55.8675912 L31.9687317,55.8675912 L31.9687317,56.8643796 Z" id="Fill-9"></path>
                <path d="M58.9423902,18.9937226 L53.9474634,18.9937226 C53.3945854,18.9937226 52.9480976,19.440292 52.9480976,19.989927 C52.9480976,20.540292 53.3945854,20.9867153 53.9474634,20.9867153 L58.9423902,20.9867153 C59.4946829,20.9867153 59.9417561,20.540292 59.9417561,19.989927 C59.9417561,19.440292 59.4946829,18.9937226 58.9423902,18.9937226 Z" id="Fill-10"></path>
            </g>
        </g>
    </g>
</svg>