<?xml version="1.0" encoding="UTF-8"?>
<svg width="128px" height="128px" viewBox="0 0 128 128" version="1.1" xmlns="http://www.w3.org/2000/svg" xmlns:xlink="http://www.w3.org/1999/xlink">
    <!-- Generator: Sketch 52.2 (67145) - http://www.bohemiancoding.com/sketch -->
    <title>Female Population</title>
    <desc>Created with Sketch.</desc>
    <g id="Female-Population" stroke="none" stroke-width="1" fill="none" fill-rule="evenodd">
        <g id="female-silhouette" transform="translate(28.000000, 10.000000)" stroke="#5AC4ED" stroke-width="3.5">
            <path d="M36.5021405,26 C39.9637316,26 42.9098942,24.7337923 45.3483338,22.1987054 C47.7867735,19.6662899 49,16.5987191 49,13.0022261 C49,9.40217131 47.7867735,6.33727182 45.3483338,3.80218501 C42.9098942,1.26620775 39.9603069,0 36.5021405,0 C33.0405493,0 30.0935306,1.26620775 27.6559471,3.80218501 C25.2209322,6.33371006 24,9.40217131 24,13.0022261 C24,16.5987191 25.2175074,19.6662899 27.6559471,22.1987054 C30.0935306,24.7337923 33.0405493,26 36.5021405,26 Z" id="Fill-1"></path>
            <path d="M72.0873906,61.771606 L57.4856407,39.2687292 C54.7101882,35.0892767 51.3677454,33 47.4504375,33 L25.5486875,33 C21.6357545,33 18.2889368,35.0892767 15.5134844,39.2687292 L0.912609373,61.771606 C0.304494786,62.7092633 0,63.7413157 0,64.8758541 C0,66.4383166 0.532865876,67.7661401 1.59597267,68.8584254 C2.66257941,69.9543068 3.95493228,70.501798 5.47565624,70.501798 C7.41374805,70.501798 8.93447201,69.6594347 10.0387031,67.9801021 L22.9823565,47.9989212 L25.5486875,47.9989212 L25.5486875,55.7348189 L11.4640537,79.8181382 C11.1219346,80.4015894 10.9513125,81.0470717 10.9513125,81.7500899 C10.9513125,82.7650613 11.3100563,83.6460816 12.0345439,84.3868578 C12.7555316,85.1285331 13.6103919,85.5007192 14.60175,85.5007192 L25.5486875,85.5007192 L25.5486875,101.436399 C25.5486875,103.234399 26.1743018,104.779781 27.4290303,106.068947 C28.6863838,107.357215 30.1869831,108 31.9369531,108 L41.0595469,108 C42.809517,108 44.3136162,107.357215 45.5674697,106.068947 C46.8221983,104.779781 47.4478125,103.234399 47.4478125,101.436399 L47.4478125,85.5007192 L58.39825,85.5007192 C59.3861081,85.5007192 60.2444684,85.1285331 60.9654561,84.3868578 C61.6864437,83.6460816 62.0486875,82.7650613 62.0486875,81.7500899 C62.0486875,81.0470717 61.8780654,80.4015894 61.5359463,79.8181382 L47.4504375,55.7348189 L47.4504375,47.9989212 L50.0176435,47.9989212 L62.9612969,67.9801021 C64.065528,69.6621317 65.5862519,70.501798 67.5243438,70.501798 C69.0450677,70.501798 70.3374206,69.9543068 71.4031523,68.8620214 C72.4662591,67.7661401 73,66.4383166 73,64.8758541 C73,63.7413157 72.6955052,62.7092633 72.0873906,61.771606 Z" id="Fill-2"></path>
        </g>
    </g>
</svg>