<?xml version="1.0" encoding="UTF-8"?>
<svg width="185px" height="99px" viewBox="0 0 185 99" version="1.1" xmlns="http://www.w3.org/2000/svg" xmlns:xlink="http://www.w3.org/1999/xlink">
    <!-- Generator: Sketch 52.2 (67145) - http://www.bohemiancoding.com/sketch -->
    <title>health</title>
    <desc>Created with Sketch.</desc>
    <defs>
        <linearGradient x1="0%" y1="100%" x2="100%" y2="95.5797281%" id="linearGradient-1">
            <stop stop-color="#123ECF" offset="0%"></stop>
            <stop stop-color="#53C1FD" offset="47.5247532%"></stop>
            <stop stop-color="#A8E63C" offset="100%"></stop>
        </linearGradient>
        <linearGradient x1="0%" y1="27.322549%" x2="97.0599578%" y2="27.3208803%" id="linearGradient-2">
            <stop stop-color="#123ECF" offset="0%"></stop>
            <stop stop-color="#53C1FD" offset="47.5247532%"></stop>
            <stop stop-color="#A8E63C" offset="100%"></stop>
        </linearGradient>
    </defs>
    <g id="home2" stroke="none" stroke-width="1" fill="none" fill-rule="evenodd">
        <g id="kanpur-Smart-City-slider2" transform="translate(-908.000000, -1239.000000)">
            <g id="features" transform="translate(375.000000, 1180.000000)">
                <g id="Group-64-Copy" transform="translate(534.000000, 60.000000)">
                    <g id="health">
                        <path d="M0,97.3549589 C0,43.5872059 40.9658571,2.13162821e-14 91.5,2.13162821e-14 C142.034143,2.13162821e-14 183,43.5872059 183,97.3549589" id="Stroke-3" stroke="url(#linearGradient-1)" stroke-width="2"></path>
                        <g id="first-aid-kit" transform="translate(63.000000, 39.000000)" fill="url(#linearGradient-2)">
                            <path d="M31.3125172,4 L25.6873455,4 C23.102796,4 21,6.24291399 21,9.00041503 C21,9.55191524 21.419955,10 21.9371395,10 C22.4547361,10 22.8748283,9.55191524 22.8748283,9.00041503 C22.8748283,7.34620737 24.1364785,6.00034179 25.6873455,6.00034179 L31.3125172,6.00034179 C32.8628349,6.00034179 34.1251717,7.34620737 34.1251717,9.00041503 C34.1251717,9.55191524 34.5451266,10 35.0623112,10 C35.5799077,10 36,9.55191524 36,9.00041503 C36,6.24349991 33.897204,4 31.3125172,4 Z" id="Fill-1"></path>
                            <path d="M53.1666902,12 L4.83330972,12 C2.16821371,12 0,14.1490906 0,16.7916199 L0,22.5411987 C0,23.8408447 0.783768474,24.8876648 1.93315397,25.2648682 L1.93315397,53.2083801 C1.93315397,55.8503479 4.10150928,58 6.7670301,58 L51.2333946,58 C53.8984906,58 56.0667043,55.8503479 56.0667043,53.2083801 L56.0667043,28.2913391 C56.0667043,27.7626648 55.634251,27.3333801 55.1004105,27.3333801 C54.5667116,27.3333801 54.1335504,27.7626648 54.1335504,28.2913391 L54.1335504,53.2083801 C54.1335504,54.7931396 52.8325088,56.082959 51.2333946,56.082959 L6.76646369,56.082959 C5.16791585,56.082959 3.86644954,54.7931396 3.86644954,53.2083801 L3.86644954,24.4582397 C3.86644954,23.9291443 3.43328824,23.4997192 2.90001415,23.4997192 C2.30386867,23.4997192 1.93315397,23.1329041 1.93315397,22.5417603 L1.93315397,16.7916199 C1.93315397,15.2062988 3.23476188,13.9164795 4.83330972,13.9164795 L53.1672566,13.9164795 C54.7658044,13.9164795 56.0667043,15.2062988 56.0667043,16.7916199 L56.0667043,22.5417603 C56.0667043,23.1234985 55.6873519,23.4997192 55.1004105,23.4997192 L50.2671008,23.4997192 L50.2671008,19.6666199 C50.2671008,18.6094116 49.399787,17.7495789 48.3333804,17.7495789 L46.4002265,17.7495789 C45.3342447,17.7495789 44.4669309,18.6094116 44.4669309,19.6666199 L44.4669309,23.4997192 L13.5334938,23.4997192 L13.5334938,19.6666199 C13.5334938,18.6094116 12.66618,17.7495789 11.6003398,17.7495789 L9.66661945,17.7495789 C8.60063768,17.7495789 7.73332388,18.6094116 7.73332388,19.6666199 L7.73332388,23.4997192 L6.80738674,23.4997192 C6.27255503,23.4997192 5.84052655,23.9291443 5.84052655,24.4582397 C5.84052655,24.9869141 6.27255503,25.4161987 6.80738674,25.4161987 L8.70018407,25.4161987 C9.23345815,25.4161987 9.66661945,24.9869141 9.66661945,24.4582397 L9.66661945,19.6660583 L11.6003398,19.6660583 L11.6003398,24.4582397 C11.6003398,24.9869141 12.0329347,25.4161987 12.5666336,25.4161987 L45.4333663,25.4161987 C45.9670652,25.4161987 46.4002265,24.9869141 46.4002265,24.4582397 L46.4002265,19.6660583 L48.3333804,19.6660583 L48.3333804,24.4582397 C48.3333804,24.9869141 48.7665417,25.4161987 49.3002406,25.4161987 L55.1004105,25.4161987 C56.753192,25.4161987 57.9999999,24.1802856 57.9999999,22.5411987 L57.9999999,16.7916199 C58.0005663,14.1490906 55.832211,12 53.1666902,12 Z" id="Fill-3"></path>
                            <path d="M18.9585205,10 C19.4871948,10 19.9164795,9.55189992 19.9164795,9.00038086 C19.9164795,5.40225002 23.1771057,1.9999707 26.6251404,1.9999707 L32.3747192,1.9999707 C35.8864868,1.9999707 39.0833801,5.33589195 39.0833801,9.00038086 C39.0833801,9.55189992 39.5128052,10 40.0414795,10 C40.570575,10 41,9.55189992 41,9.00038086 C41,4.20575396 36.9695251,0 32.3752808,0 L26.6251404,0 C22.111615,0 18,4.28983681 18,9.00038086 C18,9.55189992 18.429425,10 18.9585205,10 Z" id="Fill-5"></path>
                            <path d="M26.9998755,50 L33.0001245,50 C33.5517941,50 33.999751,49.5520562 33.999751,48.9998169 L33.999751,44.0000732 L38.9997876,44.0000732 C39.5520431,44.0000732 40,43.551983 40,42.9997437 L40,36.9996704 C40,36.4481635 39.5520431,36.0000732 38.9997876,36.0000732 L33.999751,36.0000732 L33.999751,31.0001831 C33.999751,30.4480902 33.5517941,30 33.0001245,30 L26.9998755,30 C26.4477664,30 25.9996631,30.4480902 25.9996631,31.0001831 L25.9996631,36.0000732 L20.9996265,36.0000732 C20.4481034,36.0000732 20,36.4481635 20,36.9996704 L20,42.9997437 C20,43.551983 20.4481034,44.0000732 20.9996265,44.0000732 L25.9996631,44.0000732 L25.9996631,48.9998169 C25.9996631,49.5520562 26.4477664,50 26.9998755,50 Z M21.9999854,42.0001465 L21.9999854,38 L26.9998755,38 C27.552131,38 27.9996484,37.5519098 27.9996484,37.0002563 L27.9996484,31.9999268 L31.9999121,31.9999268 L31.9999121,36.9996704 C31.9999121,37.5519098 32.4480155,38 32.9995386,38 L38.0001611,38 L38.0001611,41.9995606 L33.0001245,41.9995606 C32.4480155,41.9995606 31.9999121,42.4476508 31.9999121,42.9997437 L31.9999121,47.9996338 L28.0000879,47.9996338 L28.0000879,42.9997437 C28.0000879,42.4482367 27.552131,42.0001465 26.9998755,42.0001465 L21.9999854,42.0001465 Z" id="Fill-6"></path>
                            <path d="M44.8334757,27 C44.373404,27 44,27.4479273 44,28.0001465 L44,29.000293 C44,30.102827 44.7476624,31 45.6665853,31 L47.3335368,31 C48.2523376,31 49,30.1034129 49,29.000293 L49,28.0001465 C49,27.4485133 48.6267181,27.0005859 48.1665243,27.0005859 C47.7069407,27.0005859 47.3335368,27.4485133 47.3335368,28.0001465 L47.3335368,29.000293 L45.6665853,29.000293 L45.6665853,28.0001465 C45.6665853,27.4479273 45.2931813,27 44.8334757,27 Z" id="Fill-7"></path>
                            <path d="M9.83347575,27 C9.37340397,27 9,27.4479273 9,28.0001465 L9,29.000293 C9,30.102827 9.74766241,31 10.6665853,31 L12.3335368,31 C13.2523376,31 14,30.1034129 14,29.000293 L14,28.0001465 C14,27.4485133 13.6267181,27.0005859 13.1665243,27.0005859 C12.7068187,27.0005859 12.3335368,27.4485133 12.3335368,28.0001465 L12.3335368,29.000293 L10.6665853,29.000293 L10.6665853,28.0001465 C10.6665853,27.4479273 10.2931813,27 9.83347575,27 Z" id="Fill-8"></path>
                        </g>
                    </g>
                </g>
            </g>
        </g>
    </g>
</svg>