<?xml version="1.0" encoding="UTF-8"?>
<svg width="153px" height="153px" viewBox="0 0 153 153" version="1.1" xmlns="http://www.w3.org/2000/svg" xmlns:xlink="http://www.w3.org/1999/xlink">
    <!-- Generator: Sketch 52.3 (67297) - http://www.bohemiancoding.com/sketch -->
    <title>Healthy Environment</title>
    <desc>Created with Sketch.</desc>
    <defs>
        <linearGradient x1="9.21158451%" y1="-22.5501053%" x2="81.8045833%" y2="88.4714304%" id="linearGradient-1">
            <stop stop-color="#2F7AE5" offset="0%"></stop>
            <stop stop-color="#7FB156" offset="67.121188%"></stop>
            <stop stop-color="#9DD835" offset="100%"></stop>
        </linearGradient>
        <polygon id="path-2" points="0.147374477 0 72.9844226 0 72.9844226 78.8460196 0.147374477 78.8460196"></polygon>
    </defs>
    <g id="strategy" stroke="none" stroke-width="1" fill="none" fill-rule="evenodd">
        <g id="Strategic-Plan" transform="translate(-891.000000, -1812.000000)">
            <g id="Group-75-Copy-4" transform="translate(810.000000, 1812.000000)">
                <g id="Healthy-Environment" transform="translate(81.000000, 0.000000)">
                    <circle id="Oval-Copy" fill="url(#linearGradient-1)" transform="translate(76.500000, 76.500000) scale(1, -1) translate(-76.500000, -76.500000) " cx="76.5" cy="76.5" r="76.5"></circle>
                    <g id="factory" transform="translate(40.000000, 37.000000)">
                        <g id="Group-4">
                            <mask id="mask-3" fill="white">
                                <use xlink:href="#path-2"></use>
                            </mask>
                            <g id="Clip-2"></g>
                            <path d="M15.7551715,51.1957104 L15.7551715,59.0960196 L11.8536423,59.0960196 C11.1347908,59.0960196 10.5526234,59.6853503 10.5526234,60.4119648 L10.5526234,64.3625832 L5.40490167,64.3625832 C2.50200628,64.3656751 0.150276151,66.7461879 0.147374477,69.684184 L0.147374477,78.8460196 L2.7483431,78.8460196 L2.7483431,69.684184 C2.74956485,68.1998806 3.93848745,66.9967926 5.40490167,66.9957104 L10.5526234,66.9957104 L10.5526234,69.628683 L6.65109414,69.628683 C5.93224268,69.628683 5.34992259,70.2186321 5.34992259,70.9457104 L5.34992259,78.8460196 L7.95089121,78.8460196 L7.95089121,72.262274 L10.5526234,72.262274 L10.5526234,73.579456 C10.5526234,74.3059159 11.1347908,74.8952466 11.8536423,74.8952466 L15.7551715,74.8952466 L15.7551715,77.5288376 C15.7551715,78.2565342 16.3374916,78.8460196 17.0557322,78.8460196 L71.6834038,78.8460196 C72.4022552,78.8460196 72.9844226,78.2565342 72.9844226,77.5288376 L72.9844226,27.4957104 C72.9844226,26.7684775 72.4022552,26.1791468 71.6834038,26.1791468 L63.8797343,26.1791468 C63.1608828,26.1791468 62.5787155,26.7684775 62.5787155,27.4957104 L62.5787155,49.878683 L59.9775941,49.878683 L59.9775941,27.4957104 C59.9775941,26.7684775 59.3954268,26.1791468 58.6771862,26.1791468 L50.8729059,26.1791468 C50.1546653,26.1791468 49.5724979,26.7684775 49.5724979,27.4957104 L49.5724979,49.878683 L44.3697971,49.878683 L44.3697971,39.3460196 C44.3697971,38.6183229 43.7870188,38.029456 43.0687782,38.029456 C42.7471506,38.029456 42.4375879,38.1497339 42.198887,38.3677182 L31.3635795,48.2402446 L31.3635795,39.3460196 C31.3629686,38.6183229 30.7808013,38.029456 30.0619498,38.029456 C29.7409331,38.029456 29.4313703,38.1497339 29.1926695,38.3677182 L16.1852301,50.217409 C15.9115565,50.4673953 15.7551715,50.8225088 15.7551715,51.1957104 Z M15.7551715,63.0461742 L15.7551715,72.262274 L13.1535921,72.262274 L13.1535921,61.7289922 L15.7551715,61.7289922 L15.7551715,63.0461742 Z M65.180295,35.395865 L70.383454,35.395865 L70.383454,28.8127378 L65.180295,28.8127378 L65.180295,35.395865 Z M65.180295,49.878683 L70.383454,49.878683 L70.383454,38.0288376 L65.180295,38.0288376 L65.180295,49.878683 Z M52.1734665,35.395865 L57.3760146,35.395865 L57.3760146,28.8127378 L52.1734665,28.8127378 L52.1734665,35.395865 Z M52.1734665,49.878683 L57.3760146,49.878683 L57.3760146,38.0288376 L52.1734665,38.0288376 L52.1734665,49.878683 Z M18.3561402,69.628683 L28.762,69.628683 L28.762,64.3625832 L18.3561402,64.3625832 L18.3561402,69.628683 Z M18.3561402,73.579456 L18.3561402,72.262274 L30.0625607,72.262274 C30.7808013,72.262274 31.3635795,71.6727886 31.3635795,70.9457104 L31.3635795,63.0461742 C31.3635795,62.3184775 30.7808013,61.7289922 30.0625607,61.7289922 L18.3561402,61.7289922 L18.3561402,51.7814853 L28.762,42.3014853 L28.762,51.1957104 C28.762,51.9227886 29.3443201,52.512274 30.0631715,52.512274 C30.3840356,52.512274 30.6942092,52.3915323 30.93291,52.1740117 L41.7682176,42.3014853 L41.7682176,51.1957104 C41.7682176,51.9227886 42.3509958,52.512274 43.0687782,52.512274 L70.383454,52.512274 L70.383454,76.2124286 L18.3561402,76.2124286 L18.3561402,73.579456 Z" id="Fill-1" fill="#FFFFFF" mask="url(#mask-3)"></path>
                            <path d="M35.2651088,-0.154598826 L30.0625607,-0.154598826 C29.3443201,-0.154598826 28.762,0.435350294 28.762,1.16258317 L28.762,5.11196477 L24.8598598,5.11196477 C24.1410084,5.11196477 23.5594519,5.70206849 23.5594519,6.42914677 L23.5594519,11.6957104 C23.5594519,12.4227886 24.1410084,13.012274 24.8598598,13.012274 L28.762,13.012274 L28.762,16.9624286 C28.762,17.6895068 29.3443201,18.2788376 30.0625607,18.2788376 L35.2651088,18.2788376 C35.9833494,18.2788376 36.5662803,17.6895068 36.5662803,16.9624286 L36.5662803,13.012274 L40.4676569,13.012274 C41.1860502,13.012274 41.7682176,12.4227886 41.7682176,11.6957104 L41.7682176,6.42914677 C41.7682176,5.70206849 41.1860502,5.11196477 40.4676569,5.11196477 L36.5662803,5.11196477 L36.5662803,1.16258317 C36.5662803,0.435350294 35.9833494,-0.154598826 35.2651088,-0.154598826 Z M39.167249,7.74571037 L39.167249,10.378683 L35.2651088,10.378683 C34.5468682,10.378683 33.9645481,10.9680137 33.9645481,11.6957104 L33.9645481,15.6452466 L31.3635795,15.6452466 L31.3635795,11.6957104 C31.3635795,10.9680137 30.7808013,10.378683 30.0625607,10.378683 L26.1610314,10.378683 L26.1610314,7.74571037 L30.0625607,7.74571037 C30.7808013,7.74571037 31.3635795,7.15622505 31.3635795,6.42914677 L31.3635795,2.47899217 L33.9645481,2.47899217 L33.9645481,6.42914677 C33.9645481,7.15622505 34.5468682,7.74571037 35.2651088,7.74571037 L39.167249,7.74571037 Z" id="Fill-3" fill="#FFFFFF" mask="url(#mask-3)"></path>
                        </g>
                        <polygon id="Fill-5" fill="#FFFFFF" points="51.7507522 10 51.7507522 14.1255852 48 14.1255852 48 16.8750605 51.7507522 16.8750605 51.7507522 21 54.250422 21 54.250422 16.8750605 58 16.8750605 58 14.1255852 54.250422 14.1255852 54.250422 10"></polygon>
                        <polygon id="Fill-6" fill="#FFFFFF" points="63 18 65 18 65 16 63 16"></polygon>
                        <polygon id="Fill-7" fill="#FFFFFF" points="60 21 62 21 62 19 60 19"></polygon>
                        <polygon id="Fill-8" fill="#FFFFFF" points="63 23 65 23 65 21 63 21"></polygon>
                        <polygon id="Fill-9" fill="#FFFFFF" points="65 21 67 21 67 19 65 19"></polygon>
                        <path d="M57.7217305,61.9999511 L55.0387147,61.9999511 C53.4681835,62.0034736 51.9567648,62.5888022 50.8079726,63.6373448 C49.4518366,59.6797718 45.6659383,57.0085128 41.3987384,57 L37.2782695,57 C36.5720706,57 36,57.5594967 36,58.2497676 L36,62.2808736 C36.0064514,67.6461414 40.4505385,71.9936888 45.934945,72 L52.7390298,72 C56.1933582,71.9931017 58.9929485,69.2549144 59,65.8751847 L59,63.2498655 C59,62.5595945 58.4279294,61.9999511 57.7217305,61.9999511 Z M41.3987384,59.5002691 C42.1688508,59.5008562 42.9343122,59.6194483 43.6663166,59.8522295 L43.6663166,62.7275022 L40.3620198,59.5002691 L41.3987384,59.5002691 Z M38.5551888,62.2814607 L38.5551888,61.26785 L41.8600857,64.5002202 L38.9209659,64.5002202 C38.6812154,63.7836769 38.5575893,63.0354309 38.5551888,62.2814607 Z M45.934945,69.4997309 C43.7945936,69.4991438 41.7609148,68.5863658 40.3632201,67.0000489 L44.4158747,67.0000489 L46.9710635,69.4997309 L45.934945,69.4997309 Z M48.7772943,67.7327371 L46.2221055,65.232468 L46.2221055,61.2690242 C47.8431974,62.6357694 48.7760941,64.6252703 48.7772943,66.7191264 L48.7772943,67.7327371 Z M56.4448112,65.8699009 C56.4418106,67.8720242 54.7850112,69.495181 52.7390298,69.4997309 L51.3336834,69.4997309 L51.3336834,68.1249132 C51.3389345,66.1257253 52.9946837,64.5059443 55.0387147,64.5002202 L56.4448112,64.5002202 L56.4448112,65.8699009 Z" id="Fill-10" fill="#FFFFFF"></path>
                    </g>
                </g>
            </g>
        </g>
    </g>
</svg>