<?xml version="1.0" encoding="UTF-8"?>
<svg width="153px" height="153px" viewBox="0 0 153 153" version="1.1" xmlns="http://www.w3.org/2000/svg" xmlns:xlink="http://www.w3.org/1999/xlink">
    <!-- Generator: Sketch 52.3 (67297) - http://www.bohemiancoding.com/sketch -->
    <title>Group 74</title>
    <desc>Created with Sketch.</desc>
    <defs>
        <linearGradient x1="9.21158451%" y1="-22.5501053%" x2="81.8045833%" y2="88.4714304%" id="linearGradient-1">
            <stop stop-color="#2F7AE5" offset="0%"></stop>
            <stop stop-color="#7FB156" offset="67.121188%"></stop>
            <stop stop-color="#9DD835" offset="100%"></stop>
        </linearGradient>
        <polygon id="path-2" points="0.0101298701 0 51.8649351 0 51.8649351 86 0.0101298701 86"></polygon>
    </defs>
    <g id="strategy" stroke="none" stroke-width="1" fill="none" fill-rule="evenodd">
        <g id="Strategic-Plan" transform="translate(-1102.000000, -2244.000000)">
            <g id="Group-75-Copy" transform="translate(1028.000000, 2244.000000)">
                <g id="Group-76">
                    <g id="Group-74" transform="translate(74.000000, 0.000000)">
                        <circle id="Oval-Copy" fill="url(#linearGradient-1)" transform="translate(76.500000, 76.500000) scale(1, -1) translate(-76.500000, -76.500000) " cx="76.5" cy="76.5" r="76.5"></circle>
                        <g id="smart-home" transform="translate(51.000000, 34.000000)">
                            <g id="Group-3">
                                <mask id="mask-3" fill="white">
                                    <use xlink:href="#path-2"></use>
                                </mask>
                                <g id="Clip-2"></g>
                                <path d="M5.70514286,2.86672266 L46.1597922,2.86672266 C47.7181039,2.86823437 48.9811299,4.12430469 48.9834935,5.67465625 L48.9834935,11.4667227 L2.88144156,11.4667227 L2.88144156,5.67465625 C2.88380519,4.12430469 4.14683117,2.86823437 5.70514286,2.86672266 Z M46.1597922,83.1332773 L5.70514286,83.1332773 C4.14666234,83.1309258 2.88380519,81.8745195 2.88144156,80.324 L2.88144156,74.5332773 L48.9834935,74.5332773 L48.9834935,80.324 C48.9811299,81.8745195 47.7182727,83.1309258 46.1597922,83.1332773 Z M2.88144156,71.6667227 L48.9834935,71.6667227 L48.9834935,14.3332773 L2.88144156,14.3332773 L2.88144156,71.6667227 Z M5.70514286,86 L46.1597922,86 C49.309,85.9961367 51.8610519,83.4571211 51.8649351,80.324 L51.8649351,5.67465625 C51.8610519,2.54170312 49.3088312,0.00319140625 46.1597922,0 L5.70514286,0 C2.5561039,0.00319140625 0.00405194805,2.54170312 0,5.67465625 L0,80.324 C0.00405194805,83.4571211 2.55593506,85.9961367 5.70514286,86 Z" id="Fill-1" fill="#FFFFFF" mask="url(#mask-3)"></path>
                            </g>
                            <path d="M31.5999016,77 L20.4000984,77 C19.6268779,77 19,77.671647 19,78.4999121 C19,79.328353 19.6268779,80 20.4000984,80 L31.5999016,80 C32.3731221,80 33,79.328353 33,78.4999121 C33,77.671647 32.3731221,77 31.5999016,77" id="Fill-4" fill="#FFFFFF"></path>
                            <path d="M24.594068,23.1234528 C25.0153,22.7436625 25.6563126,22.7374857 26.0849435,23.1092628 L32.5206288,29.2847365 L32.5206288,42.2710607 C32.5206288,42.5528567 32.2907589,42.7815656 32.0069107,42.7824003 L29.6507019,42.7824003 L29.6507019,37.0842103 C29.6507019,36.2974183 29.0083441,35.6595376 28.2158226,35.6595376 C27.423301,35.6595376 26.780775,36.2974183 26.780775,37.0842103 L26.780775,42.7824003 L18.1711626,42.7824003 L18.1711626,29.2847365 L24.594068,23.1234528 Z M36.825435,51.3297688 L36.825435,57.0279588 C35.2403919,57.0279588 33.9555082,55.7523642 33.9555082,54.1789473 C33.9555082,52.6053634 35.2403919,51.3297688 36.825435,51.3297688 Z M11.3996687,33.7991494 C11.6640107,34.070929 12.026388,34.2273525 12.406758,34.2340302 C12.7872961,34.2407078 13.1548862,34.0971387 13.4288131,33.8347078 L15.3014038,32.0384249 L15.3014038,61.301643 C15.3014038,64.4488108 17.8711714,67 21.0410894,67 C24.2110075,67 26.780775,64.4488108 26.780775,61.301643 L26.780775,58.4526315 C26.780775,56.8790476 28.0656588,55.603453 29.6507019,55.603453 L31.289387,55.603453 C31.941666,58.1117384 34.2161507,59.8674547 36.825435,59.8771373 L38.2603144,59.8771373 C39.052836,59.8771373 39.6951938,59.2392565 39.6951938,58.4526315 L42.5651206,58.4526315 C43.3576422,58.4526315 44,57.8147507 44,57.0279588 C44,56.2413338 43.3576422,55.603453 42.5651206,55.603453 L39.6951938,55.603453 L39.6951938,52.7542746 L42.5651206,52.7542746 C43.3576422,52.7542746 44,52.1165607 44,51.3297688 C44,50.5429768 43.3576422,49.905263 42.5651206,49.905263 L39.6951938,49.905263 C39.6951938,49.1184711 39.052836,48.4805903 38.2603144,48.4805903 L36.825435,48.4805903 C34.2161507,48.4902729 31.941666,50.2461561 31.289387,52.7542746 L29.6507019,52.7542746 C26.4807839,52.7542746 23.9110163,55.3054637 23.9110163,58.4526315 L23.9110163,61.301643 C23.9110163,62.8752269 22.6261326,64.1508215 21.0410894,64.1508215 C19.4560463,64.1508215 18.1711626,62.8752269 18.1711626,61.301643 L18.1711626,45.6315788 L32.0069107,45.6315788 C33.874793,45.6284069 35.3880333,44.125439 35.3903875,42.2710607 L35.3903875,32.0384249 L37.2559157,33.8347078 C37.8261343,34.3854455 38.738047,34.3730918 39.2927953,33.8069956 C39.8475435,33.2408994 39.8349318,32.3355795 39.2647131,31.7848418 L28.0722169,21.0478779 C26.5270269,19.6457422 24.1580382,19.6514182 22.6195744,21.0607324 L11.4413715,31.7848418 C11.166772,32.046438 11.0082004,32.4056946 11.000297,32.7833147 C10.9925618,33.1611017 11.1361675,33.5265351 11.3996687,33.7991494 Z" id="Fill-5" fill="#FFFFFF"></path>
                        </g>
                    </g>
                </g>
            </g>
        </g>
    </g>
</svg>