<?xml version="1.0" encoding="UTF-8"?>
<svg width="185px" height="99px" viewBox="0 0 185 99" version="1.1" xmlns="http://www.w3.org/2000/svg" xmlns:xlink="http://www.w3.org/1999/xlink">
    <!-- Generator: Sketch 52.2 (67145) - http://www.bohemiancoding.com/sketch -->
    <title>info-centre</title>
    <desc>Created with Sketch.</desc>
    <defs>
        <linearGradient x1="0%" y1="100%" x2="100%" y2="95.5797281%" id="linearGradient-1">
            <stop stop-color="#123ECF" offset="0%"></stop>
            <stop stop-color="#53C1FD" offset="47.5247532%"></stop>
            <stop stop-color="#A8E63C" offset="100%"></stop>
        </linearGradient>
        <linearGradient x1="11.272317%" y1="40.8852502%" x2="100%" y2="55.5141307%" id="linearGradient-2">
            <stop stop-color="#123ECF" offset="0%"></stop>
            <stop stop-color="#53C1FD" offset="47.5247532%"></stop>
            <stop stop-color="#A8E63C" offset="100%"></stop>
        </linearGradient>
    </defs>
    <g id="home2" stroke="none" stroke-width="1" fill="none" fill-rule="evenodd">
        <g id="kanpur-Smart-City-slider2" transform="translate(-1135.000000, -1239.000000)">
            <g id="features" transform="translate(375.000000, 1180.000000)">
                <g id="Group-64-Copy-2" transform="translate(761.000000, 60.000000)">
                    <g id="info-centre">
                        <path d="M0,97.3549589 C0,43.5872059 40.9658571,2.13162821e-14 91.5,2.13162821e-14 C142.034143,2.13162821e-14 183,43.5872059 183,97.3549589" id="Stroke-3" stroke="url(#linearGradient-1)" stroke-width="2"></path>
                        <g id="support-(2)" transform="translate(51.000000, 20.000000)" fill="url(#linearGradient-2)">
                            <path d="M69.4287329,29.1293312 C69.4287329,13.0030955 56.4838029,0 40.5,0 C24.5171011,0 11.5712671,13.0030955 11.5712671,29.0566894 L11.5712671,29.1293312 C5.13462408,29.4929938 0,34.8684813 0,41.4053284 L0,42.8588439 C0,49.6867119 5.49645924,55.2074829 12.2942595,55.2074829 L12.945834,55.2074829 L18.080458,63.4159977 C21.6965496,69.2277896 27.8436794,72.6417236 34.6423836,72.6417236 L35.6551153,72.6417236 C36.3057857,75.1113152 38.5473105,77 41.2229923,77 C44.4056049,77 47.0091909,74.385125 47.0091909,71.1893431 C47.0091909,67.9926533 44.4056049,65.3775512 41.2229923,65.3775512 C38.5473105,65.3775512 36.3057857,67.266236 35.6551153,69.7358276 L34.6423836,69.7358276 C28.856411,69.7358276 23.5769173,66.75729 20.5391743,61.8181068 L16.3447341,55.2074829 L17.3574657,55.2074829 C18.94832,55.2074829 20.250565,53.9003859 20.250565,52.301587 L20.250565,31.9625854 C20.250565,30.3646945 18.94832,29.0566894 17.3574657,29.0566894 L14.4643664,29.0566894 C14.4643664,14.6009864 26.1081814,2.90589595 40.5,2.90589595 C54.8920446,2.90589595 66.5356336,14.6009864 66.5356336,29.0566894 L63.6436643,29.0566894 C62.051906,29.0566894 60.750565,30.3646945 60.750565,31.9625854 L60.750565,52.301587 C60.750565,53.9003859 62.051906,55.2074829 63.6436643,55.2074829 L68.7057405,55.2074829 C75.5035408,55.2074829 81,49.6867119 81,42.8588439 L81,41.4053284 C81,34.8684813 75.8656019,29.4929938 69.4287329,29.1293312 Z M41.2229923,68.2834472 C42.8147506,68.2834472 44.1160916,69.5905442 44.1160916,71.1893431 C44.1160916,72.787234 42.8147506,74.0941041 41.2229923,74.0941041 C39.632138,74.0941041 38.3310231,72.787234 38.3310231,71.1893431 C38.3310231,69.5905442 39.632138,68.2834472 41.2229923,68.2834472 Z M17.3574657,31.9625854 L17.3574657,52.301587 L12.2942595,52.301587 C7.08731355,52.301587 2.89309929,48.088821 2.89309929,42.8588439 L2.89309929,41.4053284 C2.89309929,36.1753513 7.08731355,31.9625854 12.2942595,31.9625854 L17.3574657,31.9625854 Z M78.1080307,42.8588439 C78.1080307,48.088821 73.9126865,52.301587 68.7057405,52.301587 L63.6436643,52.301587 L63.6436643,31.9625854 L68.7057405,31.9625854 C73.9126865,31.9625854 78.1080307,36.1753513 78.1080307,41.4053284 L78.1080307,42.8588439 Z" id="Fill-1"></path>
                            <path d="M52.2590743,10.7835096 C52.1162343,10.7236044 51.9017513,10.6036069 51.6881609,10.4837966 C51.4736779,10.3637991 51.2591948,10.2445505 51.1161317,10.1846453 C50.4735752,9.82484002 49.5451157,10.0047427 49.1877927,10.6036069 C48.8311393,11.2026584 48.9742024,11.8614278 49.6881788,12.2212331 C49.8310187,12.2811382 50.0446091,12.4011357 50.2590921,12.5211332 C50.4735752,12.6401947 50.6880583,12.7601922 50.9016486,12.8200974 C51.1161317,12.9400949 51.4020347,13 51.6165178,13 C52.1162343,13 52.5452005,12.8200974 52.8302108,12.4011357 C53.1875338,11.8614278 52.9732739,11.142566 52.2590743,10.7835096 Z" id="Fill-2"></path>
                            <path d="M40.2960426,7 C34.1312051,7 28.3283386,9.76125842 24.3398594,14.5374892 C23.831695,15.1342848 23.9042251,16.1044567 24.4849198,16.6273234 C24.7745871,16.8505096 25.0649344,17 25.4280386,17 C25.8627663,17 26.2256437,16.8505096 26.5150844,16.4780662 C29.997439,12.3730264 35.0015671,9.98537746 40.2960426,9.98537746 C41.6020389,9.98537746 42.9071285,10.1346347 44.2128982,10.4326827 C45.01073,10.5819399 45.735805,10.0600061 45.9536222,9.31395322 C46.1714393,8.56696751 45.5907447,7.74605285 44.865443,7.52193381 C43.3427628,7.14949043 41.819856,7 40.2960426,7 Z" id="Fill-3"></path>
                        </g>
                    </g>
                </g>
            </g>
        </g>
    </g>
</svg>