<?xml version="1.0" encoding="UTF-8"?>
<svg width="175px" height="175px" viewBox="0 0 175 175" version="1.1" xmlns="http://www.w3.org/2000/svg" xmlns:xlink="http://www.w3.org/1999/xlink">
    <!-- Generator: Sketch 52.2 (67145) - http://www.bohemiancoding.com/sketch -->
    <title>population</title>
    <desc>Created with Sketch.</desc>
    <g id="population" stroke="none" stroke-width="1" fill="none" fill-rule="evenodd">
        <g id="Group" transform="translate(27.000000, 36.000000)">
            <path d="M116.096328,66.6517769 C114.632856,57.6332576 106.749816,51 97.5001675,51 C88.2505192,51 80.3696927,57.6332576 78.9034538,66.6517769 L74.0602713,96.4577099 C73.8377617,97.8410962 74.2373934,99.2523578 75.1589818,100.319823 C76.0778027,101.385101 77.4244842,102 78.8453356,102 L116.154999,102 C117.575297,102 118.922532,101.385101 119.843567,100.319823 C120.762388,99.2545441 121.162573,97.8410962 120.93951,96.4577099 L116.096328,66.6517769 Z" id="Fill-1" stroke="#FFFFFF" stroke-width="4.4000001"></path>
            <g id="Group-5" transform="translate(6.000000, 0.000000)" stroke="#FFFFFF" stroke-width="4.4000001">
                <path d="M101.883665,22.5469091 C101.883665,33.1150909 93.2235892,41.6847273 82.5389514,41.6847273 C71.8565189,41.6847273 63.1964432,33.1150909 63.1964432,22.5469091 C63.1964432,11.9787273 71.8565189,3.41127273 82.5389514,3.41127273 C93.2235892,3.41127273 101.883665,11.9787273 101.883665,22.5469091 Z" id="Fill-2"></path>
                <path d="M21.4315784,66.3878182 C22.6594378,69.6883636 25.8164757,71.7316364 29.1742054,71.7316364 C30.1241838,71.7316364 31.0868432,71.5674545 32.028,71.2243636 C36.3053838,69.6665455 38.4953514,64.9707273 36.9190378,60.7412727 L16.4716216,5.84836364 C14.8975135,1.61509091 10.148173,-0.541090909 5.8752,1.00963636 C1.59781622,2.56963636 -0.592151351,7.26327273 0.986367568,11.4927273 L21.4315784,66.3878182 Z" id="Fill-4"></path>
            </g>
            <path d="M37.7886649,90.729615 L17.121839,90.729615 C14.5329527,90.729615 12.4232235,88.645841 12.4232235,86.0882585 L12.4232235,41.1354657 C12.4232235,37.7455758 9.64400236,35 6.21188838,35 C2.77922111,35 0,37.7455758 0,41.1354657 L0,86.0882585 C0,95.4130515 7.68145065,103 17.121839,103 L37.7886649,103 C41.2207789,103 44,100.254424 44,96.8645343 C44,93.4746444 41.2207789,90.729615 37.7886649,90.729615 Z" id="Fill-6" stroke="#FFFFFF" stroke-width="4.4000001"></path>
            <path d="M57.5003067,93 C53.1388235,93 49.4613458,95.4700681 48.099839,98.9051261 C47.9095966,99.3869041 47.9941487,99.9193452 48.3285634,100.337555 C48.6629781,100.753854 49.2071473,101 49.7854625,101 L65.2135248,101 C65.791298,101 66.3332992,100.753854 66.6698819,100.337555 C67.0042966,99.9193452 67.0910168,99.3869041 66.9007744,98.9051261 C65.5370995,95.4700681 61.8617898,93 57.5003067,93 Z" id="Fill-7" fill="#FFFFFF"></path>
        </g>
    </g>
</svg>