<?xml version="1.0" encoding="UTF-8"?>
<svg width="193px" height="107px" viewBox="0 0 193 107" version="1.1" xmlns="http://www.w3.org/2000/svg" xmlns:xlink="http://www.w3.org/1999/xlink">
    <!-- Generator: Sketch 52.2 (67145) - http://www.bohemiancoding.com/sketch -->
    <title>it-hub</title>
    <desc>Created with Sketch.</desc>
    <defs>
        <linearGradient x1="0%" y1="100%" x2="100%" y2="95.5797281%" id="linearGradient-1">
            <stop stop-color="#123ECF" offset="0%"></stop>
            <stop stop-color="#53C1FD" offset="47.5247532%"></stop>
            <stop stop-color="#A8E63C" offset="100%"></stop>
        </linearGradient>
        <path d="M0,97.3549589 C0,43.5872059 40.9658571,0 91.5,0 C142.034143,0 183,43.5872059 183,97.3549589" id="path-2"></path>
        <filter x="-4.4%" y="-6.2%" width="108.7%" height="116.4%" filterUnits="objectBoundingBox" id="filter-3">
            <feMorphology radius="1" operator="dilate" in="SourceAlpha" result="shadowSpreadOuter1"></feMorphology>
            <feOffset dx="0" dy="2" in="shadowSpreadOuter1" result="shadowOffsetOuter1"></feOffset>
            <feMorphology radius="1" operator="erode" in="SourceAlpha" result="shadowInner"></feMorphology>
            <feOffset dx="0" dy="2" in="shadowInner" result="shadowInner"></feOffset>
            <feComposite in="shadowOffsetOuter1" in2="shadowInner" operator="out" result="shadowOffsetOuter1"></feComposite>
            <feGaussianBlur stdDeviation="2" in="shadowOffsetOuter1" result="shadowBlurOuter1"></feGaussianBlur>
            <feColorMatrix values="0 0 0 0 0   0 0 0 0 0   0 0 0 0 0  0 0 0 0.117442255 0" type="matrix" in="shadowBlurOuter1"></feColorMatrix>
        </filter>
        <polygon id="path-4" points="0 0 49.8592648 0 49.8592648 66.991625 0 66.991625"></polygon>
        <linearGradient x1="26.5304703%" y1="34.6150233%" x2="107.690875%" y2="32.7832598%" id="linearGradient-6">
            <stop stop-color="#123ECF" offset="0%"></stop>
            <stop stop-color="#53C1FD" offset="47.5247532%"></stop>
            <stop stop-color="#A8E63C" offset="100%"></stop>
        </linearGradient>
        <linearGradient x1="26.5304703%" y1="34.6150233%" x2="157.465865%" y2="34.6150233%" id="linearGradient-7">
            <stop stop-color="#123ECF" offset="0%"></stop>
            <stop stop-color="#53C1FD" offset="47.5247532%"></stop>
            <stop stop-color="#A8E63C" offset="100%"></stop>
        </linearGradient>
        <linearGradient x1="26.5304703%" y1="34.6150233%" x2="97.0599578%" y2="27.3208803%" id="linearGradient-8">
            <stop stop-color="#123ECF" offset="0%"></stop>
            <stop stop-color="#53C1FD" offset="47.5247532%"></stop>
            <stop stop-color="#A8E63C" offset="100%"></stop>
        </linearGradient>
        <polygon id="path-9" points="0.01 0.0845882353 8 0.0845882353 8 1.96694118 0.01 1.96694118"></polygon>
    </defs>
    <g id="home" stroke="none" stroke-width="1" fill="none" fill-rule="evenodd">
        <g id="kanpur-Smart-City-home1" transform="translate(-677.000000, -1237.000000)">
            <g id="it-hub" transform="translate(682.000000, 1240.000000)">
                <g id="Stroke-3">
                    <use fill="black" fill-opacity="1" filter="url(#filter-3)" xlink:href="#path-2"></use>
                    <use stroke="url(#linearGradient-1)" stroke-width="2" xlink:href="#path-2"></use>
                </g>
                <g id="innovation" transform="translate(57.000000, 30.000000)">
                    <g id="Group-3" transform="translate(9.000000, 0.000000)">
                        <mask id="mask-5" fill="white">
                            <use xlink:href="#path-4"></use>
                        </mask>
                        <g id="Clip-2"></g>
                        <path d="M46.4589235,31.2274438 C45.8331445,31.2274438 45.325779,30.7274563 45.325779,30.1107771 C45.325779,29.4940979 45.8331445,28.9941104 46.4589235,28.9941104 C47.0847025,28.9941104 47.592068,29.4940979 47.592068,30.1107771 C47.5915014,30.7271771 47.0844193,31.2268854 46.4589235,31.2274438 Z M26.0623229,32.3441104 L33.9943343,32.3441104 L33.9943343,21.1774438 L26.0623229,21.1774438 L26.0623229,32.3441104 Z M31.7280453,8.89411042 C32.3538244,8.89411042 32.8611898,9.39409792 32.8611898,10.0107771 C32.8611898,10.6274562 32.3538244,11.1274437 31.7280453,11.1274437 C31.1022663,11.1274437 30.5949008,10.6274562 30.5949008,10.0107771 C30.5954674,9.3942375 31.1025496,8.89466875 31.7280453,8.89411042 Z M33.9943343,42.3941104 C34.6201133,42.3941104 35.1274788,42.8940979 35.1274788,43.5107771 C35.1274788,44.1274563 34.6201133,44.6274437 33.9943343,44.6274437 C33.3685552,44.6274437 32.8611898,44.1274563 32.8611898,43.5107771 C32.8617564,42.8943771 33.3688385,42.3946688 33.9943343,42.3941104 Z M34.2709632,58.0666667 C34.8419263,58.0148813 35.3473088,58.4288854 35.4,58.9914062 C35.4033994,59.0290937 35.4048159,59.0670604 35.4041076,59.1048875 C35.4035411,59.7212875 34.8966006,60.2208562 34.2709632,60.2215542 L15.5873938,60.2215542 C14.9501416,60.2109458 14.4422096,59.6932312 14.4528329,59.0652458 C14.4531161,59.0522646 14.4535411,59.0392833 14.4542493,59.0263021 C14.4784703,58.4696438 14.9560907,58.0377729 15.5209632,58.0617813 C15.5430595,58.0627583 15.5652975,58.0642938 15.5873938,58.0666667 L34.2709632,58.0666667 Z M34.5609065,64.7666667 L15.2974504,64.7666667 C14.6601983,64.7561979 14.1522663,64.2384833 14.1630312,63.6103583 C14.1631728,63.5973771 14.1635977,63.5845354 14.1643059,63.5715542 C14.1648725,62.9550146 14.6719547,62.4554458 15.2974504,62.4548875 L34.5609065,62.4548875 C35.1981586,62.4653563 35.7060907,62.9830708 35.6953258,63.6111958 C35.6951841,63.6241771 35.6947592,63.6370188 35.694051,63.65 C35.6934844,64.2665396 35.1864023,64.7661083 34.5609065,64.7666667 Z M23.796034,19.0333042 L23.796034,34.48825 C19.4652975,33.8772938 16.4570822,29.9222 17.0770538,25.6544396 C17.575779,22.2216667 20.3126062,19.5246375 23.796034,19.0333042 Z M14.7308782,26.7607771 C14.738102,31.8756687 18.6383853,36.1713458 23.796034,36.7448937 L23.796034,40.5849708 L23.6084986,39.7060146 C23.513881,39.2608833 23.1546742,38.9166708 22.7005666,38.8358521 C22.0287535,38.7153917 21.3684136,38.5399354 20.7263456,38.3112979 C20.6032578,38.2681667 20.4736544,38.2461125 20.3429178,38.2458333 C20.0208215,38.2458333 19.713881,38.3810896 19.4991501,38.6176833 L18.4335694,39.7889271 C17.8430595,39.498175 17.2732295,39.1683396 16.727762,38.8020729 L17.2195467,37.3265375 C17.3635977,36.8942479 17.2273371,36.4189667 16.8749292,36.1248646 C16.3524079,35.6889458 15.8672805,35.2111521 15.4246459,34.6963687 C15.1254958,34.3513187 14.6449008,34.2178771 14.2069405,34.3582979 L12.7101983,34.8434896 C12.3383853,34.3058146 12.0035411,33.7439917 11.7082153,33.1619292 L12.8978754,32.1118437 C13.2407932,31.80825 13.3634561,31.3303167 13.2082153,30.9024937 C12.9764873,30.2696229 12.7984419,29.6188854 12.6759207,28.9571208 C12.5932011,28.5057083 12.2388102,28.1501896 11.7824363,28.0607167 L10.1983003,27.7487479 L10.1983003,25.7728062 L11.7824363,25.4609771 C12.2388102,25.3713646 12.5933428,25.0158458 12.6760623,24.5645729 C12.7985836,23.90225 12.9766289,23.2512333 13.2082153,22.6179437 C13.363881,22.1899812 13.2409348,21.7119083 12.8973088,21.4085937 L11.7087819,20.359625 C12.0043909,19.7778417 12.3389518,19.2160187 12.7101983,18.6780646 L14.2075071,19.1632562 C14.6454674,19.3035375 15.1259207,19.1700958 15.4252125,18.8251854 C15.8688385,18.3101229 16.3542493,17.8312125 16.8764873,17.3934792 C17.2274788,17.0997958 17.3631728,16.62605 17.2195467,16.1950167 L16.7283286,14.7194812 C17.2736544,14.3533542 17.8433428,14.0236583 18.4335694,13.7326271 L19.4991501,14.9038708 C19.8075071,15.2415229 20.292068,15.3625417 20.7263456,15.2102563 C21.3684136,14.9814792 22.0287535,14.8060229 22.7005666,14.6857021 C23.1545326,14.6053021 23.5137394,14.2615083 23.6084986,13.8166563 L23.796034,12.9377 L23.796034,16.7766604 C18.6383853,17.3502083 14.738102,21.6458854 14.7308782,26.7607771 Z M10.8101983,46.2054333 C9.86954674,44.8837188 8.9815864,43.6361229 8.33144476,42.5020083 C4.64716714,36.0757313 2.26628895,28.3048479 2.26628895,22.7051833 C2.26628895,11.5690854 11.634136,2.77310208 23.796034,2.25734167 L23.796034,10.058375 C23.4951841,10.0805688 23.1882436,10.1075083 22.859915,10.14715 C22.3787535,10.2047979 21.9882436,10.5576646 21.8882436,11.0249896 L21.5430595,12.6433188 C21.2586402,12.7097604 20.9749292,12.7849958 20.692068,12.869025 L19.5627479,11.6279896 C19.2393768,11.2713542 18.7211048,11.1577333 18.2746459,11.3456125 C17.0065156,11.8845438 15.8094901,12.5732479 14.7097734,13.3967896 C14.3228045,13.6844708 14.1641643,14.1827833 14.3152975,14.6367083 L14.8354108,16.1982271 C14.6212465,16.3967146 14.4127479,16.6028792 14.2107649,16.8133708 L12.627762,16.3008208 C12.1672805,16.1538396 11.6627479,16.309475 11.3695467,16.6890021 C10.5328612,17.7728667 9.83328612,18.9530438 9.28640227,20.2037104 C9.09617564,20.6435375 9.21133144,21.1541333 9.57308782,21.4729417 L10.8328612,22.5852813 C10.7481586,22.8612375 10.6723796,23.1378917 10.6055241,23.4152438 L8.84320113,23.7619688 C8.31345609,23.8660979 7.93201133,24.32435 7.93201133,24.8567208 L7.93201133,28.6648333 C7.93201133,29.1972042 8.31345609,29.6554563 8.84334278,29.7595854 L10.6055241,30.10645 C10.6725212,30.3833833 10.7483003,30.6600375 10.8328612,30.9362729 L9.57252125,32.0486125 C9.21133144,32.3677 9.09617564,32.8778771 9.28597734,33.3179833 C9.83286119,34.5685104 10.5324363,35.7486875 11.3691218,36.8325521 C11.6620397,37.2124979 12.1667139,37.3682729 12.6271955,37.2208729 L14.2101983,36.7083229 C14.4127479,36.918675 14.6208215,37.1248396 14.8349858,37.3233271 L14.3148725,38.8827521 C14.1637394,39.3365375 14.3220963,39.8347104 14.7087819,40.1226708 C15.8083569,40.9471896 17.0058074,41.6368708 18.2747875,42.1759417 C18.7212465,42.3627042 19.2388102,42.2492229 19.5628895,41.8935646 L20.692068,40.6525292 C20.9747875,40.7365583 21.2584986,40.8117938 21.5430595,40.878375 L21.8878187,42.4954479 C21.9872521,42.9631917 22.3779037,43.3166167 22.8593484,43.3744042 C23.188102,43.4140458 23.4951841,43.4409854 23.796034,43.4631792 L23.796034,55.8333333 L15.766289,55.8333333 C15.3032578,52.5425167 12.9378187,49.19475 10.8101983,46.2054333 Z M40.7932011,14.4774437 C41.4189802,14.4774437 41.9263456,14.9774312 41.9263456,15.5941104 C41.9263456,16.2107896 41.4189802,16.7107771 40.7932011,16.7107771 C40.1674221,16.7107771 39.6600567,16.2107896 39.6600567,15.5941104 C39.6606232,14.9777104 40.1677054,14.4780021 40.7932011,14.4774437 Z M46.4589235,26.7607771 C45.0230878,26.7651042 43.7453258,27.6595542 43.268272,28.9941104 L36.2606232,28.9941104 L36.2606232,24.5274437 L40.7932011,24.5274437 C41.4188385,24.5275833 41.926204,24.027875 41.9263456,23.4113354 C41.9263456,23.4111958 41.9263456,23.4109167 41.9263456,23.4107771 L41.9263456,18.7383646 C43.6964589,18.1216854 44.624221,16.2075792 43.9984419,14.4632063 C43.3726629,12.7188333 41.4304533,11.8045625 39.6601983,12.4212417 C37.890085,13.0379208 36.9623229,14.9518875 37.588102,16.6964 C37.9303116,17.6504521 38.6919263,18.4009917 39.6600567,18.738225 L39.6600567,22.2941104 L36.2606232,22.2941104 L36.2606232,20.0607771 C36.2607649,19.4442375 35.7536827,18.94425 35.1280453,18.9441104 C35.1279037,18.9441104 35.1276204,18.9441104 35.1274788,18.9441104 L32.8611898,18.9441104 L32.8611898,13.1550313 C34.6313031,12.5383521 35.5590652,10.6242458 34.9332861,8.87987292 C34.3075071,7.1355 32.3652975,6.22122917 30.5950425,6.83790833 C28.8249292,7.4545875 27.8971671,9.36855417 28.5229462,11.1130667 C28.8651558,12.0671187 29.6267705,12.8176583 30.5949008,13.1548917 L30.5949008,18.9441104 L26.0623229,18.9441104 L26.0623229,1.11666667 C26.0624646,0.500127083 25.5553824,0.000139583333 24.929745,0 C24.9296034,0 24.9293201,0 24.9291785,0 C10.9502833,0 0,9.97364792 0,22.7051833 C0,28.75305 2.43611898,36.7606667 6.35849858,43.6012271 C7.06274788,44.8291417 7.98186969,46.1202875 8.95453258,47.4877854 C11.0111898,50.3770208 13.3001416,53.6261021 13.5491501,56.4543396 C12.6779037,57.0612479 12.168272,58.0536854 12.1879603,59.1048875 C12.1912181,59.8598937 12.4558074,60.5911708 12.9379603,61.1779792 C12.2671388,61.8301125 11.8922096,62.7214917 11.898017,63.65 C11.9,65.4993396 13.4208215,66.9980458 15.2974504,67 L34.5609065,67 C36.4502833,66.9885542 37.9725212,65.4697479 37.9607649,63.6078458 C37.9606232,63.5958417 37.9604816,63.5836979 37.9603399,63.5715542 C37.9596317,62.6632854 37.5830028,61.7945188 36.9174221,61.1662542 C37.4058074,60.5568333 37.6711048,59.8028042 37.6703966,59.0263021 C37.6669972,57.2576417 36.2093484,55.8266333 34.4145892,55.8299833 C34.3667139,55.8301229 34.3188385,55.8312396 34.2709632,55.8333333 L26.0623229,55.8333333 L26.0623229,34.5774437 L28.3286119,34.5774437 L28.3286119,37.9274438 C28.3284703,38.5439833 28.8355524,39.0439708 29.4611898,39.0441104 C29.4613314,39.0441104 29.4616147,39.0441104 29.4617564,39.0441104 L32.8611898,39.0441104 L32.8611898,40.3665229 C31.0910765,40.9832021 30.1634561,42.8973083 30.7893768,44.6416812 C31.4151558,46.3859146 33.3573654,47.3000458 35.1274788,46.6833667 C36.8975921,46.0666875 37.8252125,44.1525813 37.1992918,42.4083479 C36.8570822,41.4542958 36.0956091,40.7038958 35.1274788,40.3665229 L35.1274788,37.9274438 C35.1276204,37.3109042 34.6205382,36.8109167 33.9949008,36.8107771 C33.9947592,36.8107771 33.9944759,36.8107771 33.9943343,36.8107771 L30.5949008,36.8107771 L30.5949008,34.5774437 L35.1274788,34.5774437 C35.7531161,34.5775833 36.2604816,34.077875 36.2606232,33.4613354 C36.2606232,33.4611958 36.2606232,33.4609167 36.2606232,33.4607771 L36.2606232,31.2274437 L43.2684136,31.2274437 C43.8974504,32.9672104 45.8386686,33.8749208 47.6041076,33.2548917 C49.3694051,32.6350021 50.2905099,30.7220125 49.6614731,28.9822458 C49.1790368,27.6482479 47.896034,26.7582646 46.4589235,26.7607771 Z" id="Fill-1" fill="url(#linearGradient-6)" mask="url(#mask-5)"></path>
                    </g>
                    <path d="M45,52.452475 L47.077514,53 C47.3437151,52.5603997 47.6518156,52.1325122 48,51.7189403 L46.0435754,51 C45.649581,51.4687892 45.3009777,51.9539391 45,52.452475" id="Fill-4" fill="url(#linearGradient-7)"></path>
                    <path d="M50,47.629557 L47.6562862,46 C47.0952084,46.8050628 46.5353797,47.6238524 46,48.4511989 L48.3967163,50 C48.9153208,49.2004635 49.4569466,48.4094839 50,47.629557" id="Fill-5" fill="url(#linearGradient-7)"></path>
                    <path d="M54,45.5218693 L51.5822135,44 C51.1000491,44.7650449 50.5630609,45.5567172 50,46.3692981 L52.3467119,48 C52.9362025,47.1511415 53.4969418,46.3231917 54,45.5218693" id="Fill-6" fill="url(#linearGradient-7)"></path>
                    <path d="M55,40.2659135 L52.3298812,39 C51.9058209,39.8812345 51.4625272,40.7523652 51,41.6135758 L53.6092746,43 C54.0934394,42.1000276 54.5568912,41.1886654 55,40.2659135" id="Fill-7" fill="url(#linearGradient-7)"></path>
                    <path d="M57,36.5337319 L54.8512195,36 C54.584505,36.4692096 54.3002869,36.9391783 54,37.4054464 L56.112769,38 C56.425538,37.5129519 56.7212339,37.0241958 57,36.5337319" id="Fill-8" fill="url(#linearGradient-7)"></path>
                    <path d="M59.8779857,25 C59.9590277,24.3746694 60,23.7648545 60,23.1872465 L59.998556,23 L57.1106432,23.0146929 L57.1120871,23.1872465 C57.1120871,23.7116074 57.0747247,24.2689979 57,24.8420217 L59.8779857,25" id="Fill-9" fill="url(#linearGradient-7)"></path>
                    <path d="M56,18.3872374 C56.1890158,18.9191173 56.3327584,19.4574847 56.4307427,20 L59,19.7988833 C58.890374,19.1938314 58.729654,18.5933528 58.51881,18 L56,18.3872374" id="Fill-10" fill="url(#linearGradient-7)"></path>
                    <path d="M56,14.6602839 C56.3206901,15.0961656 56.6048767,15.5433665 56.8511336,16 L59,15.4944112 C58.7259375,14.9850493 58.4090974,14.4860633 58.0509055,14 L56,14.6602839" id="Fill-11" fill="url(#linearGradient-7)"></path>
                    <path d="M52,9.76698771 C52.5700298,10.4828015 53.1016067,11.2280857 53.5924162,12 L56,10.4826239 C55.4547154,9.62442857 54.8642129,8.7957037 54.2308069,8 L52,9.76698771" id="Fill-12" fill="url(#linearGradient-7)"></path>
                    <path d="M50,7.16385098 C50.697444,7.74132257 51.3648998,8.35424986 51.9997369,9 L54,7.03080434 C53.2976457,6.31660011 52.5593406,5.63872921 51.7880661,5 L50,7.16385098" id="Fill-13" fill="url(#linearGradient-8)"></path>
                    <path d="M50,3.59717762 C49.1583116,3.02890226 48.2737827,2.49192636 47.3696337,2 L46,4.54701705 C46.8226082,4.99371297 47.6277563,5.48274458 48.3927639,6 L50,3.59717762" id="Fill-14" fill="url(#linearGradient-8)"></path>
                    <path d="M45,1.57325643 C44.2582069,1.36049048 43.4831542,1.16817719 42.6974467,1 L42,2.47821451 C42.7176041,2.63117336 43.4235458,2.80691126 44.0989633,3 L45,1.57325643" id="Fill-15" fill="url(#linearGradient-8)"></path>
                    <path d="M40,0.315817839 C39.1246744,0.185286985 38.2249455,0.0792239289 37.3264926,0 L37,1.71112908 C37.8230103,1.78270008 38.6466585,1.87960119 39.447977,2 L40,0.315817839" id="Fill-16" fill="url(#linearGradient-8)"></path>
                    <polygon id="Fill-17" fill="url(#linearGradient-8)" points="2 62 5 62 5 60 2 60"></polygon>
                    <polygon id="Fill-18" fill="url(#linearGradient-8)" points="2 67 5 67 5 65 2 65"></polygon>
                    <g id="Group-22" transform="translate(0.000000, 62.000000)">
                        <mask id="mask-10" fill="white">
                            <use xlink:href="#path-9"></use>
                        </mask>
                        <g id="Clip-20"></g>
                        <polygon id="Fill-19" fill="url(#linearGradient-8)" mask="url(#mask-10)" points="5.33333333 1.96694118 8 1.96694118 8 0.0845882353 5.33333333 0.0845882353"></polygon>
                        <polygon id="Fill-21" fill="url(#linearGradient-8)" mask="url(#mask-10)" points="0.01 1.96694118 2.66666667 1.96694118 2.66666667 0.0845882353 0.01 0.0845882353"></polygon>
                    </g>
                    <polygon id="Fill-23" fill="url(#linearGradient-8)" points="65 2 68 2 68 0 65 0"></polygon>
                    <polygon id="Fill-24" fill="url(#linearGradient-8)" points="65 7 68 7 68 5 65 5"></polygon>
                    <polygon id="Fill-25" fill="url(#linearGradient-8)" points="67 5 70 5 70 3 67 3"></polygon>
                    <polygon id="Fill-26" fill="url(#linearGradient-8)" points="64 5 67 5 67 3 64 3"></polygon>
                </g>
            </g>
        </g>
    </g>
</svg>