<?xml version="1.0" encoding="UTF-8"?>
<svg width="128px" height="128px" viewBox="0 0 128 128" version="1.1" xmlns="http://www.w3.org/2000/svg" xmlns:xlink="http://www.w3.org/1999/xlink">
    <!-- Generator: Sketch 52.2 (67145) - http://www.bohemiancoding.com/sketch -->
    <title>literacy rate</title>
    <desc>Created with Sketch.</desc>
    <g id="literacy-rate" stroke="none" stroke-width="1" fill="none" fill-rule="evenodd">
        <g id="Group" transform="translate(5.000000, 11.000000)" fill="#5AC4ED">
            <g id="Group-19">
                <path d="M59.3380208,78.5185185 C58.0658333,78.5185185 57.0333333,79.5508663 57.0333333,80.8228663 C57.0333333,82.0948663 58.0658333,83.1272142 59.3380208,83.1272142 C60.6102083,83.1272142 61.6427083,82.0948663 61.6427083,80.8228663 C61.6427083,79.5508663 60.6102083,78.5185185 59.3380208,78.5185185" id="Fill-1"></path>
                <path d="M113.390625,34.5652174 C113.390625,35.8358348 112.356742,36.8695652 111.085938,36.8695652 L108.78125,36.8695652 L108.78125,23.0434783 L111.085938,23.0434783 C112.356742,23.0434783 113.390625,24.0772087 113.390625,25.3478261 L113.390625,34.5652174 Z M93.5703125,43.4438696 C93.5703125,46.2203783 92.8127617,49.1798522 91.2538711,52.4925826 C89.75375,55.6847957 88.9609375,59.2360261 88.9609375,62.7612174 L88.9609375,69.1304348 L56.6953125,69.1304348 L56.6953125,63.335 C56.6953125,59.0267913 55.0175,54.9766696 51.9709336,51.9305522 L43.936793,43.8980565 C42.4749297,42.4361783 41.4325195,40.6058348 40.9215703,38.6031261 C40.6832656,37.6714783 40.5625,36.7121783 40.5625,35.752187 L40.5625,34.5652174 C40.5625,32.0891957 41.381125,29.6341435 42.8671875,27.6521739 C44.6542422,25.2697087 47.2546211,23.6891565 50.1901016,23.2013261 C50.8178984,23.0964783 51.4558359,23.0434783 52.0859375,23.0434783 L70.2330469,23.0434783 C69.8276523,24.6226478 69.0062617,26.0716217 67.8221133,27.2555957 C66.0802305,28.9972217 63.7656328,29.9565217 61.3046875,29.9565217 L54.390625,29.9565217 C53.1949531,29.9565217 52.1977148,30.870887 52.0946953,32.0617739 C51.9914453,33.2528913 52.816293,34.3251043 53.9939883,34.5308826 C57.8011016,35.1961478 61.1143203,37.312 63.3233633,40.4892348 C63.3284336,40.4963783 63.3344258,40.5026 63.3394961,40.5097435 C64.9931094,42.9002739 65.8755742,45.7009783 65.8910156,48.6106783 L65.9140625,53.0119826 C65.9207461,54.2807565 66.9511719,55.3043478 68.2185195,55.3043478 C68.222668,55.3043478 68.2265859,55.3043478 68.2307344,55.3043478 C69.5036133,55.2976652 70.5301211,54.2607087 70.5234375,52.9880174 L70.5003906,48.5864826 C70.4872539,46.1226739 70.0014258,43.7187783 69.0802422,41.4780304 L93.5703125,41.4780304 L93.5703125,43.4438696 Z M52.0859375,101.391304 L93.5703125,101.391304 L93.5703125,73.7391304 L52.0859375,73.7391304 L52.0859375,101.391304 Z M20.1717773,23.6006696 C22.9438555,27.3664348 22.9438555,32.5466087 20.1717773,36.3123739 L7.45819922,29.9565217 L20.1717773,23.6006696 Z M39.179457,24.887187 C37.0990156,27.6616217 35.953125,31.098787 35.953125,34.5652174 L35.953125,35.7519565 C35.953125,36.1248 35.9674141,36.4976435 35.993457,36.8695652 L25.2160469,36.8695652 C27.4004297,32.5357783 27.4004297,27.3772652 25.2160469,23.0434783 L40.7955039,23.0434783 C40.2163359,23.6126522 39.6747344,24.2269913 39.179457,24.887187 Z M52.0859375,8.06521739 C52.0859375,6.1592913 53.6367617,4.60869565 55.5429688,4.60869565 C57.4491758,4.60869565 59,6.1592913 59,8.06521739 L59,18.4347826 L52.0859375,18.4347826 L52.0859375,8.06521739 Z M67.0664063,4.60869565 C67.9905859,4.60869565 68.8587617,4.96817391 69.5114492,5.62099565 C70.1639063,6.27312609 70.5234375,7.14117391 70.5234375,8.06521739 L70.5234375,18.4347826 L63.609375,18.4347826 L63.609375,8.06521739 C63.609375,6.1592913 65.1601992,4.60869565 67.0664063,4.60869565 Z M78.5898438,4.60869565 C80.4960508,4.60869565 82.046875,6.1592913 82.046875,8.06521739 L82.046875,24.1956522 C82.046875,26.1015783 80.4960508,27.6521739 78.5898438,27.6521739 C76.6836367,27.6521739 75.1328125,26.1015783 75.1328125,24.1956522 L75.1328125,8.06521739 C75.1328125,6.1592913 76.6836367,4.60869565 78.5898438,4.60869565 Z M90.1132813,9.2173913 C91.0374609,9.2173913 91.9056367,9.57686957 92.5583242,10.2296913 C93.2107813,10.8818217 93.5703125,11.7498696 93.5703125,12.673913 L93.5703125,24.1956522 C93.5703125,26.1015783 92.0194883,27.6521739 90.1132813,27.6521739 C88.2070742,27.6521739 86.65625,26.1015783 86.65625,24.1956522 L86.65625,12.673913 C86.65625,10.767987 88.2070742,9.2173913 90.1132813,9.2173913 Z M104.171875,23.0434783 L104.171875,36.8695652 L66.3724648,36.8695652 C65.6321992,35.9369957 64.8151875,35.0839261 63.9311094,34.3175 C66.6232148,33.8024783 69.0996016,32.4961435 71.0809414,30.5144043 C71.504082,30.0913261 71.8931133,29.6435913 72.2535664,29.178113 C73.7322539,31.0533913 76.0219609,32.2608696 78.5898438,32.2608696 C80.8452109,32.2608696 82.8862422,31.3294522 84.3515625,29.8323174 C85.8168828,31.3292217 87.8579141,32.2608696 90.1132813,32.2608696 C94.5610977,32.2608696 98.1796875,28.642813 98.1796875,24.1956522 L98.1796875,23.0434783 L104.171875,23.0434783 Z M111.085938,18.4347826 L98.1796875,18.4347826 L98.1796875,12.673913 C98.1796875,10.5186565 97.3405508,8.49290435 95.8178438,6.97065217 C94.2949062,5.4477087 92.2688555,4.60869565 90.1132812,4.60869565 C88.7207891,4.60869565 87.4094219,4.96356522 86.2651445,5.58735217 C85.2167422,2.34905217 82.1731719,0 78.5898438,0 C76.3360898,0 74.2962109,0.930034783 72.8311211,2.42532609 C72.8106094,2.40435652 72.7914805,2.38269565 72.7709688,2.36195652 C71.2480312,0.839013043 69.2219805,0 67.0664062,0 C64.8110391,0 62.7700078,0.931417391 61.3046875,2.42855217 C59.8393672,0.931417391 57.7983359,0 55.5429688,0 C51.0951523,0 47.4765625,3.61805652 47.4765625,8.06521739 L47.4765625,18.4347826 L20.7421875,18.4347826 C20.7385,18.4347826 20.735043,18.4354739 20.7313555,18.4354739 C20.6527656,18.4359348 20.5741758,18.4407739 20.4960469,18.4490696 C20.4700039,18.4518348 20.4444219,18.4566739 20.4186094,18.4601304 C20.3616836,18.4681957 20.3049883,18.4776435 20.2485234,18.490087 C20.2213281,18.4960783 20.1943633,18.5029913 20.1673984,18.5099043 C20.1113945,18.5241913 20.056082,18.5407826 20.0012305,18.5594478 C19.9770313,18.5677435 19.952832,18.5755783 19.9288633,18.5847957 C19.8684805,18.6076087 19.80925,18.6334174 19.7507109,18.6613 C19.7378047,18.6675217 19.724207,18.6716696 19.7115313,18.6781217 L19.6739648,18.6970174 C19.6723516,18.6979391 19.6707383,18.6986304 19.669125,18.6995522 L1.27403125,27.895513 C0.493203125,28.2858696 0,29.0836348 0,29.9565217 C0,30.8294087 0.493203125,31.6271739 1.27403125,32.0175304 L19.6686641,41.2134913 C19.6707383,41.2146435 19.6728125,41.2155652 19.6748867,41.2167174 L19.7115313,41.2349217 C19.7239766,41.2411435 19.7371133,41.2452913 19.7495586,41.2512826 C19.8087891,41.2796261 19.8687109,41.3056652 19.9297852,41.3287087 C19.9530625,41.3374652 19.9765703,41.3453 20.0000781,41.3533652 C20.0558516,41.3722609 20.1120859,41.3890826 20.1690117,41.4038304 C20.1950547,41.410513 20.2210977,41.4171957 20.2473711,41.4229565 C20.3052187,41.4356304 20.3632969,41.4453087 20.4216055,41.4536043 C20.4460352,41.4570609 20.4702344,41.4614391 20.4946641,41.4642043 C20.5769414,41.4727304 20.6594492,41.4782609 20.7421875,41.4782609 L37.0065977,41.4782609 C37.8132383,43.6017174 39.061457,45.5403652 40.6775039,47.1566348 L48.7116445,55.1893609 C50.8875,57.3648957 52.0859375,60.2577739 52.0859375,63.335 L52.0859375,69.1304348 L49.78125,69.1304348 C48.5083711,69.1304348 47.4765625,70.1623217 47.4765625,71.4347826 L47.4765625,103.695652 C47.4765625,104.968113 48.5083711,106 49.78125,106 L95.875,106 C97.1476484,106 98.1796875,104.968113 98.1796875,103.695652 L98.1796875,71.4347826 C98.1796875,70.1623217 97.1476484,69.1304348 95.875,69.1304348 L93.5703125,69.1304348 L93.5703125,62.7612174 C93.5703125,59.9086652 94.2119375,57.0353739 95.4253555,54.4533522 C97.2787852,50.5149913 98.1796875,46.9135261 98.1796875,43.4438696 L98.1796875,41.4782609 L111.085938,41.4782609 C114.898352,41.4782609 118,38.3770696 118,34.5652174 L118,25.3478261 C118,21.5359739 114.898352,18.4347826 111.085938,18.4347826 Z" id="Fill-3"></path>
                <path d="M86.6255208,78.5185185 L68.1880208,78.5185185 C66.9153724,78.5185185 65.8833333,79.5504055 65.8833333,80.8228663 C65.8833333,82.0953272 66.9153724,83.1272142 68.1880208,83.1272142 L86.6255208,83.1272142 C87.8981693,83.1272142 88.9302083,82.0953272 88.9302083,80.8228663 C88.9302083,79.5504055 87.8981693,78.5185185 86.6255208,78.5185185" id="Fill-5"></path>
            </g>
        </g>
    </g>
</svg>