<?xml version="1.0" encoding="UTF-8"?>
<svg width="128px" height="128px" viewBox="0 0 128 128" version="1.1" xmlns="http://www.w3.org/2000/svg" xmlns:xlink="http://www.w3.org/1999/xlink">
    <!-- Generator: Sketch 52.2 (67145) - http://www.bohemiancoding.com/sketch -->
    <title>Male Population</title>
    <desc>Created with Sketch.</desc>
    <g id="Male-Population" stroke="none" stroke-width="1" fill="none" fill-rule="evenodd">
        <g id="Group-27" transform="translate(36.000000, 9.000000)" stroke="#5AC4ED" stroke-width="3.5">
            <path d="M36,8.50484883 C36,13.1912436 32.193668,17 27.4951512,17 C22.806332,17 19,13.1912436 19,8.50484883 C19,3.806332 22.806332,0 27.4951512,0 C32.193668,0 36,3.806332 36,8.50484883 Z" id="Fill-1"></path>
            <path d="M55.12332,59 C52.6608481,31.450343 38.9217833,26.8501261 38.9217833,26.8501261 C38.9217833,26.8501261 26.1682725,19.2175569 12.7517886,28.9330885 C4.04839613,36.8185889 1.49412921,47.3750862 0.123319969,59 C-1.24748927,70.6249138 9.24750173,66.304905 9.93789112,60.4726103 C10.7553919,53.5368416 14.62332,42.5652174 15.3912195,40.6348735 C15.9031526,39.3479776 15.8965062,41.5788964 15.3712805,47.32763 L15.3139557,79.5069188 L15.3139557,105.030647 C15.3139557,107.770734 17.3277991,110 20.1716052,110 C23.0029494,110 25.3108937,107.770734 25.3108937,105.030647 L25.3108937,68.5416098 L29.8569956,68.5416098 L29.8569956,105.147194 C29.8569956,111.093555 39.1261585,111.093555 39.1261585,105.147194 L39.1261585,79.5069188 L39.5249393,47.2606776 C39.5249393,44.1907878 38.12332,35.8278146 39.5249393,39.5214805 C40.9265587,43.2151465 44.462345,52.7433321 45.2997848,59.8923565 C46.0001437,65.7221714 55.8162017,64.9066861 55.12332,59 Z" id="Fill-3"></path>
        </g>
    </g>
</svg>