<?xml version="1.0" encoding="UTF-8"?>
<svg width="498px" height="591px" viewBox="0 0 498 591" version="1.1" xmlns="http://www.w3.org/2000/svg" xmlns:xlink="http://www.w3.org/1999/xlink">
    <!-- Generator: Sketch 52.2 (67145) - http://www.bohemiancoding.com/sketch -->
    <title>Group 13</title>
    <desc>Created with Sketch.</desc>
    <defs>
        <linearGradient x1="3.76893685%" y1="0%" x2="96.0963711%" y2="96.7174148%" id="linearGradient-1">
            <stop stop-color="#123ECF" offset="0%"></stop>
            <stop stop-color="#53C1FD" offset="47.5247532%"></stop>
            <stop stop-color="#A8E63C" offset="100%"></stop>
        </linearGradient>
    </defs>
    <g id="aboutkanpur" stroke="none" stroke-width="1" fill="none" fill-rule="evenodd">
        <g id="Group-13" transform="translate(1.000000, 1.000000)">
            <path d="M123.842748,40.5885803 C116.64104,32.3528549 111.882769,31.8381221 109.567935,39.0443818 C106.095683,49.8537714 103.780848,57.1887144 97.9937622,61.0492107 C92.2066759,64.909707 59.7989928,76.4911959 55.9409353,82.6679899 C52.0828778,88.844784 49.7680433,94.6355284 47.067403,97.3378758 C44.3667627,100.040223 16.5887486,120.114804 21.6042234,128.607896 C26.6196982,137.100988 23.1474464,128.221846 42.437734,145.20803 C61.7280215,162.194214 69.0583308,157.561618 75.6170286,166.05471 C82.1757264,174.547802 85.2621724,176.092 88.3486184,174.161752 C91.4350644,172.231504 110.339546,164.124462 113.811798,166.05471 C117.28405,167.984958 121.142107,168.371008 119.213078,173.003603 C117.28405,177.636199 120.370496,179.952497 120.370496,186.129291 C120.370496,192.306085 116.898244,190.375836 115.355021,200.413127 C113.811798,210.450417 122.299524,216.241162 118.055661,223.962154 C113.811798,231.683147 110.725352,235.543643 112.268575,249.05538 C113.811798,262.567117 106.481489,269.90206 103.780848,279.93935 C101.080208,289.976641 99.5369852,304.646527 100.308597,317.772214 C101.080208,330.897902 111.111158,330.897902 106.867294,344.409639 C102.623431,357.921376 89.1202299,364.484219 102.237625,368.730765 C115.355021,372.977311 121.913719,367.572616 123.842748,366.414467 C125.771776,365.256319 128.472417,362.940021 130.01564,368.730765 C131.558863,374.52151 134.645309,386.489048 130.01564,389.577445 C125.385971,392.665842 109.95374,405.01943 111.111158,416.21487 C112.268575,427.410309 107.638906,432.042904 121.913719,433.973153 C136.188532,435.903401 139.274978,429.340557 149.305927,436.6755 C159.336877,444.010443 170.525243,453.661684 181.71361,453.661684 C192.901977,453.661684 210.263236,444.396493 220.679991,449.029088 C231.096746,453.661684 240.74189,466.787371 238.04125,476.824661 C235.34061,486.861952 228.781912,507.322582 238.04125,512.341227 C247.300588,517.359872 257.331537,512.341227 266.20507,513.499376 C275.078602,514.657525 277.007631,525.852964 282.023106,535.504205 C287.03858,545.155446 295.912113,560.983481 306.328868,548.243843 C316.745623,535.504205 319.446263,527.011113 327.548184,532.801858 C335.650105,538.592602 346.838472,545.541495 345.295249,535.504205 C343.752026,525.466915 342.980414,519.67617 352.239752,519.67617 C361.49909,519.67617 363.813925,521.606418 367.671982,513.499376 C371.53004,505.392334 386.190658,514.271475 393.906773,516.973823 C401.622888,519.67617 402.3945,519.290121 403.937723,512.341227 C405.480946,505.392334 409.339003,502.303937 416.669313,499.987639 C423.999622,497.671341 422.070593,490.722448 420.141564,487.248001 C418.212536,483.773555 424.771233,477.98281 427.85768,479.140959 C430.944126,480.299108 434.030572,478.36886 438.660241,473.736264 C443.28991,469.103669 439.817658,454.819833 438.660241,450.573287 C437.502823,446.326741 435.573795,406.563629 427.85768,396.140289 C420.141564,385.716949 412.039644,387.261147 403.937723,374.13546 C395.835802,361.009773 372.687457,335.530497 361.113285,323.562959 C349.539112,311.59542 351.853947,318.109351 331.792047,305.804676 C311.730148,293.5 303.242422,262.181068 292.054055,252.915876 C280.865688,243.650685 261.961206,241.720437 248.072199,225.506353 C234.183192,209.292268 215.664516,196.166581 220.679991,163.352362 C225.695466,130.538144 222.223214,119.728754 215.278711,112.007762 C208.334207,104.286769 215.278711,85.756387 204.861955,70.3144018 C194.4452,54.8724166 158.565265,54.8724166 141.204006,50.2398211 C129.629834,47.151424 123.842748,43.9343438 123.842748,40.5885803 Z" id="Path-2" fill="url(#linearGradient-1)"></path>
            <path d="M54,0 C98.8181818,35.2907029 121.227273,59.7623583 121.227273,73.414966 C121.227273,93.8938776 152.136364,115.145578 161.022727,137.170068 C169.909091,159.194558 166.045455,171.172789 179.954545,197.447619 C193.863636,223.722449 262.636364,277.817687 272.681818,293.273469 C282.727273,308.729252 351.113636,362.438095 361.159091,388.712925 C371.204545,414.987755 362.704545,480.67483 409.068182,517.382313 C455.431818,554.089796 484.409091,563.74966 496,568" id="Path-4" stroke="#EF6D41" stroke-width="2" stroke-linecap="round" stroke-dasharray="1,1"></path>
            <path d="M2,328.70976 C33.9108409,331.792 58.4873354,329.351893 75.7294833,321.38944 C101.592705,309.44576 109.31307,308.6752 114.331307,304.05184 C119.349544,299.42848 121.279635,294.41984 130.158055,289.79648 C139.036474,285.17312 149.072948,282.09088 157.179331,279.7792 C165.285714,277.46752 184.586626,274 194.237082,274 C203.887538,274 238.629179,276.31168 256,276.31168" id="Path-6" stroke="#F5A623" stroke-width="2" stroke-linecap="round" stroke-dasharray="1,1"></path>
            <text id="Unnao" font-family="Poppins-Medium, Poppins" font-size="12" font-weight="400" letter-spacing="0.336" fill="#4A4A4A">
                <tspan x="273.294" y="167">UNNAO</tspan>
            </text>
            <text id="Unnao" font-family="Poppins-Medium, Poppins" font-size="12" font-weight="400" letter-spacing="0.336" fill="#4A4A4A">
                <tspan x="362.294" y="227">UNNAO</tspan>
            </text>
            <text id="Kanpur" transform="translate(268.925466, 311.715152) rotate(47.000000) translate(-268.925466, -311.715152) " font-family="Poppins-Medium, Poppins" font-size="12" font-weight="400" letter-spacing="0.336" fill="#4A4A4A">
                <tspan x="244.745466" y="316.215152">KANPUR</tspan>
            </text>
            <text id="Kanpur-(Dehat)" font-family="Poppins-Medium, Poppins" font-size="12" font-weight="400" letter-spacing="0.336" fill="#4A4A4A">
                <tspan x="47.438" y="462">KANPUR (DEHAT)</tspan>
            </text>
            <text id="Fatehpur" font-family="Poppins-Medium, Poppins" font-size="12" font-weight="400" letter-spacing="0.336" fill="#4A4A4A">
                <tspan x="346.308" y="556">FATEHPUR</tspan>
            </text>
            <path d="M224.5,383.5 C252.166667,430.166667 266,457.666667 266,466 C266,478.5 238.5,528.5 246.75,545.5 C252.25,556.833333 256.833333,565.5 260.5,571.5" id="Path-7" stroke="#EEEBEB"></path>
            <path d="M24.5,450.5 C51.1666667,455.833333 68.6666667,430.166667 77,373.5 C89.5,288.5 93.5,263 99.5,254 C103.5,248 110.166667,235.833333 119.5,217.5" id="Path-8" stroke="#EEEBEB"></path>
            <path d="M13,142.5 C52,212.833333 75,254.166667 82,266.5 C92.5,285 89,269 110.5,312.5 C132,356 124.5,357 135,365.5 C145.5,374 155.5,382.5 175,387.5 C188,390.833333 204.5,389.5 224.5,383.5" id="Path-9" stroke="#EEEBEB"></path>
            <path d="M459,399.5 C422.333333,407 392.666667,409.5 370,407 C336,403.25 322.5,433.5 306,450 C289.5,466.5 276,469.5 241,475.5 C206,481.5 171,489 152,504.5 C139.333333,514.833333 127.166667,525 115.5,535" id="Path-10" stroke="#EEEBEB"></path>
            <path d="M369.5,23.5 C333.5,68.8333333 305.666667,91.5 286,91.5 C256.5,91.5 242,95.5 232,104.5 C225.333333,110.5 218.666667,120.666667 212,135 C206.666667,148.333333 201.833333,156.666667 197.5,160 C193.166667,163.333333 184.166667,168.5 170.5,175.5" id="Path-11" stroke="#EEEBEB"></path>
            <path d="M112.682847,589 C94.1112023,532.436341 105.331571,491.941904 146.343952,467.516687 C207.862524,430.878863 214.826891,442.063041 214.826891,425.479604 C214.826891,408.896168 245.779632,315.566131 245.779632,300.139679 C245.779632,289.855377 249.519754,282.142151 257,277" id="Path-5" stroke="#D7D7D7" stroke-width="2" stroke-linecap="round" stroke-dasharray="1,1"></path>
            <path d="M0,339 C55.3734212,338.227557 93.2333882,329.473208 113.579901,312.736952 C144.099671,287.632568 142.554366,273.728601 193.93575,273.728601 C245.317133,273.728601 245.317133,282.22547 272.359967,273.728601 C299.402801,265.231733 310.219934,245.920668 328.377265,227.768267 C346.534596,209.615866 337.262768,208.070981 381.303954,196.870564 C425.34514,185.670146 420.709226,192.235908 436.162273,179.490605 C451.615321,166.745303 454.319605,159.793319 469,154" id="Path-3" stroke="#D64949" stroke-width="2" stroke-linecap="round" stroke-dasharray="1,1"></path>
        </g>
    </g>
</svg>