<?xml version="1.0" encoding="UTF-8"?>
<svg width="185px" height="99px" viewBox="0 0 185 99" version="1.1" xmlns="http://www.w3.org/2000/svg" xmlns:xlink="http://www.w3.org/1999/xlink">
    <!-- Generator: Sketch 52.2 (67145) - http://www.bohemiancoding.com/sketch -->
    <title>multiparking</title>
    <desc>Created with Sketch.</desc>
    <defs>
        <linearGradient x1="0%" y1="100%" x2="100%" y2="95.5797281%" id="linearGradient-1">
            <stop stop-color="#123ECF" offset="0%"></stop>
            <stop stop-color="#53C1FD" offset="47.5247532%"></stop>
            <stop stop-color="#A8E63C" offset="100%"></stop>
        </linearGradient>
        <linearGradient x1="26.5304703%" y1="34.6150233%" x2="97.0599578%" y2="27.3208803%" id="linearGradient-2">
            <stop stop-color="#123ECF" offset="0%"></stop>
            <stop stop-color="#53C1FD" offset="47.5247532%"></stop>
            <stop stop-color="#A8E63C" offset="100%"></stop>
        </linearGradient>
    </defs>
    <g id="home2" stroke="none" stroke-width="1" fill="none" fill-rule="evenodd">
        <g id="kanpur-Smart-City-slider2" transform="translate(-1361.000000, -1239.000000)">
            <g id="features" transform="translate(375.000000, 1180.000000)">
                <g id="Group-64-Copy-3" transform="translate(987.000000, 60.000000)">
                    <g id="multiparking">
                        <path d="M0,97.5 C0,43.732247 40.9658571,0.145041095 91.5,0.145041095 C142.034143,0.145041095 183,43.732247 183,97.5" id="Stroke-3" stroke="url(#linearGradient-1)" stroke-width="2"></path>
                        <g id="parking" transform="translate(54.000000, 34.000000)" fill="url(#linearGradient-2)">
                            <path d="M61.4528073,8.02728543 L61.4528073,12.3311549 L63.5660091,12.3311549 C64.7924127,12.3311549 65.547041,11.6730809 65.547041,10.2859909 L65.547041,10.0725924 C65.547041,8.68550241 64.7924127,8.02742846 63.5660091,8.02742846 L61.4528073,8.02742846 L61.4528073,8.02728543 Z M59.0001517,6.71142357 C59.0001517,6.33797626 59.3585736,6 59.9247344,6 L63.7169954,6 C66.1132018,6 68,7.08487089 68,10.0015073 L68,10.1080635 C68,13.0245569 66.0566009,14.1450419 63.5661608,14.1450419 L61.4528073,14.1450419 L61.4528073,18.2708409 C61.4528073,18.7511305 60.8301973,19 60.2264036,19 C59.6037936,19 59,18.7509874 59,18.2708409 L59,6.71142357 L59.0001517,6.71142357 Z" id="Fill-1"></path>
                            <path d="M18.8572249,12.6951931 C21.9671808,9.72018592 26.101905,8.08170588 30.4999068,8.08170588 C34.8979085,8.08170588 39.0327819,9.72018592 42.1425886,12.6951931 C42.3551497,12.8983977 42.6336421,13 42.9119853,13 C43.1903285,13 43.4688209,12.8983977 43.681382,12.6951931 C44.106206,12.2887838 44.106206,11.629653 43.681382,11.2232438 C40.1604747,7.85495576 35.4793564,6 30.5000559,6 C25.5207554,6 20.8396372,7.85495576 17.3187298,11.2232438 C16.8937567,11.629653 16.8937567,12.2886411 17.3187298,12.6951931 C17.7435538,13.1016023 18.432401,13.1016023 18.8572249,12.6951931" id="Fill-2"></path>
                            <path d="M37.9133683,17 C38.1913577,17 38.4694961,16.9026032 38.6817871,16.7078095 C39.106071,16.3182222 39.106071,15.686374 38.6817871,15.2967867 C33.8945891,10.9010711 26.1053737,10.9010711 21.3183247,15.2967867 C20.8938918,15.686374 20.8938918,16.3182222 21.3183247,16.7078095 C21.7426086,17.0973968 22.4307292,17.0973968 22.8550131,16.7078095 C26.7948351,13.0903109 33.2052767,13.0903109 37.1450986,16.7078095 C37.3572405,16.9026032 37.63523,17 37.9133683,17" id="Fill-3"></path>
                            <path d="M26.3122052,19.9507599 C25.8959316,20.4194821 25.8959316,21.1795099 26.3122052,21.6483966 C26.7283328,22.1172834 27.403225,22.1171188 27.8193526,21.6483966 C29.2975697,19.9835112 31.7025764,19.9835112 33.1807936,21.6483966 C33.3888573,21.8829223 33.6616488,21.9999383 33.9342942,21.9999383 C34.2069395,21.9999383 34.479731,21.8827577 34.6877948,21.6483966 C35.1040684,21.1795099 35.1040684,20.4196467 34.6877948,19.9507599 C32.3786376,17.3497467 28.6213624,17.3497467 26.3122052,19.9507599" id="Fill-4"></path>
                            <path d="M29.3006329,42.8846135 L29.3006329,35.1155315 L37.3873073,35.1155315 C39.5903876,35.1155315 41.7198278,35.7483927 43.5452969,36.9456664 L50.7517251,41.6721129 C51.2521196,42.00029 51.774173,42.3100498 52.3038444,42.5928361 C52.4409674,42.6660705 52.5558341,42.7667134 52.6421708,42.8846135 L29.3006329,42.8846135 Z M53.3536273,40.7392082 C52.8822108,40.4873109 52.417068,40.2114855 51.9713434,39.919128 L44.7649152,35.1926814 C42.5778177,33.7581573 40.0265524,33 37.3871579,33 L24.160162,33 C20.6491848,33 17.3456846,34.325035 14.8580516,36.7308938 C13.5794315,37.9677575 12.1227606,39.0023203 10.5285186,39.8060134 C9.58568566,40.2813844 9,41.2168995 9,42.2475468 C9,43.7653115 10.271749,45 11.8350711,45 L16.3445968,45 C16.9462652,45 17.4341126,44.5263692 17.4341126,43.9422343 C17.4341126,43.3580993 16.9462652,42.8844685 16.3445968,42.8844685 L11.8350711,42.8844685 C11.4732933,42.8844685 11.1788821,42.5986368 11.1788821,42.2474017 C11.1788821,42.0094262 11.3143621,41.7933485 11.5325938,41.6834244 C13.3237075,40.7805385 14.9600723,39.6183594 16.3958312,38.2295161 C18.4720951,36.2212984 21.2294931,35.1153865 24.1600126,35.1153865 L27.1213026,35.1153865 L27.1213026,42.8844685 L23.5017324,42.8844685 C22.900064,42.8844685 22.4122166,43.3580993 22.4122166,43.9422343 C22.4122166,44.5263692 22.900064,45 23.5017324,45 L53.3757343,45 C54.2713658,45 55,44.2925992 55,43.4230676 C55,42.3096147 54.3690548,41.2811427 53.3536273,40.7392082 Z" id="Fill-5"></path>
                            <path d="M31.994963,46.7593164 L28.6571852,46.7593164 C28.0604444,46.7593164 27.5765926,47.2420508 27.5765926,47.8374134 C27.5765926,48.432776 28.0604444,48.9155104 28.6571852,48.9155104 L31.994963,48.9155104 C32.5917037,48.9155104 33.0755556,48.432776 33.0755556,47.8374134 C33.0755556,47.2420508 32.5917037,46.7593164 31.994963,46.7593164" id="Fill-6"></path>
                            <path d="M73.6908148,54.7907991 C73.6908148,55.8062263 72.8628148,56.6323141 71.845037,56.6323141 L70.0660741,56.6323141 C70.0237037,55.0686744 69.4705185,53.5768684 68.474963,52.3537737 C68.4682963,52.3454965 68.4619259,52.3369238 68.4551111,52.3286467 C68.3934815,52.253709 68.3296296,52.1802494 68.2647407,52.1072333 C68.2481481,52.0886097 68.2324444,52.0693949 68.2157037,52.0507714 C68.146963,51.9752425 68.0758519,51.9011917 68.0035556,51.8281755 C67.9912593,51.8157598 67.98,51.8027529 67.9675556,51.790485 C67.0365926,50.8618199 65.8948148,50.2198984 64.6499259,49.9095058 C64.084,49.768351 63.4968889,49.6957783 62.8983704,49.6957783 C62.4197037,49.6957783 61.9481481,49.7423372 61.4888889,49.8330901 C60.1112593,50.1056443 58.8448889,50.7774226 57.8293333,51.790485 C57.8171852,51.8026051 57.8060741,51.8153164 57.7940741,51.8275843 C57.7214815,51.9010439 57.6500741,51.9752425 57.5811852,52.051067 C57.5648889,52.0689515 57.5497778,52.0875751 57.5337778,52.1056074 C57.4682963,52.1792148 57.4037037,52.2534134 57.3416296,52.3290901 C57.3354074,52.3366282 57.3296296,52.3444619 57.3234074,52.3521478 C56.3271111,53.5753903 55.7733333,55.0680831 55.7308148,56.6324619 L20.3859259,56.6324619 C20.3434074,55.0661617 19.7884444,53.5716952 18.7896296,52.347418 C18.785037,52.3416536 18.7805926,52.3358891 18.776,52.3301247 C18.7108148,52.2506051 18.6431111,52.1727113 18.5742222,52.0955566 C18.5614815,52.0813672 18.5496296,52.0667344 18.5367407,52.052545 C18.456,51.9637136 18.373037,51.8762125 18.2872593,51.7906328 C17.9379259,51.4421062 17.561037,51.1370346 17.1638519,50.8755658 C15.9718519,50.0913072 14.5951111,49.6991778 13.2183704,49.6991778 C11.3826667,49.6991778 9.54681481,50.3963788 8.14933333,51.7906328 C8.06948148,51.8703002 7.9922963,51.952037 7.91674074,52.0348083 C7.89437037,52.0593441 7.87288889,52.0843233 7.85081481,52.1090069 C7.79748148,52.169164 7.74503704,52.2299122 7.69392593,52.2913995 C7.67125926,52.3187436 7.64859259,52.3462356 7.62637037,52.3740231 C7.57348148,52.4397968 7.52192593,52.5063095 7.47155556,52.5735612 C7.45585185,52.5945497 7.4397037,52.6150947 7.42444444,52.6362309 C7.28903704,52.8211363 7.16340741,53.011806 7.04725926,53.2073533 C7.044,53.2128222 7.04088889,53.2184388 7.03762963,53.2239076 C6.98088889,53.3201293 6.92651852,53.4176813 6.87451852,53.5162679 C6.87303704,53.5190762 6.87155556,53.5220323 6.86992593,53.5248406 C6.49318519,54.2400739 6.23985185,55.0136905 6.1237037,55.8161293 L2.75585185,54.3226975 C2.39466667,54.1624758 2.16133333,53.804194 2.16133333,53.4099954 L2.16133333,42.9689792 C2.16133333,41.6326651 3.11288889,40.463963 4.42385185,40.1899307 L5.97525926,39.8657921 C9.08933333,39.2150023 11.9266667,37.686836 14.1805926,35.4465404 C16.865037,32.7781986 20.4303704,31.3087113 24.2198519,31.3087113 L37.3383704,31.3087113 C40.1871111,31.3087113 42.9404444,32.1497275 45.301037,33.7405635 L52.4482963,38.557709 C53.8825185,39.5245081 56.0625185,40.8639261 58.4247407,41.3327667 L68.286963,43.2894226 C70.1361481,43.6564249 71.7546667,44.790836 72.7278519,46.4019215 L73.0691852,46.9671316 C73.4761481,47.6406836 73.6911111,48.4125266 73.6911111,49.1990023 L73.6911111,54.7907991 L73.6908148,54.7907991 Z M66.4394074,60.3806744 C65.4934815,61.3242679 64.236,61.8439538 62.8983704,61.8439538 C61.5607407,61.8439538 60.3034074,61.3242679 59.3576296,60.3806744 C57.6531852,58.6803141 57.4368889,56.0492194 58.7081481,54.1123695 C58.7142222,54.1030577 58.7202963,54.093746 58.7265185,54.084582 C58.7637037,54.0287113 58.8023704,53.9735797 58.8420741,53.9188915 C58.8597037,53.8946513 58.8777778,53.8707067 58.896,53.8469099 C58.9287407,53.803455 58.9619259,53.7601478 58.9964444,53.7174319 C59.0268148,53.680037 59.0582222,53.6433811 59.0897778,53.6067252 C59.116,53.5761293 59.1416296,53.5450901 59.1687407,53.5150855 C59.2297778,53.4472425 59.2925926,53.3804342 59.3577778,53.3153995 C60.3035556,52.371806 61.5608889,51.8521201 62.8985185,51.8521201 C64.2361481,51.8521201 65.4936296,52.371806 66.4394074,53.3153995 C66.5045926,53.3804342 66.5674074,53.4473903 66.6284444,53.5152333 C66.6554074,53.5450901 66.6807407,53.5758337 66.7068148,53.6062818 C66.7385185,53.6430855 66.7702222,53.680037 66.8005926,53.7175797 C66.834963,53.7601478 66.868,53.8033072 66.9007407,53.8466143 C66.918963,53.8707067 66.9371852,53.8947991 66.954963,53.9191871 C66.9945185,53.9737275 67.0331852,54.0285635 67.0702222,54.0842864 C67.0765926,54.093746 67.0828148,54.1032055 67.089037,54.1126651 C68.3598519,56.049515 68.1435556,58.6804619 66.4394074,60.3806744 Z M16.7592593,60.3806744 C15.8134815,61.3242679 14.556,61.8439538 13.2183704,61.8439538 C11.8807407,61.8439538 10.6232593,61.3242679 9.67748148,60.3806744 C8.1602963,58.8669931 7.82281481,56.6160554 8.66340741,54.7735058 C8.67022222,54.7587252 8.67674074,54.7437968 8.68355556,54.7290162 C8.70918519,54.6743279 8.7362963,54.6202309 8.764,54.5664296 C8.77703704,54.5410069 8.79007407,54.5157321 8.8037037,54.4906051 C8.82874074,54.4438984 8.85481481,54.3974873 8.88148148,54.3513718 C8.89985185,54.3195935 8.91866667,54.2881109 8.93777778,54.256776 C8.96251852,54.2161293 8.98755556,54.1756305 9.01362963,54.1355751 C9.03718519,54.0993626 9.06148148,54.0635935 9.08607407,54.0279723 C9.11037037,53.9926467 9.13451852,53.9571732 9.1597037,53.9224388 C9.18859259,53.882679 9.21866667,53.8436582 9.24888889,53.8046374 C9.27244444,53.7741894 9.29540741,53.7434457 9.3197037,53.7134411 C9.35525926,53.6695427 9.39244444,53.626679 9.42948148,53.5838152 C9.45066667,53.5594273 9.47096296,53.534448 9.49259259,53.5103557 C9.5477037,53.4493118 9.60444444,53.3894503 9.66281481,53.3307714 C9.66785185,53.325746 9.67244444,53.3204249 9.67748148,53.3153995 C9.68859259,53.3043141 9.7002963,53.2939677 9.71155556,53.28303 C9.76103704,53.2345497 9.81081481,53.1866605 9.86162963,53.1406928 C9.87481481,53.1287206 9.88874074,53.1176351 9.90207407,53.1058106 C9.95274074,53.0610254 10.0037037,53.0165358 10.0558519,52.9741155 C10.0607407,52.9701247 10.0659259,52.9664296 10.0708148,52.9624388 C11.9023704,51.4836397 14.544,51.4854134 16.3733333,52.968351 C16.3754074,52.9701247 16.3776296,52.9716028 16.3798519,52.9733764 C16.4357037,53.0187529 16.4903704,53.0663464 16.5447407,53.1145312 C16.5545185,53.1231039 16.5645926,53.1312333 16.5742222,53.1399538 C16.637037,53.1965635 16.6986667,53.2549469 16.7591111,53.3152517 C16.8242963,53.3802864 16.8871111,53.4472425 16.9481481,53.5150855 C16.974963,53.5449423 17.0002963,53.5755381 17.0262222,53.6058383 C17.0579259,53.6427898 17.0897778,53.6798891 17.1202963,53.7175797 C17.1545185,53.76 17.1875556,53.8031594 17.2201481,53.8463187 C17.2385185,53.8704111 17.2567407,53.8946513 17.2745185,53.9190393 C17.3140741,53.9734319 17.3525926,54.0284157 17.3897778,54.0841386 C17.3961481,54.0935982 17.4023704,54.1032055 17.4085926,54.1126651 C18.6797037,56.0496628 18.4634074,58.6803141 16.7592593,60.3806744 Z M62.4411852,26.5135889 L63.7573333,26.5135889 L63.7573333,40.1924434 L62.4411852,39.9312702 L62.4411852,26.5135889 Z M74.9198519,45.854448 L74.5785185,45.2892379 C73.2921481,43.1595012 71.1524444,41.6598614 68.7081481,41.1747621 L65.9183704,40.6212286 L65.9183704,26.5135889 L73.1379259,26.5135889 C74.6244444,26.5135889 75.8336296,25.3070485 75.8336296,23.8241109 L75.8336296,2.82812009 C75.8336296,1.34503464 74.6242963,0.138642032 73.1379259,0.138642032 L52.0933333,0.138642032 C50.6068148,0.138642032 49.3976296,1.34518245 49.3976296,2.82812009 L49.3976296,10.7926467 C49.3976296,11.3880092 49.8813333,11.8707436 50.4782222,11.8707436 C51.0751111,11.8707436 51.5588148,11.3880092 51.5588148,10.7926467 L51.5588148,2.82812009 C51.5588148,2.53398614 51.7986667,2.29468822 52.0934815,2.29468822 L73.1382222,2.29468822 C73.433037,2.29468822 73.6728889,2.53398614 73.6728889,2.82812009 L73.6728889,23.8242587 C73.6728889,24.1183926 73.433037,24.3576905 73.1382222,24.3576905 L52.0933333,24.3576905 C51.7985185,24.3576905 51.5586667,24.1183926 51.5586667,23.8242587 L51.5586667,17.8013118 C51.5586667,17.2059492 51.074963,16.7232148 50.4780741,16.7232148 C49.8811852,16.7232148 49.3974815,17.2059492 49.3974815,17.8013118 L49.3974815,23.8242587 C49.3974815,25.3073441 50.6068148,26.5137367 52.0931852,26.5137367 L60.28,26.5137367 L60.28,39.5027806 L58.8459259,39.218254 C56.8666667,38.8255335 54.937037,37.6337737 53.6576296,36.7713256 L46.5103704,31.9541801 C43.7911111,30.1215335 40.6194074,29.1528129 37.3379259,29.1528129 L24.2194074,29.1528129 C19.8542222,29.1528129 15.7471111,30.8456351 12.6548148,33.919261 C10.6980741,35.8642402 8.23496296,37.1907991 5.5317037,37.7557136 L3.9802963,38.0798522 C1.67392593,38.5616998 0,40.6179769 0,42.9689792 L0,53.4099954 C0,54.6554088 0.737037037,55.7871594 1.87792593,56.2929515 L6.18192593,58.2014226 C6.44222222,59.5593164 7.09792593,60.8560185 8.14948148,61.9051455 C9.54696296,63.2993995 11.3826667,63.9966005 13.2185185,63.9966005 C15.0543704,63.9966005 16.8899259,63.2993995 18.2875556,61.9051455 C19.1863704,61.0084065 19.7943704,59.9304573 20.1151111,58.7883603 L56.0019259,58.7883603 C56.3226667,59.9304573 56.9308148,61.0084065 57.8296296,61.9051455 C59.1837037,63.2559446 60.9837037,64 62.8986667,64 C64.8134815,64 66.6137778,63.2560924 67.9678519,61.9051455 C68.8666667,61.0084065 69.4746667,59.9304573 69.7954074,58.7883603 L71.8453333,58.7883603 C74.0546667,58.7883603 75.8521481,56.99503 75.8521481,54.7907991 L75.8521481,49.1990023 C75.8518519,48.0203972 75.5294815,46.863963 74.9198519,45.854448 Z" id="Fill-8"></path>
                            <path d="M14.3454272,58.3444951 C14.1198324,58.5700415 13.8197771,58.6942738 13.5007509,58.6942738 C13.1815667,58.6942738 12.8816694,58.5700415 12.6560746,58.3443371 C12.4304798,58.1187906 12.3060628,57.8189577 12.3060628,57.4998419 C12.3060628,57.1807262 12.4303217,56.8808932 12.6560746,56.6553468 C12.8816694,56.4298004 13.1815667,56.30541 13.5007509,56.30541 C13.8197771,56.30541 14.1198324,56.4296423 14.3454272,56.6553468 C14.8111612,57.1211389 14.8111612,57.8788611 14.3454272,58.3444951 Z M13.5007509,54 C12.565647,54 11.686507,54.3641618 11.0253735,55.0251535 C10.36424,55.6861452 10,56.5650966 10,57.5 C10,58.4349034 10.36424,59.3138548 11.0253735,59.9748465 C11.686507,60.6358382 12.565647,61 13.500909,61 C14.436013,61 15.315153,60.6359962 15.9762865,59.9748465 C17.3412378,58.6101879 17.3412378,56.3898121 15.9762865,55.0251535 C15.3148368,54.3640038 14.4358549,54 13.5007509,54 Z" id="Fill-10"></path>
                            <path d="M64.3438804,58.3446532 C64.1182818,58.5701996 63.8183794,58.6944319 63.4991898,58.6944319 C63.1801582,58.6944319 62.8800978,58.5701996 62.6544992,58.3446532 C62.1887573,57.8790191 62.1887573,57.121297 62.6544992,56.6556629 C62.8800978,56.4301165 63.1801582,56.3057262 63.4991898,56.3057262 C63.8183794,56.3057262 64.1182818,56.4299585 64.3440385,56.6556629 C64.5696371,56.8812094 64.6938982,57.1810423 64.6938982,57.5001581 C64.6938982,57.8189577 64.5697952,58.1189487 64.3438804,58.3446532 Z M63.4991898,54 C62.56407,54 61.6850732,54.3640038 61.0236123,55.0251535 C59.6587959,56.3898121 59.6587959,58.6101879 61.0236123,59.9748465 C61.6849151,60.6359962 62.56407,61 63.4991898,61 C64.4344677,61 65.3134644,60.6359962 65.9746091,59.9750045 C66.6359119,59.3140128 67,58.4350614 67,57.5001581 C67,56.5652547 66.6359119,55.6863033 65.9747672,55.0253116 C65.3136225,54.3641618 64.4344677,54 63.4991898,54 Z" id="Fill-11"></path>
                        </g>
                    </g>
                </g>
            </g>
        </g>
    </g>
</svg>