<?xml version="1.0" encoding="UTF-8"?>
<svg width="128px" height="128px" viewBox="0 0 128 128" version="1.1" xmlns="http://www.w3.org/2000/svg" xmlns:xlink="http://www.w3.org/1999/xlink">
    <!-- Generator: Sketch 52.2 (67145) - http://www.bohemiancoding.com/sketch -->
    <title>population</title>
    <desc>Created with Sketch.</desc>
    <g id="population" stroke="none" stroke-width="1" fill="none" fill-rule="evenodd">
        <g id="Group-8" transform="translate(7.000000, 31.000000)" fill="#5AC4ED">
            <path d="M3.75975218,47.8392876 C3.78114387,40.1122348 9.92153224,33.8539498 17.5022946,33.8321462 L32.0356815,33.8321462 C34.3890919,33.8295033 36.7029601,34.4485926 38.7513768,35.6292889 C40.1246587,36.4208245 41.3566257,37.4442708 42.394447,38.65536 C36.5444671,41.2433776 32.5267181,46.8554842 31.8930702,53.3232157 L31.8930702,53.7328585 C31.8930702,53.9178585 31.8930702,54.0896442 31.8930702,54.2746441 L31.8930702,55.9660725 L3.75975218,55.9660725 L3.75975218,47.8392876 Z M49.2527536,41.0471455 L63.7991051,41.0471455 C70.7018156,41.0729133 76.5232733,46.2948681 77.4249656,53.2703585 C77.4249656,53.5610728 77.4249656,53.851787 77.5027536,54.1425013 C77.5027536,54.4421352 77.5027536,54.7414387 77.5027536,55.0410726 L77.5027536,63.1810718 L35.5102111,63.1810718 L35.5102111,54.8957155 C35.5102111,54.7460637 35.5102111,54.6007066 35.5102111,54.4596441 C35.5102111,54.2307066 35.5102111,54.0014388 35.5102111,53.7725013 L35.5102111,53.4289299 C35.5102111,53.2967871 35.5102111,53.1646442 35.5102111,53.0325014 L35.5102111,52.0414301 L35.5879991,51.7242872 L35.7176457,51.248573 L35.8083983,50.9314302 C37.6707721,45.1782611 42.9331287,41.2830204 48.8767783,41.258574 L49.2527536,41.0471455 Z M74.2875172,35.6292889 C76.3359339,34.4485926 78.6498021,33.8295033 81.0032125,33.8321462 L95.549564,33.8321462 C103.130326,33.8539498 109.270715,40.1122348 109.292106,47.8392876 L109.292106,55.9792868 L81.2884351,55.9792868 L81.2884351,54.8296441 C81.2884351,54.6842869 81.2884351,54.5389298 81.2884351,54.3935727 C81.2884351,54.2439209 81.2884351,54.0939388 81.2884351,53.944287 C81.2884351,53.7328585 81.2884351,53.5082156 81.2884351,53.2967871 L81.2884351,50.4292874 L81.1976824,50.0989303 L81.1976824,49.4514303 L81.0161771,48.9360732 C79.3268816,44.3589755 75.8815225,40.6804491 71.4741854,38.74786 C72.2540099,37.571128 73.2023749,36.5199316 74.2875172,35.6292889 Z M1.87987609,59.798215 L31.6986003,59.798215 L31.6986003,65.0839288 C31.6986003,66.1420626 32.540331,67 33.5784764,67 L79.4215236,67 C80.459669,67 81.3013997,66.1420626 81.3013997,65.0839288 L81.3013997,59.798215 L111.120124,59.798215 C112.158269,59.798215 113,58.9402776 113,57.8821438 L113,47.8392876 C112.978608,38.0164493 105.186522,30.0508787 95.549564,30.0000037 L81.0161771,30.0000037 C78.0125889,29.9980216 75.059887,30.7902179 72.4465351,32.2992892 C70.2221231,33.5853694 68.297843,35.348155 66.8069068,37.4660744 C65.8138137,37.2893333 64.8074317,37.2007976 63.7991051,37.2017887 L49.2527536,37.2017887 C48.2444269,37.2007976 47.238045,37.2893333 46.2449518,37.4660744 C44.7543397,35.3478246 42.8300597,33.5850391 40.6053235,32.2992892 C37.9919717,30.7902179 35.0392697,29.9980216 32.0356815,30.0000037 L17.5022946,30.0000037 C7.84491739,30.0218073 0.0213916934,37.9959672 0,47.8392876 L0,57.8953581 C0.00713056448,58.9485365 0.846592474,59.798215 1.87987609,59.798215 Z" id="Fill-1"></path>
            <path d="M31.5942194,20.3227201 C27.9600142,24.0980246 22.0670439,24.0993469 18.4312471,20.3253645 C14.7957686,16.5517128 14.7944954,10.4317593 18.4287006,6.65645476 C22.0629058,2.8811502 27.9558761,2.87982797 31.5916729,6.65347973 C33.3373137,8.46559948 34.3183613,10.9236298 34.3189979,13.4867777 C34.3224994,16.0512478 33.3420884,18.5112615 31.5942194,20.3227201 Z M25.01146,5.42329857e-06 C17.8318595,-0.00660573957 12.0063721,6.03203042 12.0000058,13.4880999 C11.9933211,20.9438388 17.8086225,26.9933834 24.988223,26.9999946 C32.1678235,27.0066057 37.9933109,20.9679696 37.9999955,13.5119001 C38.0028603,9.93360819 36.6379245,6.50043131 34.2044044,3.96670314 C31.771521,1.42537214 28.4623156,-0.00263904185 25.01146,5.42329857e-06 Z" id="Fill-3"></path>
            <path d="M81.4185132,6.66405759 C85.0527185,2.88875304 90.9456887,2.88743081 94.5814855,6.66141313 C98.216964,10.4350649 98.2182373,16.5550184 94.584032,20.3303229 C90.9498268,24.1056275 85.0568566,24.1069497 81.4210598,20.3332979 C79.6754189,18.5211782 78.6943713,16.0631478 78.6937347,13.5 C78.6902332,10.9355299 79.6706442,8.47551622 81.4185132,6.66405759 Z M87.98854,26.9999946 C95.1681405,27.0066057 100.993628,20.9679696 100.999994,13.5119001 C101.006679,6.05616117 95.1913775,0.00661658617 88.011777,5.42329857e-06 C80.8321765,-0.00660573957 75.0066891,6.03203042 75.0000045,13.4880999 C74.9971397,17.0663918 76.3620755,20.4995687 78.7955956,23.0332969 C81.228479,25.5746279 84.5376844,27.002639 87.98854,26.9999946 Z" id="Fill-8"></path>
            <path d="M66.3103542,20.5264414 C66.3087611,25.8698476 62.1363345,30.2000945 56.9911383,30.1987709 C51.8456235,30.1971165 47.6754273,25.8642226 47.6770204,20.5208165 C47.6786136,15.1774103 51.8510401,10.8471635 56.9962363,10.8488179 C59.4668737,10.8494796 61.8361875,11.8692566 63.5829032,13.683811 C65.3324866,15.4970419 66.3138591,17.9594624 66.3103542,20.5264414 Z M47.7917263,10.9705823 C42.7236379,16.2517827 42.7379762,24.7994458 47.823589,30.0624477 C52.9092019,35.3254497 61.1403051,35.31056 66.2083935,30.0293596 C71.2761632,24.7481591 71.2621436,16.2004961 66.1765307,10.9374941 C63.7383934,8.41419142 60.4358198,6.99834926 56.9936873,7.00000367 C53.539447,6.99735662 50.226996,8.42676491 47.7917263,10.9705823 Z" id="Fill-10"></path>
        </g>
    </g>
</svg>