<?xml version="1.0" encoding="UTF-8"?>
<svg width="66px" height="65px" viewBox="0 0 66 65" version="1.1" xmlns="http://www.w3.org/2000/svg" xmlns:xlink="http://www.w3.org/1999/xlink">
    <!-- Generator: Sketch 52.3 (67297) - http://www.bohemiancoding.com/sketch -->
    <title>Group</title>
    <desc>Created with Sketch.</desc>
    <defs>
        <polygon id="path-1" points="0.0076171875 0.085 64.9979529 0.085 64.9979529 51 0.0076171875 51"></polygon>
    </defs>
    <g id="onlineservices" stroke="none" stroke-width="1" fill="none" fill-rule="evenodd">
        <g id="onlineservics" transform="translate(-746.000000, -1007.000000)">
            <g id="onlineservices-copy" transform="translate(641.500000, 956.000000)">
                <g id="Group-56">
                    <g id="Group" transform="translate(105.000000, 51.000000)">
                        <g id="Group-4" transform="translate(0.000000, 14.000000)">
                            <mask id="mask-2" fill="white">
                                <use xlink:href="#path-1"></use>
                            </mask>
                            <g id="Clip-2"></g>
                            <path d="M40.9138184,8.27299248 L40.958252,8.2802782 C41.0282031,8.29190977 41.0976465,8.29753383 41.1662012,8.29753383 C41.7764648,8.29753383 42.3147461,7.85310526 42.4171973,7.22704511 C42.5312012,6.53055639 42.0627441,5.87279699 41.3709766,5.75801504 L41.3158789,5.74893985 C40.6237305,5.63633083 39.972334,6.11143609 39.86125,6.80856391 C39.7504199,7.50543609 40.221543,8.16115038 40.9138184,8.27299248" id="Fill-1" fill="#FFFFFF" mask="url(#mask-2)"></path>
                            <path d="M16.4415723,6.92385714 C14.9484766,7.52422556 13.538916,8.30034586 12.2409473,9.23087218 L12.2409473,2.70312782 C14.3936914,3.0436391 16.098418,4.75821053 16.4415723,6.92385714 Z M63.7048242,21.936391 C62.2264551,20.4480602 59.8213281,20.4480602 58.3430859,21.936391 C57.847334,22.4355263 57.847334,23.2448797 58.3430859,23.7441429 C58.8388379,24.2432782 59.6427051,24.2432782 60.138584,23.7441429 C60.6268457,23.2524211 61.4213184,23.2525489 61.9095801,23.7441429 C62.64375,24.4831955 62.64375,25.6857218 61.9095801,26.4249023 C61.4051953,26.9328571 60.734502,27.2125263 60.0210254,27.2125263 C59.3076758,27.2125263 58.6369824,26.9328571 58.1325977,26.4249023 C58.1318359,26.4241353 58.1309473,26.4233684 58.1300586,26.4226015 C58.1388184,26.1769323 58.1446582,25.9308797 58.1446582,25.6838045 C58.1446582,17.7698571 53.5168359,10.5454962 46.3547754,7.27893985 C45.7160742,6.98776692 44.96375,7.27280451 44.6745508,7.91573684 C44.3852246,8.55879699 44.668457,9.31625564 45.3070313,9.60742857 C51.5631543,12.4607444 55.6055957,18.7710677 55.6055957,25.6836767 C55.6055957,31.7107519 52.5960449,37.2595263 47.5551172,40.526594 C47.1921582,40.7619098 46.9727832,41.1667143 46.9727832,41.6014286 L46.9727832,47.6766917 C46.9727832,48.0996466 46.6311523,48.443609 46.2110645,48.443609 L40.1173145,48.443609 C39.6972266,48.443609 39.3555957,48.0996466 39.3555957,47.6766917 L39.3555957,45.1589023 C39.3555957,44.1464436 38.5375098,43.3227744 37.532041,43.3227744 L24.4213379,43.3227744 C23.4157422,43.3227744 22.5976563,44.1464436 22.5976563,45.1589023 L22.5976563,47.6766917 C22.5976563,48.0996466 22.2560254,48.443609 21.8359375,48.443609 L15.7421875,48.443609 C15.3220996,48.443609 14.9804688,48.0996466 14.9804688,47.6766917 L14.9804688,41.6014286 C14.9804688,41.1668421 14.7610938,40.7619098 14.3981348,40.5267218 C10.765625,38.1724135 8.13249023,34.5772331 6.98394531,30.4035414 C6.81446289,29.7874511 6.21892578,29.3918496 5.58949219,29.4782556 C5.52550781,29.4869474 5.46317383,29.5004962 5.40274414,29.5182632 L4.18551758,29.5182632 C3.27767578,29.5182632 2.5390625,28.774609 2.5390625,27.8605714 L2.5390625,23.5066541 C2.5390625,22.5926165 3.27767578,21.8489624 4.18551758,21.8489624 L5.41886719,21.8489624 C5.47421875,21.8645564 5.53109375,21.8763158 5.58936523,21.8843684 C6.21879883,21.9711579 6.81420898,21.5754286 6.98381836,20.9593383 C8.95793945,13.791218 15.2336133,8.61938346 22.6001953,8.08982707 C23.2995801,8.03959398 23.8260547,7.42797744 23.7761621,6.72381955 C23.7262695,6.01966165 23.1180371,5.49087218 22.4194141,5.53982707 C21.2084082,5.62687218 20.0239355,5.82563158 18.8752637,6.12293985 C18.1408398,2.67679699 15.0930762,0.085 11.4542188,0.085 L10.971416,0.085 C10.2702539,0.085 9.70188477,0.65724812 9.70188477,1.36319549 L9.70188477,11.3906391 C7.52895508,13.5711128 5.83882813,16.258391 4.83513672,19.2928271 L4.18551758,19.2928271 C1.87763672,19.2928271 0,21.1832782 0,23.5069098 L0,27.8608271 C0,30.1844586 1.87763672,32.0749098 4.18551758,32.0749098 L4.83640625,32.0749098 C6.20432617,36.2105113 8.86678711,39.787797 12.4414063,42.2844962 L12.4414063,47.6766917 C12.4414063,49.5091128 13.9221875,51 15.7421875,51 L21.8359375,51 C23.6559375,51 25.1367188,49.5091128 25.1367188,47.6766917 L25.1367188,45.8791654 L36.8164063,45.8791654 L36.8164063,47.6766917 C36.8164063,49.5091128 38.2971875,51 40.1171875,51 L46.2109375,51 C48.0309375,51 49.5117188,49.5091128 49.5117188,47.6766917 L49.5117188,42.2843684 C53.9380664,39.1950977 56.8921387,34.5230376 57.8261328,29.2829474 C58.5049512,29.6007068 59.2499121,29.7687895 60.0208984,29.7687895 C61.4125586,29.7687895 62.7208105,29.2231278 63.7049512,28.2323985 C65.4289746,26.496609 65.4289746,23.6723083 63.7048242,21.936391 Z" id="Fill-3" fill="#FFFFFF" mask="url(#mask-2)"></path>
                        </g>
                        <path d="M13.4395,31.4395 C13.1605,31.7185 13,32.104 13,32.5 C13,32.8945 13.1605,33.2815 13.4395,33.5605 C13.7185,33.8395 14.1055,34 14.5,34 C14.8945,34 15.2815,33.8395 15.5605,33.5605 C15.8395,33.28 16,32.8945 16,32.5 C16,32.1055 15.8395,31.7185 15.5605,31.4395 C15.2815,31.159 14.8945,31 14.5,31 C14.104,31 13.7185,31.159 13.4395,31.4395" id="Fill-5" fill="#FFFFFF"></path>
                        <path d="M40,28.5 C40,27.67155 39.4301512,27 38.7271638,27 L24.2728362,27 C23.5698488,27 23,27.67155 23,28.5 C23,29.32845 23.5698488,30 24.2728362,30 L38.7271638,30 C39.4301512,30 40,29.32845 40,28.5" id="Fill-6" fill="#FFFFFF"></path>
                        <path d="M32,13.6415094 C34.4032453,13.6415094 36.3584906,15.5967547 36.3584906,18 C36.3584906,20.4032453 34.4032453,22.3584906 32,22.3584906 C29.5967547,22.3584906 27.6415094,20.4032453 27.6415094,18 C27.6415094,15.5967547 29.5967547,13.6415094 32,13.6415094 Z M32,25 C35.8597736,25 39,21.8597736 39,18 C39,14.1402264 35.8597736,11 32,11 C28.1402264,11 25,14.1402264 25,18 C25,21.8597736 28.1402264,25 32,25 Z" id="Fill-7" fill="#FFFFFF"></path>
                        <path d="M31.5,8 C32.32845,8 33,7.43274363 33,6.73295428 L33,1.26704572 C33,0.567256371 32.32845,0 31.5,0 C30.67155,0 30,0.567256371 30,1.26704572 L30,6.73295428 C30,7.43274363 30.6717,8 31.5,8" id="Fill-8" fill="#FFFFFF"></path>
                        <path d="M39.2950006,11 C39.6263664,11 39.9578617,10.8736181 40.2106268,10.6207248 L43.6207551,7.21061491 C44.126415,6.70495783 44.126415,5.88502938 43.6207551,5.37924281 C43.1150953,4.87358573 42.2951625,4.87358573 41.7893732,5.37924281 L38.3792449,8.78935271 C37.873585,9.29500979 37.873585,10.1149382 38.3792449,10.6207248 C38.6321395,10.8736181 38.9636348,11 39.2950006,11" id="Fill-9" fill="#FFFFFF"></path>
                        <path d="M23.7895026,10.6207248 C24.0423973,10.8736181 24.3737631,11 24.7051289,11 C25.0364947,11 25.36799,10.8736181 25.6207551,10.6207248 C26.126415,10.1150677 26.126415,9.29513928 25.6207551,8.78935271 L22.2106268,5.37924281 C21.704967,4.87358573 20.8850342,4.87358573 20.3792449,5.37924281 C19.873585,5.88489989 19.873585,6.70482835 20.3792449,7.21061491 L23.7895026,10.6207248" id="Fill-10" fill="#FFFFFF"></path>
                        <path d="M19.5,50 C20.2055442,50 20.7774655,49.4134119 20.7774655,48.6897743 L20.7774655,41.6204514 L21.7225345,41.6204514 C22.4280787,41.6204514 23,41.0338634 23,40.3102257 C23,39.5865881 22.4280787,39 21.7225345,39 L17.2774655,39 C16.5719213,39 16,39.5865881 16,40.3102257 C16,41.0338634 16.5719213,41.6204514 17.2774655,41.6204514 L18.2225345,41.6204514 L18.2225345,48.6897743 C18.2225345,49.4134119 18.7944558,50 19.5,50" id="Fill-11" fill="#FFFFFF"></path>
                        <path d="M28.9912681,45.4266694 L30,43.3123576 L31.0087319,45.4266694 L28.9912681,45.4266694 Z M30,39 C29.4462536,39 28.9468257,39.2907328 28.7339413,39.737194 L25.1058533,47.3409302 C24.8145089,47.9516249 25.1452205,48.6530014 25.8445019,48.9074376 C26.5436461,49.1621133 27.3469006,48.8731773 27.638245,48.2624826 L27.8481117,47.8226099 L32.1518883,47.8226099 L32.361755,48.2624826 C32.5813606,48.7226 33.0912133,49.000036 33.6284995,48.9999163 C33.8043486,48.9999163 33.9830782,48.9702081 34.1554981,48.9074376 C34.8547795,48.6530014 35.1854911,47.9516249 34.8941467,47.3409302 L31.2660587,39.737194 C31.0531743,39.2907328 30.5537464,39 30,39 Z" id="Fill-12" fill="#FFFFFF"></path>
                        <path d="M42.6131984,39.5958543 L41,42.0980244 L39.3868016,39.5958543 C38.9959003,38.9895613 38.1917678,38.8176255 37.5906807,39.2119124 C36.9895936,39.6061993 36.8192639,40.4172963 37.2100355,41.0235893 L39.4513244,44.5000186 L37.2100355,47.9764479 C36.8191341,48.5827409 36.9895936,49.3938379 37.5906807,49.7881248 C37.809305,49.9315138 38.0546732,50 38.2971852,50 C38.7218409,50 39.138058,49.790089 39.3868016,49.4043138 L41,46.9021438 L42.6131984,49.4043138 C42.8620718,49.79022 43.2781591,50 43.7028148,50 C43.9454566,50 44.1908248,49.9315138 44.4093193,49.7881248 C45.0104064,49.3938379 45.1807361,48.5827409 44.7899645,47.9764479 L42.5486756,44.5000186 L44.7899645,41.0235893 C45.1808659,40.4172963 45.0104064,39.6061993 44.4093193,39.2119124 C43.8081024,38.8174945 43.0039699,38.9895613 42.6131984,39.5958543" id="Fill-13" fill="#FFFFFF"></path>
                    </g>
                </g>
            </g>
        </g>
    </g>
</svg>