<?xml version="1.0" encoding="UTF-8"?>
<svg width="136px" height="135px" viewBox="0 0 136 135" version="1.1" xmlns="http://www.w3.org/2000/svg" xmlns:xlink="http://www.w3.org/1999/xlink">
    <!-- Generator: Sketch 52.3 (67297) - http://www.bohemiancoding.com/sketch -->
    <title>Group 13</title>
    <desc>Created with Sketch.</desc>
    <g id="City-Vision-and-Goal-" stroke="none" stroke-width="1" fill="none" fill-rule="evenodd">
        <g transform="translate(-1272.000000, -2411.000000)" fill="#FFFFFF" id="Group-15">
            <g transform="translate(1156.000000, 2311.000000)">
                <g id="Group-11-Copy-2">
                    <g id="Group-13" transform="translate(116.000000, 100.000000)">
                        <path d="M126.319136,114.75 L52.7338507,114.75 L48.7883195,105.750088 L130.265464,105.750088 L126.319136,114.75 Z M120.123948,128.25 C120.12262,129.492158 119.108548,130.498857 117.857293,130.499912 L113.324514,130.499912 C112.073259,130.498857 111.059187,129.492158 111.057859,128.25 L111.057859,119.250088 L120.123948,119.250088 L120.123948,128.25 Z M106.52508,119.250088 L106.52508,128.25 C106.532782,129.01834 106.674083,129.779561 106.942873,130.499912 L72.110114,130.499912 C72.3789041,129.779561 72.5202049,129.01834 72.5279074,128.25 L72.5279074,119.250088 L106.52508,119.250088 Z M61.1954281,130.499912 C59.9444384,130.49833 58.9306321,129.491895 58.9290385,128.25 L58.9290385,119.250088 L67.9948625,119.250088 L67.9948625,128.25 C67.9932689,129.491895 66.9794626,130.49833 65.7284729,130.499912 L61.1954281,130.499912 Z M13.5993871,130.499912 L13.5993871,89.9999121 C13.6009807,88.7580176 14.614787,87.751582 15.8657767,87.75 L20.3988215,87.75 C21.6498112,87.751582 22.6636175,88.7580176 22.6652111,89.9999121 L22.6652111,130.499912 L13.5993871,130.499912 Z M99.7256451,101.25 L79.3273418,101.25 L79.3273418,96.7499121 C79.3289354,95.5080176 80.3427417,94.501582 81.5937314,94.5 L97.4589899,94.5 C98.7102452,94.501582 99.7240515,95.5080176 99.7256451,96.7499121 L99.7256451,101.25 Z M47.5965593,11.2500879 C47.3402524,7.81365234 49.9086326,4.80858398 53.36572,4.50008789 L125.685939,4.50008789 C129.143292,4.80858398 131.712203,7.81338867 131.456162,11.2500879 L131.456162,101.25 L104.258424,101.25 L104.258424,96.7499121 C104.25444,93.0237012 101.21249,90.0041309 97.4589899,89.9999121 L81.5937314,89.9999121 C77.8402311,90.0041309 74.798281,93.0237012 74.794297,96.7499121 L74.794297,101.25 L47.5965593,101.25 L47.5965593,11.2500879 Z M4.53356306,27 C4.53356306,19.5441504 10.6219785,13.5 18.1324319,13.5 C25.6428853,13.5 31.7313008,19.5441504 31.7313008,27 C31.7313008,34.4558496 25.6428853,40.5 18.1324319,40.5 C10.6251657,40.4918262 4.54153114,34.4524219 4.53356306,27 Z M125.685939,0 L53.36572,0 C47.4008099,0.302167969 42.7997707,5.32669922 43.0635144,11.2500879 L43.0635144,103.499912 C43.0635144,103.533662 43.0813098,103.561611 43.0829034,103.595098 C43.0903403,103.849277 43.1413361,104.100293 43.2340315,104.337598 L43.2481085,104.384795 L43.2518269,104.397451 L48.6159432,116.634199 C49.2717168,118.196982 50.7991991,119.224512 52.5046354,119.250088 L54.3959937,119.250088 L54.3959937,128.25 C54.4036962,129.01834 54.5449969,129.779561 54.8137871,130.499912 L27.198256,130.499912 L27.198256,89.9999121 C27.1942719,86.2737012 24.1523218,83.2541309 20.3988215,83.2499121 L20.3988215,44.8437305 C29.8967815,43.6558887 36.827955,35.3425781 36.2284892,25.8577734 C35.6290234,16.3729688 27.7052919,8.98488281 18.1324319,8.98488281 C8.55930632,8.98488281 0.635574785,16.3729688 0.0361090231,25.8577734 C-0.563356739,35.3425781 6.36781673,43.6558887 15.8657767,44.8437305 L15.8657767,83.2499121 C12.1122764,83.2541309 9.07059192,86.2737012 9.06634227,89.9999121 L9.06634227,130.499912 L2.26690784,130.499912 C1.01512134,130.499912 0.000518233537,131.507402 0.000518233537,132.750088 C0.000518233537,133.992773 1.01512134,135 2.26690784,135 L133.722817,135 C134.974338,135 135.989207,133.992773 135.989207,132.750088 C135.989207,131.507402 134.974338,130.499912 133.722817,130.499912 L124.2392,130.499912 C124.50799,129.779561 124.649291,129.01834 124.656728,128.25 L124.656728,119.250088 L126.547024,119.250088 C128.251663,119.224248 129.778614,118.197773 130.435981,116.636309 L135.80116,104.397715 L135.804613,104.385586 C135.811519,104.369502 135.813112,104.351836 135.819487,104.335752 C135.912448,104.09792 135.963709,103.846113 135.970615,103.591143 C135.971943,103.558975 135.989207,103.532344 135.989207,103.499912 L135.989207,11.2500879 C136.252951,5.32643555 131.651115,0.301904297 125.685939,0 Z" id="Fill-1"></path>
                        <path d="M54.545277,15.285633 C54.546875,13.9451903 55.5634766,12.8588911 56.8181818,12.8571835 L118.181818,12.8571835 C119.436523,12.8586065 120.453125,13.9449057 120.454457,15.285633 L120.454457,17.714367 C120.453125,19.0550943 119.436523,20.1413935 118.181818,20.1428165 L56.8181818,20.1428165 C55.5634766,20.1411089 54.546875,19.0548097 54.545277,17.714367 L54.545277,15.285633 Z M56.8181818,25 L118.181818,25 C121.945668,24.9954465 124.995739,21.7362641 125,17.714367 L125,15.285633 C124.995739,11.2637359 121.945668,8.00455352 118.181818,8 L56.8181818,8 C53.0543324,8.00455352 50.003995,11.2637359 50,15.285633 L50,17.714367 C50.003995,21.7362641 53.0543324,24.9954465 56.8181818,25 Z" id="Fill-4"></path>
                        <path d="M60.5,84.2498755 C62.8473178,84.2498755 64.7501245,86.1526822 64.7501245,88.5 C64.7501245,90.8473178 62.8473178,92.7501245 60.5,92.7501245 C58.1526822,92.7501245 56.2498755,90.8473178 56.2498755,88.5 C56.2523657,86.1536783 58.1536783,84.2523657 60.5,84.2498755 Z M60.5,97 C65.1943867,97 69,93.1943867 69,88.5 C69,83.8056133 65.1943867,80 60.5,80 C55.8056133,80 52,83.8056133 52,88.5 C52.0052295,93.1921454 55.8078546,96.9947705 60.5,97 Z" id="Fill-5"></path>
                        <path d="M115.499875,92.7501245 C113.152841,92.7501245 111.250062,90.8473178 111.250062,88.5 C111.250062,86.1526822 113.152841,84.2498755 115.499875,84.2498755 C117.847159,84.2498755 119.749938,86.1526822 119.749938,88.5 C119.747199,90.8460727 117.846163,92.7473852 115.499875,92.7501245 Z M115.499875,80 C110.805558,80 107,83.8056133 107,88.5 C107,93.1943867 110.805558,97 115.499875,97 C120.194442,97 124,93.1943867 124,88.5 C123.99502,83.8076055 120.192201,80.0049805 115.499875,80 Z" id="Fill-6"></path>
                        <path d="M54.545277,35.7499868 C54.546875,34.5080947 55.5634766,33.5016611 56.8181818,33.5000791 L118.181818,33.5000791 C119.436523,33.5013975 120.453125,34.507831 120.454457,35.7499868 L120.454457,67.2500132 C120.453125,68.492169 119.436523,69.4988662 118.181818,69.4999209 L56.8181818,69.4999209 C55.5634766,69.4983389 54.546875,68.4919053 54.545277,67.2500132 L54.545277,35.7499868 Z M56.8181818,74 L118.181818,74 C121.945668,73.9960449 124.995739,70.9762168 125,67.2500132 L125,35.7499868 C124.995739,32.0237832 121.945668,29.0042187 118.181818,29 L56.8181818,29 C53.0543324,29.0042187 50.003995,32.0237832 50,35.7499868 L50,67.2500132 C50.003995,70.9762168 53.0543324,73.9960449 56.8181818,74 Z" id="Fill-7"></path>
                    </g>
                </g>
            </g>
        </g>
    </g>
</svg>