<?xml version="1.0" encoding="UTF-8"?>
<svg width="128px" height="128px" viewBox="0 0 128 128" version="1.1" xmlns="http://www.w3.org/2000/svg" xmlns:xlink="http://www.w3.org/1999/xlink">
    <!-- Generator: Sketch 52.2 (67145) - http://www.bohemiancoding.com/sketch -->
    <title>sachal</title>
    <desc>Created with Sketch.</desc>
    <defs>
        <linearGradient x1="26.5304703%" y1="34.6150233%" x2="123.166088%" y2="103.979824%" id="linearGradient-1">
            <stop stop-color="#123ECF" offset="0%"></stop>
            <stop stop-color="#53C1FD" offset="47.5247532%"></stop>
            <stop stop-color="#A8E63C" offset="100%"></stop>
        </linearGradient>
    </defs>
    <g id="sachal" stroke="none" stroke-width="1" fill="none" fill-rule="evenodd">
        <g id="bus-stop" transform="translate(14.000000, 13.000000)" fill="url(#linearGradient-1)">
            <path d="M93.810535,85 L39.1626391,85 L36.232502,78.3333984 L96.7412639,78.3333984 L93.810535,85 Z M89.209697,95 C89.2087107,95.9201172 88.4556132,96.6658203 87.5263721,96.6666016 L84.160117,96.6666016 C83.2308759,96.6658203 82.4777784,95.9201172 82.4767922,95 L82.4767922,88.3333984 L89.209697,88.3333984 L89.209697,95 Z M79.110537,88.3333984 L79.110537,95 C79.1162572,95.5691406 79.2211938,96.1330078 79.42081,96.6666016 L53.5523641,96.6666016 C53.7519803,96.1330078 53.8569169,95.5691406 53.8626371,95 L53.8626371,88.3333984 L79.110537,88.3333984 Z M45.4466047,96.6666016 C44.5175609,96.6654297 43.7646606,95.9199219 43.7634771,95 L43.7634771,88.3333984 L50.4961847,88.3333984 L50.4961847,95 C50.4950012,95.9199219 49.7421009,96.6654297 48.8130571,96.6666016 L45.4466047,96.6666016 Z M10.0995448,96.6666016 L10.0995448,66.6666016 C10.1007283,65.7466797 10.8536286,65.0011719 11.7826724,65 L15.1491248,65 C16.0781686,65.0011719 16.8310689,65.7466797 16.8322524,66.6666016 L16.8322524,96.6666016 L10.0995448,96.6666016 Z M74.060957,75 L58.9122171,75 L58.9122171,71.6666016 C58.9134006,70.7466797 59.6663008,70.0011719 60.5953447,70 L72.3776322,70 C73.3068733,70.0011719 74.0597735,70.7466797 74.060957,71.6666016 L74.060957,75 Z M35.3474447,8.33339844 C35.1570992,5.78789063 37.0644992,3.56191406 39.631895,3.33339844 L93.3402928,3.33339844 C95.9078859,3.56191406 97.8156803,5.78769531 97.6255321,8.33339844 L97.6255321,75 L77.4272122,75 L77.4272122,71.6666016 C77.4242534,68.9064453 75.1651581,66.6697266 72.3776322,66.6666016 L60.5953447,66.6666016 C57.8078187,66.6697266 55.5487234,68.9064453 55.5457647,71.6666016 L55.5457647,75 L35.3474447,75 L35.3474447,8.33339844 Z M3.36683727,20 C3.36683727,14.4771484 7.88838109,10 13.4659972,10 C19.0436134,10 23.5651572,14.4771484 23.5651572,20 C23.5651572,25.5228516 19.0436134,30 13.4659972,30 C7.89074809,29.9939453 3.37275475,25.5203125 3.36683727,20 Z M93.3402928,0 L39.631895,0 C35.2020721,0.223828125 31.7851239,3.94570313 31.9809923,8.33339844 L31.9809923,76.6666016 C31.9809923,76.6916016 31.994208,76.7123047 31.9953915,76.7371094 C32.0009145,76.9253906 32.0387864,77.1113281 32.1076263,77.2871094 L32.1180805,77.3220703 L32.120842,77.3314453 L36.1044872,86.3957031 C36.5914956,87.5533203 37.7258758,88.3144531 38.992413,88.3333984 L40.3970247,88.3333984 L40.3970247,95 C40.4027449,95.5691406 40.5076815,96.1330078 40.7072977,96.6666016 L20.1987048,96.6666016 L20.1987048,66.6666016 C20.1957461,63.9064453 17.9366508,61.6697266 15.1491248,61.6666016 L15.1491248,33.2175781 C22.2027568,32.3376953 27.3501724,26.1796875 26.904981,19.1539063 C26.4597895,12.128125 20.5752536,6.65546875 13.4659972,6.65546875 C6.35654367,6.65546875 0.472007745,12.128125 0.0268162598,19.1539063 C-0.418375225,26.1796875 4.72904037,32.3376953 11.7826724,33.2175781 L11.7826724,61.6666016 C8.99514646,61.6697266 6.73624841,63.9064453 6.73309242,66.6666016 L6.73309242,96.6666016 L1.68351244,96.6666016 C0.753876878,96.6666016 0.000384864612,97.4128906 0.000384864612,98.3333984 C0.000384864612,99.2539063 0.753876878,100 1.68351244,100 L99.3088569,100 C100.238295,100 100.991985,99.2539063 100.991985,98.3333984 C100.991985,97.4128906 100.238295,96.6666016 99.3088569,96.6666016 L92.2658764,96.6666016 C92.4654926,96.1330078 92.5704291,95.5691406 92.5759521,95 L92.5759521,88.3333984 L93.9797748,88.3333984 C95.2457203,88.3142578 96.379706,87.5539063 96.8678979,86.3972656 L100.852332,77.3316406 L100.854896,77.3226563 C100.860025,77.3107422 100.861208,77.2976563 100.865942,77.2857422 C100.934979,77.1095703 100.973049,76.9230469 100.978177,76.7341797 C100.979163,76.7103516 100.991985,76.690625 100.991985,76.6666016 L100.991985,8.33339844 C101.187853,3.94550781 97.770313,0.223632812 93.3402928,0 Z" id="Fill-1"></path>
            <path d="M41.3938068,11.5713664 C41.395,10.546322 42.1540625,9.71562259 43.0909091,9.7143168 L88.9090909,9.7143168 C89.8459375,9.71540496 90.605,10.5461044 90.6059943,11.5713664 L90.6059943,13.4286336 C90.605,14.4538956 89.8459375,15.284595 88.9090909,15.2856832 L43.0909091,15.2856832 C42.1540625,15.2843774 41.395,14.453678 41.3938068,13.4286336 L41.3938068,11.5713664 Z M43.0909091,19 L88.9090909,19 C91.7194318,18.9965179 93.9968182,16.504202 94,13.4286336 L94,11.5713664 C93.9968182,8.49579804 91.7194318,6.0034821 88.9090909,6 L43.0909091,6 C40.2805682,6.0034821 38.002983,8.49579804 38,11.5713664 L38,13.4286336 C38.002983,16.504202 40.2805682,18.9965179 43.0909091,19 Z" id="Fill-4"></path>
            <path d="M44.5,61.2499048 C46.2950078,61.2499048 47.7500952,62.7049922 47.7500952,64.5 C47.7500952,66.2950078 46.2950078,67.7500952 44.5,67.7500952 C42.7049922,67.7500952 41.2499048,66.2950078 41.2499048,64.5 C41.2518091,62.705754 42.705754,61.2518091 44.5,61.2499048 Z M44.5,71 C48.0898251,71 51,68.0898251 51,64.5 C51,60.9101749 48.0898251,58 44.5,58 C40.9101749,58 38,60.9101749 38,64.5 C38.0039991,68.0881112 40.9118888,70.9960009 44.5,71 Z" id="Fill-5"></path>
            <path d="M85.4999048,67.7500952 C83.7051137,67.7500952 82.2500476,66.2950078 82.2500476,64.5 C82.2500476,62.7049922 83.7051137,61.2499048 85.4999048,61.2499048 C87.2948863,61.2499048 88.7499524,62.7049922 88.7499524,64.5 C88.7478577,66.2940556 87.2941245,67.7480005 85.4999048,67.7500952 Z M85.4999048,58 C81.9101323,58 79,60.9101749 79,64.5 C79,68.0898251 81.9101323,71 85.4999048,71 C89.0898677,71 92,68.0898251 92,64.5 C91.9961914,60.9116984 89.0881539,58.0038086 85.4999048,58 Z" id="Fill-6"></path>
            <path d="M41.3938068,26.9499903 C41.395,26.0392695 42.1540625,25.3012182 43.0909091,25.300058 L88.9090909,25.300058 C89.8459375,25.3010248 90.605,26.0390761 90.6059943,26.9499903 L90.6059943,50.0500097 C90.605,50.9609239 89.8459375,51.6991686 88.9090909,51.699942 L43.0909091,51.699942 C42.1540625,51.6987818 41.395,50.9607305 41.3938068,50.0500097 L41.3938068,26.9499903 Z M43.0909091,55 L88.9090909,55 C91.7194318,54.9970996 93.9968182,52.782559 94,50.0500097 L94,26.9499903 C93.9968182,24.217441 91.7194318,22.0030937 88.9090909,22 L43.0909091,22 C40.2805682,22.0030937 38.002983,24.217441 38,26.9499903 L38,50.0500097 C38.002983,52.782559 40.2805682,54.9970996 43.0909091,55 Z" id="Fill-7"></path>
        </g>
    </g>
</svg>