<?xml version="1.0" encoding="UTF-8"?>
<svg width="115px" height="115px" viewBox="0 0 115 115" version="1.1" xmlns="http://www.w3.org/2000/svg" xmlns:xlink="http://www.w3.org/1999/xlink">
    <!-- Generator: Sketch 52.3 (67297) - http://www.bohemiancoding.com/sketch -->
    <title>working</title>
    <desc>Created with Sketch.</desc>
    <g id="City-Vision-and-Goal-" stroke="none" stroke-width="1" fill="none" fill-rule="evenodd">
        <g transform="translate(-903.000000, -2838.000000)" fill="#F4F6ED" id="Group-14">
            <g transform="translate(806.000000, 2770.000000)">
                <g id="Group-11-Copy">
                    <g id="working" transform="translate(97.000000, 68.000000)">
                        <path d="M59.3157422,4.23680664 C59.3157422,3.90303711 59.5872949,3.63148437 59.9210645,3.63148437 L64.7631934,3.63148437 C65.0969629,3.63148437 65.3685156,3.90303711 65.3685156,4.23680664 L65.3685156,9.07893555 C65.3685156,9.41270508 65.0969629,9.68425781 64.7631934,9.68425781 L59.9210645,9.68425781 C59.5872949,9.68425781 59.3157422,9.41270508 59.3157422,9.07893555 L59.3157422,4.23680664 Z M59.9210645,13.3157422 L64.7631934,13.3157422 C67.0991309,13.3157422 69,11.4150977 69,9.07893555 L69,4.23680664 C69,1.90086914 67.0991309,0 64.7631934,0 L59.9210645,0 C57.5849023,0 55.6842578,1.90086914 55.6842578,4.23680664 L55.6842578,9.07893555 C55.6842578,11.4150977 57.5849023,13.3157422 59.9210645,13.3157422 Z M104.105322,98.6578711 C104.105322,100.326719 102.747783,101.684258 101.078936,101.684258 L84.3273438,101.684258 L83.6919238,83.8940723 C83.5636719,80.2940332 80.6408301,77.4736133 77.0383203,77.4736133 C76.0354395,77.4736133 75.2225781,78.2864746 75.2225781,79.2893555 C75.2225781,80.2924609 76.0354395,81.1053223 77.0383203,81.1053223 C78.6759473,81.1053223 80.0045117,82.387168 80.0626855,84.0236719 L81.0395117,111.368516 L65.4345508,111.368516 L66.4111523,84.0236719 C66.4695508,82.387168 67.7981152,81.1053223 69.4355176,81.1053223 C70.438623,81.1053223 71.2512598,80.2924609 71.2512598,79.2895801 C71.2512598,78.2864746 70.438623,77.4736133 69.4355176,77.4736133 C65.8327832,77.4736133 62.9103906,80.2938086 62.7819141,83.8940723 L62.1462695,101.684258 L45.3946777,101.684258 C43.7258301,101.684258 42.3685156,100.326719 42.3685156,98.6578711 L42.3685156,55.0789355 C42.3685156,53.4100879 43.7258301,52.0525488 45.3946777,52.0525488 L101.078936,52.0525488 C102.747783,52.0525488 104.105322,53.4100879 104.105322,55.0789355 L104.105322,98.6578711 Z M27.2368066,89.5789355 L22.3946777,89.5789355 C20.2640332,89.5789355 18.4956836,87.9979102 18.2009961,85.9474512 L23.6053223,85.9474512 C26.3466797,85.9474512 28.7062012,84.281748 29.7257031,81.909873 C30.7993359,82.6883691 31.4736133,83.9504492 31.4736133,85.3421289 C31.4736133,87.6780664 29.5729687,89.5789355 27.2368066,89.5789355 Z M113.184258,79.8946777 L107.736807,79.8946777 L107.736807,55.0789355 C107.736807,51.4079199 104.749951,48.4210645 101.078936,48.4210645 L45.3946777,48.4210645 C41.7234375,48.4210645 38.7368066,51.4079199 38.7368066,55.0789355 L38.7368066,79.8946777 L32.9194238,79.8946777 C32.1514844,79.0928223 31.2096973,78.4497656 30.143252,78.0272754 C29.5518555,74.9575391 26.8450879,72.6314844 23.6053223,72.6314844 L13.3157422,72.6314844 L13.3157422,57.5 C13.3157422,56.4968945 12.5028809,55.6842578 11.5,55.6842578 C10.4971191,55.6842578 9.68425781,56.4968945 9.68425781,57.5 L9.68425781,74.4474512 C9.68425781,75.450332 10.4971191,76.2631934 11.5,76.2631934 L23.6053223,76.2631934 C25.2741699,76.2631934 26.6314844,77.6207324 26.6314844,79.2893555 C26.6314844,80.9582031 25.2741699,82.3157422 23.6053223,82.3157422 L6.65787109,82.3157422 C4.98902344,82.3157422 3.63148438,80.9582031 3.63148438,79.2893555 L3.63148438,52.6578711 C3.63148438,45.6493848 9.33341797,39.9474512 16.3421289,39.9474512 L30.8685156,39.9474512 C34.6125293,39.9474512 38.1494531,41.5877734 40.5723145,44.4483984 C41.2203125,45.2129688 42.3662695,45.308877 43.1312891,44.6602051 C43.8965332,44.0119824 43.991543,42.8664746 43.3433203,42.1012305 C40.2293359,38.4245996 35.6823438,36.3157422 30.8685156,36.3157422 L16.3421289,36.3157422 C7.33102539,36.3157422 0,43.6467676 0,52.6578711 L0,79.2893555 C0,82.9605957 2.98663086,85.9474512 6.65787109,85.9474512 L14.5492969,85.9474512 C14.8594824,90.0043457 18.2596191,93.2104199 22.3946777,93.2104199 L27.2368066,93.2104199 C31.5753613,93.2104199 35.1053223,89.6809082 35.1053223,85.3421289 C35.1053223,84.7199609 35.0325488,84.1114941 34.8944141,83.5263867 L38.7368066,83.5263867 L38.7368066,98.6578711 C38.7368066,102.328887 41.7234375,105.315742 45.3946777,105.315742 L62.0166699,105.315742 L61.8003711,111.368516 L53.8685156,111.368516 C52.8656348,111.368516 52.0525488,112.181152 52.0525488,113.184258 C52.0525488,114.187363 52.8656348,115 53.8685156,115 L63.5444629,115 C63.5509766,115 63.5572656,115 63.5628809,115 L82.910957,115 C82.913877,115 82.9167969,115 82.9199414,115 C82.9230859,115 82.9257813,115 82.9289258,115 L92.6053223,115 C93.6082031,115 94.4210645,114.187363 94.4210645,113.184258 C94.4210645,112.181152 93.6082031,111.368516 92.6053223,111.368516 L84.6732422,111.368516 L84.4567188,105.315742 L101.078936,105.315742 C104.749951,105.315742 107.736807,102.328887 107.736807,98.6578711 L107.736807,83.5263867 L113.184258,83.5263867 C114.187363,83.5263867 115,82.7135254 115,81.7104199 C115,80.7075391 114.187363,79.8946777 113.184258,79.8946777 Z M23.6053223,13.3157422 C27.943877,13.3157422 31.4736133,16.8454785 31.4736133,21.1842578 C31.4736133,25.5230371 27.943877,29.0525488 23.6053223,29.0525488 C19.2667676,29.0525488 15.7368066,25.5230371 15.7368066,21.1842578 C15.7368066,16.8454785 19.2667676,13.3157422 23.6053223,13.3157422 Z M23.6053223,32.6842578 C29.9462695,32.6842578 35.1053223,27.5252051 35.1053223,21.1842578 C35.1053223,14.8433105 29.9462695,9.68425781 23.6053223,9.68425781 C17.264375,9.68425781 12.1053223,14.8433105 12.1053223,21.1842578 C12.1053223,27.5252051 17.264375,32.6842578 23.6053223,32.6842578 Z M69.6053223,24.2104199 L79.2893555,24.2104199 C81.6255176,24.2104199 83.5263867,26.1112891 83.5263867,28.4474512 L83.5263867,38.1314844 C83.5263867,40.4676465 81.6255176,42.3685156 79.2893555,42.3685156 L69.6053223,42.3685156 C67.2691602,42.3685156 65.3685156,40.4676465 65.3685156,38.1314844 L65.3685156,35.7104199 C65.3685156,34.7075391 66.1811523,33.8946777 67.1842578,33.8946777 C68.1873633,33.8946777 69,34.7075391 69,35.7104199 L69,38.1314844 C69,38.4654785 69.2713281,38.7368066 69.6053223,38.7368066 L79.2893555,38.7368066 C79.6233496,38.7368066 79.8946777,38.4654785 79.8946777,38.1314844 L79.8946777,28.4474512 C79.8946777,28.113457 79.6233496,27.8421289 79.2893555,27.8421289 L69.6053223,27.8421289 C69.2713281,27.8421289 69,28.113457 69,28.4474512 C69,29.450332 68.1873633,30.2631934 67.1842578,30.2631934 C66.1811523,30.2631934 65.3685156,29.450332 65.3685156,28.4474512 C65.3685156,26.1112891 67.2691602,24.2104199 69.6053223,24.2104199 Z M95.6314844,13.9210645 C95.6314844,13.5870703 95.9030371,13.3157422 96.2368066,13.3157422 L103.5,13.3157422 C103.83377,13.3157422 104.105322,13.5870703 104.105322,13.9210645 L104.105322,21.1842578 C104.105322,21.5180273 103.83377,21.7893555 103.5,21.7893555 L96.2368066,21.7893555 C95.9030371,21.7893555 95.6314844,21.5180273 95.6314844,21.1842578 L95.6314844,13.9210645 Z M96.2368066,25.4210645 L103.5,25.4210645 C105.836162,25.4210645 107.736807,23.5201953 107.736807,21.1842578 L107.736807,13.9210645 C107.736807,11.5849023 105.836162,9.68425781 103.5,9.68425781 L96.2368066,9.68425781 C93.9008691,9.68425781 92,11.5849023 92,13.9210645 L92,21.1842578 C92,23.5201953 93.9008691,25.4210645 96.2368066,25.4210645 Z" id="Fill-1"></path>
                    </g>
                </g>
            </g>
        </g>
    </g>
</svg>