<?xml version="1.0" encoding="UTF-8"?>
<svg width="128px" height="128px" viewBox="0 0 128 128" version="1.1" xmlns="http://www.w3.org/2000/svg" xmlns:xlink="http://www.w3.org/1999/xlink">
    <!-- Generator: Sketch 52.2 (67145) - http://www.bohemiancoding.com/sketch -->
    <title>sakriya</title>
    <desc>Created with Sketch.</desc>
    <defs>
        <linearGradient x1="26.5304703%" y1="34.6150233%" x2="104.796886%" y2="73.4800846%" id="linearGradient-1">
            <stop stop-color="#123ECF" offset="0%"></stop>
            <stop stop-color="#53C1FD" offset="47.5247532%"></stop>
            <stop stop-color="#A8E63C" offset="100%"></stop>
        </linearGradient>
    </defs>
    <g id="sakriya" stroke="none" stroke-width="1" fill="none" fill-rule="evenodd">
        <path d="M65,13.6000445 C65,13.2691851 65.2691851,13 65.6000445,13 L70.3999555,13 C70.7308149,13 71,13.2691851 71,13.6000445 L71,18.3999555 C71,18.7308149 70.7308149,19 70.3999555,19 L65.6000445,19 C65.2691851,19 65,18.7308149 65,18.3999555 L65,13.6000445 Z M65.8181634,23 L70.1818366,23 C72.2869577,23 74,21.2871601 74,19.1818366 L74,14.8181634 C74,12.7130423 72.2869577,11 70.1818366,11 L65.8181634,11 C63.7128399,11 62,12.7130423 62,14.8181634 L62,19.1818366 C62,21.2871601 63.7128399,23 65.8181634,23 Z M106,100.428498 C106,101.947782 104.768608,103.183657 103.254836,103.183657 L88.0598625,103.183657 L87.4834881,86.9878486 C87.3671538,83.7104493 84.715913,81.1427987 81.4481614,81.1427987 C80.5384719,81.1427987 79.8011446,81.8828105 79.8011446,82.795812 C79.8011446,83.7090179 80.5384719,84.4490297 81.4481614,84.4490297 C82.9336142,84.4490297 84.1387237,85.6159949 84.1914918,87.1058333 L85.0775477,112 L70.922656,112 L71.8085082,87.1058333 C71.8614801,85.6159949 73.0665895,84.4490297 74.5518386,84.4490297 C75.4617318,84.4490297 76.1988554,83.7090179 76.1988554,82.7960164 C76.1988554,81.8828105 75.4617318,81.1427987 74.5518386,81.1427987 C71.2838832,81.1427987 68.6330499,83.7102448 68.5165119,86.9878486 L67.9399337,103.183657 L52.7449602,103.183657 C51.2311879,103.183657 50,101.947782 50,100.428498 L50,60.7551584 C50,59.2358748 51.2311879,58 52.7449602,58 L103.254836,58 C104.768608,58 106,59.2358748 106,60.7551584 L106,100.428498 Z M36.1694307,93 L31.7915792,93 C29.8652271,93 28.266432,91.556906 28,89.6853327 L32.8861436,89.6853327 C35.3646517,89.6853327 37.4979354,88.1649485 38.4196846,86 C39.3903743,86.7105787 40,87.8625527 40,89.1328198 C40,91.264966 38.2815948,93 36.1694307,93 Z M114.342148,83.8768883 L109.368389,83.8768883 L109.368389,61.1692529 C109.368389,57.8100915 106.64126,55.0769705 103.289463,55.0769705 L52.4473145,55.0769705 C49.0953125,55.0769705 46.3683887,57.8100915 46.3683887,61.1692529 L46.3683887,83.8768883 L41.0568652,83.8768883 C40.3557031,83.1431508 39.4958105,82.554722 38.5220996,82.1681225 C37.9821289,79.3591614 35.5107324,77.230706 32.5526855,77.230706 L23.1578516,77.230706 L23.1578516,63.384647 C23.1578516,62.4667557 22.4156738,61.7231528 21.5,61.7231528 C20.5843262,61.7231528 19.8421484,62.4667557 19.8421484,63.384647 L19.8421484,78.8924057 C19.8421484,79.8100915 20.5843262,80.5538999 21.5,80.5538999 L32.5526855,80.5538999 C34.076416,80.5538999 35.3157031,81.7961155 35.3157031,83.3229884 C35.3157031,84.8500668 34.076416,86.0922824 32.5526855,86.0922824 L17.0789258,86.0922824 C15.5551953,86.0922824 14.3157031,84.8500668 14.3157031,83.3229884 L14.3157031,58.9538588 C14.3157031,52.5407461 19.5218164,47.3231939 25.9210742,47.3231939 L39.1842969,47.3231939 C42.6027441,47.3231939 45.8321094,48.8241702 48.0442871,51.441784 C48.6359375,52.1414038 49.6822461,52.2291645 50.3807422,51.6355976 C51.0794434,51.0424417 51.1661914,49.9942452 50.5743359,49.2940088 C47.7311328,45.9297092 43.5795313,44 39.1842969,44 L25.9210742,44 C17.6935449,44 11,50.708252 11,58.9538588 L11,83.3229884 C11,86.6823554 13.7269238,89.4154763 17.0789258,89.4154763 L24.2841406,89.4154763 C24.5673535,93.1277361 27.6718262,96.0614531 31.4473145,96.0614531 L35.8683887,96.0614531 C39.8296777,96.0614531 43.0526855,92.8317747 43.0526855,88.8615764 C43.0526855,88.2922618 42.9862402,87.7354845 42.8601172,87.2000822 L46.3683887,87.2000822 L46.3683887,101.046141 C46.3683887,104.405303 49.0953125,107.138424 52.4473145,107.138424 L67.623916,107.138424 L67.4264258,112.677012 L60.1842969,112.677012 C59.268623,112.677012 58.5262402,113.420615 58.5262402,114.338506 C58.5262402,115.256397 59.268623,116 60.1842969,116 L69.0188574,116 C69.0248047,116 69.0305469,116 69.0356738,116 L86.7013086,116 C86.7039746,116 86.7066406,116 86.7095117,116 C86.7123828,116 86.7148438,116 86.7177148,116 L95.5526855,116 C96.4683594,116 97.2105371,115.256397 97.2105371,114.338506 C97.2105371,113.420615 96.4683594,112.677012 95.5526855,112.677012 L88.3103516,112.677012 L88.1126563,107.138424 L103.289463,107.138424 C106.64126,107.138424 109.368389,104.405303 109.368389,101.046141 L109.368389,87.2000822 L114.342148,87.2000822 C115.258027,87.2000822 116,86.4562738 116,85.5383825 C116,84.6206967 115.258027,83.8768883 114.342148,83.8768883 Z M32.500107,23 C36.635528,23 40,26.364472 40,30.500107 C40,34.6357421 36.635528,38 32.500107,38 C28.3646861,38 25,34.6357421 25,30.500107 C25,26.364472 28.3646861,23 32.500107,23 Z M32.5,40 C38.2895605,40 43,35.2895605 43,29.5 C43,23.7104395 38.2895605,19 32.5,19 C26.7104395,19 22,23.7104395 22,29.5 C22,35.2895605 26.7104395,40 32.5,40 Z M74.9666386,33 L84.0331511,33 C86.2203434,33 88,34.7796346 88,36.9667998 L88,46.0332002 C88,48.2203654 86.2203434,50 84.0331511,50 L74.9666386,50 C72.7794463,50 71,48.2203654 71,46.0332002 L71,43.7665475 C71,42.8276289 71.7608174,42.0666106 72.6999579,42.0666106 C73.6390985,42.0666106 74.3999159,42.8276289 74.3999159,43.7665475 L74.3999159,46.0332002 C74.3999159,46.3458927 74.6539423,46.5999159 74.9666386,46.5999159 L84.0331511,46.5999159 C84.3458475,46.5999159 84.5998738,46.3458927 84.5998738,46.0332002 L84.5998738,36.9667998 C84.5998738,36.6541073 84.3458475,36.4000841 84.0331511,36.4000841 L74.9666386,36.4000841 C74.6539423,36.4000841 74.3999159,36.6541073 74.3999159,36.9667998 C74.3999159,37.9057185 73.6390985,38.6667368 72.6999579,38.6667368 C71.7608174,38.6667368 71,37.9057185 71,36.9667998 C71,34.7796346 72.7794463,33 74.9666386,33 Z M99,23.500053 C99,23.2241425 99.2243221,23 99.5000398,23 L105.49996,23 C105.775678,23 106,23.2241425 106,23.500053 L106,29.5001325 C106,29.7758575 105.775678,30 105.49996,30 L99.5000398,30 C99.2243221,30 99,29.7758575 99,29.5001325 L99,23.500053 Z M99.0384368,34 L105.961563,34 C108.188345,34 110,32.1881307 110,29.9615632 L110,23.0384368 C110,20.8116552 108.188345,19 105.961563,19 L99.0384368,19 C96.8118693,19 95,20.8116552 95,23.0384368 L95,29.9615632 C95,32.1881307 96.8118693,34 99.0384368,34 Z" id="Fill-1" fill="url(#linearGradient-1)"></path>
    </g>
</svg>