<?xml version="1.0" encoding="UTF-8"?>
<svg width="128px" height="128px" viewBox="0 0 128 128" version="1.1" xmlns="http://www.w3.org/2000/svg" xmlns:xlink="http://www.w3.org/1999/xlink">
    <!-- Generator: Sketch 52.2 (67145) - http://www.bohemiancoding.com/sketch -->
    <title>sampann</title>
    <desc>Created with Sketch.</desc>
    <defs>
        <linearGradient x1="26.5304703%" y1="34.6150233%" x2="97.0599578%" y2="27.3208803%" id="linearGradient-1">
            <stop stop-color="#123ECF" offset="0%"></stop>
            <stop stop-color="#53C1FD" offset="47.5247532%"></stop>
            <stop stop-color="#A8E63C" offset="100%"></stop>
        </linearGradient>
    </defs>
    <g id="sampann" stroke="none" stroke-width="1" fill="none" fill-rule="evenodd">
        <g id="Group-12" transform="translate(17.000000, 17.000000)" fill="url(#linearGradient-1)">
            <g id="cityscape-(1)">
                <path d="M60.365651,62.3784806 C60.365651,61.4280663 59.7508275,60.6558704 58.9933024,60.6558704 C58.2363802,60.6558704 57.6217577,61.4280663 57.6217577,62.3784806 L57.6217577,65.8259728 C57.6217577,66.7763871 58.2363802,67.548583 58.9933024,67.548583 C59.7508275,67.548583 60.365651,66.7763871 60.365651,65.8259728 L60.365651,62.3784806 Z" id="Fill-1"></path>
                <path d="M58.9933024,79.9554656 C58.2363802,79.9554656 57.6217577,80.6761201 57.6217577,81.56404 L57.6217577,87.9966887 C57.6217577,88.8846086 58.2363802,89.6052632 58.9933024,89.6052632 C59.7508275,89.6052632 60.365651,88.8846086 60.365651,87.9966887 L60.365651,81.56404 C60.365651,80.6761201 59.7508275,79.9554656 58.9933024,79.9554656 Z" id="Fill-2"></path>
                <path d="M65.8534374,43.0796427 C65.8534374,42.128358 65.238659,41.3562753 64.4819932,41.3562753 C63.7243226,41.3562753 63.1095442,42.128358 63.1095442,43.0796427 L63.1095442,46.5256204 C63.1095442,47.4769051 63.7243226,48.2489879 64.4819932,48.2489879 C65.238659,48.2489879 65.8534374,47.4769051 65.8534374,46.5256204 L65.8534374,43.0796427 Z" id="Fill-3"></path>
                <path d="M60.365651,51.3508978 C60.365651,50.3996131 59.7508275,49.6275304 58.9933024,49.6275304 C58.2363802,49.6275304 57.6217577,50.3996131 57.6217577,51.3508978 L57.6217577,54.7968755 C57.6217577,55.7481602 58.2363802,56.5202429 58.9933024,56.5202429 C59.7508275,56.5202429 60.365651,55.7481602 60.365651,54.7968755 L60.365651,51.3508978 Z" id="Fill-4"></path>
                <path d="M60.365651,72.0282782 C60.365651,71.0778639 59.7508275,70.305668 58.9933024,70.305668 C58.2363802,70.305668 57.6217577,71.0778639 57.6217577,72.0282782 L57.6217577,75.475518 C57.6217577,76.4261847 58.2363802,77.1983806 58.9933024,77.1983806 C59.7508275,77.1983806 60.365651,76.4261847 60.365651,75.475518 L60.365651,72.0282782 Z" id="Fill-5"></path>
                <path d="M65.8534374,51.3508978 C65.8534374,50.3996131 65.238659,49.6275304 64.4819932,49.6275304 C63.7243226,49.6275304 63.1095442,50.3996131 63.1095442,51.3508978 L63.1095442,54.7968755 C63.1095442,55.7481602 63.7243226,56.5202429 64.4819932,56.5202429 C65.238659,56.5202429 65.8534374,55.7481602 65.8534374,54.7968755 L65.8534374,51.3508978 Z" id="Fill-6"></path>
                <path d="M52.1339713,43.0796427 C52.1339713,42.128358 51.5193489,41.3562753 50.7624267,41.3562753 C50.0049015,41.3562753 49.3900781,42.128358 49.3900781,43.0796427 L49.3900781,46.5256204 C49.3900781,47.4769051 50.0049015,48.2489879 50.7624267,48.2489879 C51.5193489,48.2489879 52.1339713,47.4769051 52.1339713,46.5256204 L52.1339713,43.0796427 Z" id="Fill-7"></path>
                <path d="M60.365651,43.0796427 C60.365651,42.128358 59.7508275,41.3562753 58.9933024,41.3562753 C58.2363802,41.3562753 57.6217577,42.128358 57.6217577,43.0796427 L57.6217577,46.5256204 C57.6217577,47.4769051 58.2363802,48.2489879 58.9933024,48.2489879 C59.7508275,48.2489879 60.365651,47.4769051 60.365651,46.5256204 L60.365651,43.0796427 Z" id="Fill-8"></path>
                <path d="M65.8534374,27.2267826 L65.8534374,23.7792903 C65.8534374,22.828876 65.238659,22.0566802 64.4819932,22.0566802 C63.7243226,22.0566802 63.1095442,22.828876 63.1095442,23.7792903 L63.1095442,27.2267826 C63.1095442,28.1771969 63.7243226,28.9493927 64.4819932,28.9493927 C65.238659,28.9493927 65.8534374,28.1771969 65.8534374,27.2267826 Z" id="Fill-9"></path>
                <path d="M52.1339713,51.3508978 C52.1339713,50.3996131 51.5193489,49.6275304 50.7624267,49.6275304 C50.0049015,49.6275304 49.3900781,50.3996131 49.3900781,51.3508978 L49.3900781,54.7968755 C49.3900781,55.7481602 50.0049015,56.5202429 50.7624267,56.5202429 C51.5193489,56.5202429 52.1339713,55.7481602 52.1339713,54.7968755 L52.1339713,51.3508978 Z" id="Fill-10"></path>
                <path d="M72.7131705,23.7792903 C72.7131705,22.828876 72.0985481,22.0566802 71.3408219,22.0566802 C70.5841007,22.0566802 69.9692773,22.828876 69.9692773,23.7792903 L69.9692773,27.2267826 C69.9692773,28.1771969 70.5841007,28.9493927 71.3408219,28.9493927 C72.0985481,28.9493927 72.7131705,28.1771969 72.7131705,27.2267826 L72.7131705,23.7792903 Z" id="Fill-11"></path>
                <path d="M50.7624267,60.6558704 C50.0049015,60.6558704 49.3900781,61.4280663 49.3900781,62.3784806 L49.3900781,65.8259728 C49.3900781,66.7763871 50.0049015,67.548583 50.7624267,67.548583 C51.5193489,67.548583 52.1339713,66.7763871 52.1339713,65.8259728 L52.1339713,62.3784806 C52.1339713,61.4280663 51.5193489,60.6558704 50.7624267,60.6558704 Z" id="Fill-12"></path>
                <path d="M78.2009569,72.0282782 C78.2009569,71.0778639 77.5861335,70.305668 76.8294123,70.305668 C76.0716861,70.305668 75.4570637,71.0778639 75.4570637,72.0282782 L75.4570637,75.475518 C75.4570637,76.4261847 76.0716861,77.1983806 76.8294123,77.1983806 C77.5861335,77.1983806 78.2009569,76.4261847 78.2009569,75.475518 L78.2009569,72.0282782 Z" id="Fill-13"></path>
                <path d="M76.8294123,79.9554656 C76.0716861,79.9554656 75.4570637,80.6761201 75.4570637,81.56404 L75.4570637,87.9966887 C75.4570637,88.8846086 76.0716861,89.6052632 76.8294123,89.6052632 C77.5861335,89.6052632 78.2009569,88.8846086 78.2009569,87.9966887 L78.2009569,81.56404 C78.2009569,80.6761201 77.5861335,79.9554656 76.8294123,79.9554656 Z" id="Fill-14"></path>
                <path d="M83.688241,60.6558704 C82.9315752,60.6558704 82.3167968,61.4280663 82.3167968,62.3784806 L82.3167968,65.8259728 C82.3167968,66.7763871 82.9315752,67.548583 83.688241,67.548583 C84.4459116,67.548583 85.06069,66.7763871 85.06069,65.8259728 L85.06069,62.3784806 C85.06069,61.4280663 84.4459116,60.6558704 83.688241,60.6558704 Z" id="Fill-15"></path>
                <path d="M59.180217,28.4895719 C60.040978,28.4895719 60.7395898,27.7860529 60.7395898,26.9201657 L60.7395898,20.2964158 L76.3301206,16.3706004 L76.3301206,42.6199776 C76.3301206,43.2749701 76.7341234,43.8598177 77.3416119,44.0916409 L88.802591,48.4180873 L88.802591,64.6006343 C88.802591,65.4665215 89.5012028,66.1700405 90.3619638,66.1700405 C91.2220396,66.1700405 91.9204231,65.4665215 91.9204231,64.6006343 L91.9204231,47.3302662 C91.9204231,46.6752736 91.5173339,46.0895061 90.9089318,45.8586028 L79.4479528,41.5321565 L79.4479528,11.2192038 C79.4479528,10.3533166 78.7493409,9.64979757 77.8894935,9.64979757 C77.0285041,9.64979757 76.3301206,10.3533166 76.3301206,11.2192038 L76.3301206,13.133585 L58.8020212,17.5465051 C58.1079769,17.7208325 57.6217577,18.348687 57.6217577,19.0692248 L57.6217577,26.9201657 C57.6217577,27.7860529 58.3201412,28.4895719 59.180217,28.4895719 Z" id="Fill-16"></path>
                <path d="M85.06069,51.3508978 C85.06069,50.3996131 84.4459116,49.6275304 83.688241,49.6275304 C82.9315752,49.6275304 82.3167968,50.3996131 82.3167968,51.3508978 L82.3167968,54.7968755 C82.3167968,55.7481602 82.9315752,56.5202429 83.688241,56.5202429 C84.4459116,56.5202429 85.06069,55.7481602 85.06069,54.7968755 L85.06069,51.3508978 Z" id="Fill-17"></path>
                <path d="M78.2009569,51.3508978 C78.2009569,50.3996131 77.5861335,49.6275304 76.8294123,49.6275304 C76.0716861,49.6275304 75.4570637,50.3996131 75.4570637,51.3508978 L75.4570637,54.7968755 C75.4570637,55.7481602 76.0716861,56.5202429 76.8294123,56.5202429 C77.5861335,56.5202429 78.2009569,55.7481602 78.2009569,54.7968755 L78.2009569,51.3508978 Z" id="Fill-18"></path>
                <path d="M65.8534374,72.0282782 C65.8534374,71.0778639 65.238659,70.305668 64.4819932,70.305668 C63.7243226,70.305668 63.1095442,71.0778639 63.1095442,72.0282782 L63.1095442,75.475518 C63.1095442,76.4261847 63.7243226,77.1983806 64.4819932,77.1983806 C65.238659,77.1983806 65.8534374,76.4261847 65.8534374,75.475518 L65.8534374,72.0282782 Z" id="Fill-19"></path>
                <path d="M78.2009569,62.3784806 C78.2009569,61.4280663 77.5861335,60.6558704 76.8294123,60.6558704 C76.0716861,60.6558704 75.4570637,61.4280663 75.4570637,62.3784806 L75.4570637,65.8259728 C75.4570637,66.7763871 76.0716861,67.548583 76.8294123,67.548583 C77.5861335,67.548583 78.2009569,66.7763871 78.2009569,65.8259728 L78.2009569,62.3784806 Z" id="Fill-20"></path>
                <path d="M64.4819932,79.9554656 C63.7243226,79.9554656 63.1095442,80.6761201 63.1095442,81.56404 L63.1095442,87.9966887 C63.1095442,88.8846086 63.7243226,89.6052632 64.4819932,89.6052632 C65.238659,89.6052632 65.8534374,88.8846086 65.8534374,87.9966887 L65.8534374,81.56404 C65.8534374,80.6761201 65.238659,79.9554656 64.4819932,79.9554656 Z" id="Fill-21"></path>
                <path d="M65.8534374,62.3784806 C65.8534374,61.4280663 65.238659,60.6558704 64.4819932,60.6558704 C63.7243226,60.6558704 63.1095442,61.4280663 63.1095442,62.3784806 L63.1095442,65.8259728 C63.1095442,66.7763871 63.7243226,67.548583 64.4819932,67.548583 C65.238659,67.548583 65.8534374,66.7763871 65.8534374,65.8259728 L65.8534374,62.3784806 Z" id="Fill-22"></path>
                <path d="M69.8165658,86.8481781 C70.6583879,86.8481781 71.3412239,86.149176 71.3412239,85.288848 L71.3412239,35.3699476 C71.3412239,34.6540359 70.8642658,34.029984 70.1872355,33.8570044 L45.7976193,27.6176274 C45.3447771,27.5006319 44.8582174,27.6059735 44.4891108,27.9014328 C44.1184411,28.195978 43.9022916,28.6502494 43.9022916,29.1305706 L43.9022916,63.4495433 C43.9022916,64.3098713 44.5851276,65.0088734 45.4269497,65.0088734 C46.2685484,65.0088734 46.9516077,64.3098713 46.9516077,63.4495433 L46.9516077,31.1290907 L68.2919078,36.5883456 L68.2919078,85.288848 C68.292801,86.149176 68.9758603,86.8481781 69.8165658,86.8481781 Z" id="Fill-23"></path>
                <path d="M34.2986653,33.4290879 C34.2986653,32.4786736 33.6838869,31.7064777 32.9262163,31.7064777 C32.1695505,31.7064777 31.5547721,32.4786736 31.5547721,33.4290879 L31.5547721,36.8755704 C31.5547721,37.8269944 32.1695505,38.5991903 32.9262163,38.5991903 C33.6838869,38.5991903 34.2986653,37.8269944 34.2986653,36.8755704 L34.2986653,33.4290879 Z" id="Fill-24"></path>
                <path d="M34.2986653,23.7792903 C34.2986653,22.828876 33.6838869,22.0566802 32.9262163,22.0566802 C32.1695505,22.0566802 31.5547721,22.828876 31.5547721,23.7792903 L31.5547721,27.2267826 C31.5547721,28.1771969 32.1695505,28.9493927 32.9262163,28.9493927 C33.6838869,28.9493927 34.2986653,28.1771969 34.2986653,27.2267826 L34.2986653,23.7792903 Z" id="Fill-25"></path>
                <path d="M21.9511458,72.0282782 C21.9511458,71.0778639 21.3365234,70.305668 20.5787972,70.305668 C19.821875,70.305668 19.2072526,71.0778639 19.2072526,72.0282782 L19.2072526,75.475518 C19.2072526,76.4261847 19.8212721,77.1983806 20.5787972,77.1983806 C21.3365234,77.1983806 21.9511458,76.4261847 21.9511458,75.475518 L21.9511458,72.0282782 Z" id="Fill-26"></path>
                <path d="M8.42796735,56.7174413 C9.29361981,56.7174413 9.99620164,56.0114706 9.99620164,55.1416427 L9.99620164,47.2642652 L25.675329,47.2642652 L25.675329,86.650922 C25.675329,87.5207499 26.3776812,88.2267206 27.2435633,88.2267206 C28.1082971,88.2267206 28.8108789,87.5207499 28.8108789,86.650922 L28.8108789,45.6884666 C28.8108789,44.819331 28.1082971,44.1133603 27.2435633,44.1133603 L8.42796735,44.1133603 C7.56208521,44.1133603 6.85973306,44.819331 6.85973306,45.6884666 L6.85973306,55.1416427 C6.85973306,56.0114706 7.56208521,56.7174413 8.42796735,56.7174413 Z" id="Fill-27"></path>
                <path d="M24.695039,33.4290879 L24.695039,36.8755704 C24.695039,37.8269944 25.3096615,38.5991903 26.0673876,38.5991903 C26.8241088,38.5991903 27.4389323,37.8269944 27.4389323,36.8755704 L27.4389323,33.4290879 C27.4389323,32.4786736 26.8241088,31.7064777 26.0673876,31.7064777 C25.3096615,31.7064777 24.695039,32.4786736 24.695039,33.4290879 Z" id="Fill-28"></path>
                <path d="M34.2986653,14.13025 C34.2986653,13.1789653 33.6838869,12.4068826 32.9262163,12.4068826 C32.1695505,12.4068826 31.5547721,13.1789653 31.5547721,14.13025 L31.5547721,17.5762277 C31.5547721,18.5275124 32.1695505,19.2995951 32.9262163,19.2995951 C33.6838869,19.2995951 34.2986653,18.5275124 34.2986653,17.5762277 L34.2986653,14.13025 Z" id="Fill-29"></path>
                <path d="M20.5787972,78.5769231 C19.8212721,78.5769231 19.2072526,79.2975776 19.2072526,80.1854975 L19.2072526,86.6181462 C19.2072526,87.5060661 19.8212721,88.2267206 20.5787972,88.2267206 C21.3365234,88.2267206 21.9511458,87.5060661 21.9511458,86.6181462 L21.9511458,80.1854975 C21.9511458,79.2975776 21.3365234,78.5769231 20.5787972,78.5769231 Z" id="Fill-30"></path>
                <path d="M93.0860461,90.607026 L89.9308925,90.607026 L89.9308925,80.9856 C92.6446204,80.2854886 94.6643163,77.8526531 94.6643163,74.9422917 C94.6643163,71.4867107 91.833183,68.6757096 88.3528534,68.6757096 C84.8725239,68.6757096 82.042315,71.4867107 82.042315,74.9422917 C82.042315,77.8526531 84.0620109,80.2854886 86.7757388,80.9856 L86.7757388,90.607026 L47.3321581,90.607026 L47.3321581,84.1827983 C50.927813,83.4549211 53.6424654,80.2916843 53.6424654,76.5091093 C53.6424654,72.1902642 50.1036643,68.6757096 45.7541191,68.6757096 C41.4043427,68.6757096 37.8655416,72.1895758 37.8655416,76.5091093 C37.8655416,80.2916843 40.5811185,83.4549211 44.17608,84.1827983 L44.17608,90.607026 L9.46661652,90.607026 L9.46661652,74.7844167 C13.0625025,74.0556216 15.7771549,70.8923848 15.7771549,67.1098098 C15.7771549,62.7911941 12.2381227,59.2773279 7.88857747,59.2773279 C3.53880111,59.2773279 0,62.7911941 0,67.1098098 C0,70.8923848 2.71557687,74.0556216 6.31053842,74.7844167 L6.31053842,90.607026 L1.57803905,90.607026 C0.706974437,90.607026 0,91.3089731 0,92.1738436 C0,93.0380257 0.706974437,93.7408907 1.57803905,93.7408907 L93.0860461,93.7408907 C93.9564174,93.7408907 94.6633918,93.0389435 94.6633918,92.1738436 C94.6633918,91.3089731 93.9573419,90.607026 93.0860461,90.607026 Z M3.15515365,67.1098098 C3.15515365,64.5184109 5.27954366,62.4100453 7.88857747,62.4100453 C10.4985357,62.4100453 12.6217702,64.5184109 12.6217702,67.1098098 C12.6217702,69.7002908 10.4985357,71.8093448 7.88857747,71.8093448 C5.27954366,71.8093448 3.15515365,69.7002908 3.15515365,67.1098098 Z M41.0206953,76.5091093 C41.0206953,73.9177104 43.1450853,71.8093448 45.7541191,71.8093448 C48.3640774,71.8093448 50.4873118,73.9177104 50.4873118,76.5091093 C50.4873118,79.0995903 48.3640774,81.2086443 45.7541191,81.2086443 C43.1450853,81.2086443 41.0206953,79.0995903 41.0206953,76.5091093 Z M85.1976998,74.9422917 C85.1976998,73.2148454 86.612342,71.8093448 88.3528534,71.8093448 C90.0933649,71.8093448 91.5080071,73.2139275 91.5080071,74.9422917 C91.5080071,76.6704264 90.0933649,78.0750091 88.3528534,78.0750091 C86.612342,78.0750091 85.1976998,76.6704264 85.1976998,74.9422917 Z" id="Fill-32"></path>
                <path d="M12.3475195,81.56404 L12.3475195,87.9966887 C12.3475195,88.8846086 12.9622979,89.6052632 13.7197676,89.6052632 C14.4766344,89.6052632 15.0914127,88.8846086 15.0914127,87.9966887 L15.0914127,81.56404 C15.0914127,80.6761201 14.4766344,79.9554656 13.7197676,79.9554656 C12.9622979,79.9554656 12.3475195,80.6761201 12.3475195,81.56404 Z" id="Fill-34"></path>
                <path d="M21.9511458,51.3508978 C21.9511458,50.3996131 21.3365234,49.6275304 20.5787972,49.6275304 C19.821875,49.6275304 19.2072526,50.3996131 19.2072526,51.3508978 L19.2072526,54.7968755 C19.2072526,55.7481602 19.821875,56.5202429 20.5787972,56.5202429 C21.3365234,56.5202429 21.9511458,55.7481602 21.9511458,54.7968755 L21.9511458,51.3508978 Z" id="Fill-35"></path>
                <path d="M21.9511458,62.3784806 C21.9511458,61.4280663 21.3365234,60.6558704 20.5787972,60.6558704 C19.821875,60.6558704 19.2072526,61.4280663 19.2072526,62.3784806 L19.2072526,65.8259728 C19.2072526,66.7763871 19.821875,67.548583 20.5787972,67.548583 C21.3365234,67.548583 21.9511458,66.7763871 21.9511458,65.8259728 L21.9511458,62.3784806 Z" id="Fill-36"></path>
                <path d="M12.3475195,51.3508978 L12.3475195,54.7968755 C12.3475195,55.7481602 12.9622979,56.5202429 13.7197676,56.5202429 C14.4766344,56.5202429 15.0914127,55.7481602 15.0914127,54.7968755 L15.0914127,51.3508978 C15.0914127,50.3996131 14.4766344,49.6275304 13.7197676,49.6275304 C12.9622979,49.6275304 12.3475195,50.3996131 12.3475195,51.3508978 Z" id="Fill-37"></path>
                <path d="M34.2986653,62.3784806 C34.2986653,61.4280663 33.6838869,60.6558704 32.9262163,60.6558704 C32.1695505,60.6558704 31.5547721,61.4280663 31.5547721,62.3784806 L31.5547721,65.8259728 C31.5547721,66.7763871 32.1695505,67.548583 32.9262163,67.548583 C33.6838869,67.548583 34.2986653,66.7763871 34.2986653,65.8259728 L34.2986653,62.3784806 Z" id="Fill-38"></path>
                <path d="M39.7864518,43.0796427 C39.7864518,42.128358 39.1718293,41.3562753 38.4149071,41.3562753 C37.657181,41.3562753 37.0425585,42.128358 37.0425585,43.0796427 L37.0425585,46.5256204 C37.0425585,47.4769051 37.657181,48.2489879 38.4149071,48.2489879 C39.1718293,48.2489879 39.7864518,47.4769051 39.7864518,46.5256204 L39.7864518,43.0796427 Z" id="Fill-39"></path>
                <path d="M39.7864518,33.4290879 C39.7864518,32.4786736 39.1718293,31.7064777 38.4149071,31.7064777 C37.657181,31.7064777 37.0425585,32.4786736 37.0425585,33.4290879 L37.0425585,36.8755704 C37.0425585,37.8269944 37.657181,38.5991903 38.4149071,38.5991903 C39.1718293,38.5991903 39.7864518,37.8269944 39.7864518,36.8755704 L39.7864518,33.4290879 Z" id="Fill-40"></path>
                <path d="M39.7864518,51.3508978 C39.7864518,50.3996131 39.1718293,49.6275304 38.4149071,49.6275304 C37.657181,49.6275304 37.0425585,50.3996131 37.0425585,51.3508978 L37.0425585,54.7968755 C37.0425585,55.7481602 37.657181,56.5202429 38.4149071,56.5202429 C39.1718293,56.5202429 39.7864518,55.7481602 39.7864518,54.7968755 L39.7864518,51.3508978 Z" id="Fill-41"></path>
                <path d="M38.4149071,60.6558704 C37.657181,60.6558704 37.0425585,61.4280663 37.0425585,62.3784806 L37.0425585,65.8259728 C37.0425585,66.7763871 37.657181,67.548583 38.4149071,67.548583 C39.1718293,67.548583 39.7864518,66.7763871 39.7864518,65.8259728 L39.7864518,62.3784806 C39.7864518,61.4280663 39.1718293,60.6558704 38.4149071,60.6558704 Z" id="Fill-42"></path>
                <path d="M39.7864518,23.7792903 C39.7864518,22.828876 39.1718293,22.0566802 38.4149071,22.0566802 C37.657181,22.0566802 37.0425585,22.828876 37.0425585,23.7792903 L37.0425585,27.2267826 C37.0425585,28.1771969 37.657181,28.9493927 38.4149071,28.9493927 C39.1718293,28.9493927 39.7864518,28.1771969 39.7864518,27.2267826 L39.7864518,23.7792903 Z" id="Fill-43"></path>
                <path d="M34.2986653,72.0282782 C34.2986653,71.0778639 33.6838869,70.305668 32.9262163,70.305668 C32.1695505,70.305668 31.5547721,71.0778639 31.5547721,72.0282782 L31.5547721,75.475518 C31.5547721,76.4261847 32.1695505,77.1983806 32.9262163,77.1983806 C33.6838869,77.1983806 34.2986653,76.4261847 34.2986653,75.475518 L34.2986653,72.0282782 Z" id="Fill-44"></path>
                <path d="M20.7310546,41.3562753 C21.5728972,41.3562753 22.2557499,40.6437503 22.2557499,39.7662587 L22.2557499,28.0240422 L27.5102321,25.2827548 C28.026726,25.0124707 28.3529679,24.4625822 28.3529679,23.8591028 L28.3529679,10.5271027 L35.9748811,6.55043026 L43.5967943,10.5271027 L43.5967943,23.8591028 C43.5967943,24.7375264 44.279647,25.4502844 45.1214896,25.4502844 C45.9631089,25.4502844 46.6461848,24.7375264 46.6461848,23.8591028 L46.6461848,9.54406054 C46.6461848,8.94058121 46.3199429,8.39092571 45.8025559,8.12064153 L37.4995764,3.78910457 L37.4995764,1.59094859 C37.4995764,0.712758018 36.8165004,0 35.9748811,0 C35.1339317,0 34.451079,0.712758018 34.451079,1.59094859 L34.451079,3.78910457 L26.1478762,8.11970952 C25.6307125,8.39092571 25.3044705,8.94058121 25.3044705,9.54406054 L25.3044705,22.8762936 L20.0497651,25.616649 C19.5334945,25.8871662 19.2072526,26.4377537 19.2072526,27.040301 L19.2072526,39.7653267 C19.2072526,40.6437503 19.8894354,41.3562753 20.7310546,41.3562753 Z" id="Fill-45"></path>
                <path d="M34.2986653,51.3508978 C34.2986653,50.3996131 33.6838869,49.6275304 32.9262163,49.6275304 C32.1695505,49.6275304 31.5547721,50.3996131 31.5547721,51.3508978 L31.5547721,54.7968755 C31.5547721,55.7481602 32.1695505,56.5202429 32.9262163,56.5202429 C33.6838869,56.5202429 34.2986653,55.7481602 34.2986653,54.7968755 L34.2986653,51.3508978 Z" id="Fill-46"></path>
                <path d="M32.9262163,79.9554656 C32.1695505,79.9554656 31.5547721,80.6761201 31.5547721,81.56404 L31.5547721,87.9966887 C31.5547721,88.8846086 32.1695505,89.6052632 32.9262163,89.6052632 C33.6838869,89.6052632 34.2986653,88.8846086 34.2986653,87.9966887 L34.2986653,81.56404 C34.2986653,80.6761201 33.6838869,79.9554656 32.9262163,79.9554656 Z" id="Fill-47"></path>
                <path d="M39.7864518,14.13025 C39.7864518,13.1789653 39.1718293,12.4068826 38.4149071,12.4068826 C37.657181,12.4068826 37.0425585,13.1789653 37.0425585,14.13025 L37.0425585,17.5762277 C37.0425585,18.5275124 37.657181,19.2995951 38.4149071,19.2995951 C39.1718293,19.2995951 39.7864518,18.5275124 39.7864518,17.5762277 L39.7864518,14.13025 Z" id="Fill-48"></path>
                <path d="M34.2986653,43.0796427 C34.2986653,42.128358 33.6838869,41.3562753 32.9262163,41.3562753 C32.1695505,41.3562753 31.5547721,42.128358 31.5547721,43.0796427 L31.5547721,46.5256204 C31.5547721,47.4769051 32.1695505,48.2489879 32.9262163,48.2489879 C33.6838869,48.2489879 34.2986653,47.4769051 34.2986653,46.5256204 L34.2986653,43.0796427 Z" id="Fill-49"></path>
            </g>
        </g>
    </g>
</svg>