<?xml version="1.0" encoding="UTF-8"?>
<svg width="128px" height="128px" viewBox="0 0 128 128" version="1.1" xmlns="http://www.w3.org/2000/svg" xmlns:xlink="http://www.w3.org/1999/xlink">
    <!-- Generator: Sketch 52.2 (67145) - http://www.bohemiancoding.com/sketch -->
    <title>sampan</title>
    <desc>Created with Sketch.</desc>
    <defs>
        <polygon id="path-1" points="0.0137091988 0.138731579 76.8651929 0.138731579 76.8651929 42.9864211 0.0137091988 42.9864211"></polygon>
        <linearGradient x1="26.5304703%" y1="34.6150233%" x2="94.3344038%" y2="80.4642965%" id="linearGradient-3">
            <stop stop-color="#123ECF" offset="0%"></stop>
            <stop stop-color="#53C1FD" offset="47.5247532%"></stop>
            <stop stop-color="#A8E63C" offset="100%"></stop>
        </linearGradient>
        <linearGradient x1="9.15743409%" y1="13.0463389%" x2="107.955298%" y2="115.535424%" id="linearGradient-4">
            <stop stop-color="#123ECF" offset="0%"></stop>
            <stop stop-color="#53C1FD" offset="47.5247532%"></stop>
            <stop stop-color="#A8E63C" offset="100%"></stop>
        </linearGradient>
    </defs>
    <g id="sampan" stroke="none" stroke-width="1" fill="none" fill-rule="evenodd">
        <g id="care" transform="translate(5.000000, 16.000000)">
            <g id="Group-3" transform="translate(0.000000, 54.000000)">
                <mask id="mask-2" fill="white">
                    <use xlink:href="#path-1"></use>
                </mask>
                <g id="Clip-2"></g>
                <path d="M69.8147804,29.0331474 L60.949727,29.0331474 C59.6880237,29.0331474 58.665089,30.0461368 58.665089,31.2960789 C58.665089,32.5460211 59.6880237,33.5590105 60.949727,33.5590105 L69.8147804,33.5590105 C71.1829585,33.5590105 72.2961454,34.6613947 72.2961454,36.0165737 C72.2961454,37.3717526 71.1831869,38.4741368 69.8147804,38.4741368 L45.9507211,38.4741368 C42.3634807,38.4741368 38.9901039,36.9075789 36.6960979,34.1759474 L30.9891869,27.3814947 C27.9270089,23.7355474 23.4703769,21.6002579 18.7018605,21.4651474 L18.7018605,8.09735263 L27.1138249,8.09735263 C31.2622285,8.09735263 35.1901424,9.66888947 38.1744065,12.5222789 L50.4916647,24.2986211 C51.3624273,25.1312368 51.4030979,26.5253421 50.5821454,27.4061632 C49.7454273,28.3037316 48.3251543,28.3623474 47.4160059,27.5369737 L37.7457656,18.7568263 C36.8160534,17.9124421 35.3706469,17.9744526 34.5181632,18.8957842 C33.665451,19.8171158 33.7282849,21.2485632 34.658454,22.0929474 L44.3286944,30.8730947 C45.6328961,32.0571789 47.2832552,32.6419789 48.9295015,32.6419789 C50.7674481,32.6419789 52.6001395,31.9130158 53.9397567,30.4756842 C56.431632,27.8017632 56.3084777,23.5701105 53.6651157,21.0426158 L41.3478576,9.26627368 C37.5072255,5.59407368 32.4521869,3.57171579 27.1138249,3.57171579 L18.2581395,3.57171579 C17.3985727,1.5566 15.382635,0.138731579 13.038819,0.138731579 L2.28463798,0.138731579 C1.02293472,0.138731579 0,1.15172105 0,2.40166316 L0,18.9491947 C0,20.1989105 1.02293472,21.2121263 2.28463798,21.2121263 C3.54634125,21.2121263 4.56927596,20.1991368 4.56927596,18.9491947 L4.56927596,4.66436842 L13.0390475,4.66436842 C13.6422522,4.66436842 14.1328131,5.15049474 14.1328131,5.74774211 L14.1328131,23.8853684 C14.1328131,24.4826158 13.6422522,24.9687421 13.0390475,24.9687421 L10.6662136,24.9687421 C9.40451039,24.9687421 8.38157567,25.9817316 8.38157567,27.2316737 C8.38157567,28.4813895 9.40451039,29.4946053 10.6662136,29.4946053 L13.038819,29.4946053 C15.4141662,29.4946053 17.4511246,28.0380368 18.2908131,25.9796947 C21.8524629,25.9998368 25.1972789,27.5620947 27.4766617,30.2760737 L33.1835727,37.0705263 C36.3485697,40.8389105 41.0019288,43 45.9507211,43 L69.8147804,43 C73.7022522,43 76.8651929,39.8673368 76.8651929,36.0165737 C76.8651929,32.1658105 73.7022522,29.0331474 69.8147804,29.0331474" id="Fill-1" fill="url(#linearGradient-3)" mask="url(#mask-2)"></path>
            </g>
            <path d="M114.711133,20.9716558 C113.447221,20.9716558 112.422495,21.9879294 112.422495,23.2419239 L112.422495,38.4599178 L103.937894,38.4599178 C103.333634,38.4599178 102.842214,37.9722155 102.842214,37.3730318 L102.842214,19.1766023 C102.842214,18.5774186 103.333634,18.0897162 103.937894,18.0897162 L106.14688,18.0897162 C107.410792,18.0897162 108.435518,17.0734426 108.435518,15.8194481 C108.435518,14.5656807 107.410792,13.54918 106.14688,13.54918 L103.937894,13.54918 C101.558388,13.54918 99.5178636,15.0104707 98.676705,17.075486 C95.1088193,17.0552786 91.758147,15.4879558 89.4747734,12.765178 L83.7578706,5.94892442 C80.587561,2.1683229 75.9258258,0 70.9681402,0 L47.0627566,0 C43.1684784,0 40,3.14281943 40,7.00583992 C40,10.8688604 43.1684784,14.0116798 47.0627566,14.0116798 L56.8380493,14.0116798 C58.1019616,14.0116798 59.1266873,12.9954062 59.1266873,11.7414117 C59.1266873,10.4874172 58.1019616,9.47114359 56.8380493,9.47114359 L47.0627566,9.47114359 C45.6921831,9.47114359 44.5770471,8.36518539 44.5770471,7.00561288 C44.5770471,5.64626741 45.6919542,4.54008216 47.0627566,4.54008216 L70.968369,4.54008216 C74.562119,4.54008216 77.941402,6.11171892 80.2394244,8.8522066 L85.9563272,15.6684602 C89.0236378,19.3262279 93.4883015,21.4684401 98.2651667,21.6042157 L98.2651667,35.0153496 L89.8384744,35.0153496 C85.6828076,35.0153496 81.7480166,33.4387178 78.7585275,30.5760774 L66.4197039,18.7615558 C65.5474167,17.9262406 65.5066749,16.5278426 66.3290647,15.6439388 C67.1672478,14.7432334 68.5900075,14.6846546 69.5007476,15.5127042 L79.1881478,24.3213173 C80.1199455,25.1684391 81.5671961,25.1062275 82.4216301,24.1819089 C83.2756063,23.2575903 83.2126625,21.8215021 82.2808648,20.9743804 L72.5934645,12.1659943 C69.8285133,9.65187501 65.5098793,9.83101708 62.9655748,12.5646933 C60.4693366,15.2475104 60.5927065,19.4928823 63.2406966,22.0283442 L75.5795203,33.8428659 C79.4268766,37.5269714 84.4907658,39.5558859 89.8384744,39.5558859 L98.7096647,39.5558859 C99.5707364,41.5775348 101.590204,43 103.938123,43 L114.711362,43 C115.975274,43 117,41.9837264 117,40.7297319 L117,23.2414698 C116.999771,21.9879294 115.975045,20.9716558 114.711133,20.9716558" id="Fill-4" fill="url(#linearGradient-4)"></path>
            <path d="M71.494312,75.2212416 C70.2350706,75.7709684 69.6591616,77.2398981 70.2074687,78.5019011 C70.6147826,79.4400516 71.5288765,80 72.4882275,80 C72.8196985,80 73.1563914,79.9331851 73.4796564,79.7920761 C73.4901003,79.7875886 73.5229241,79.7728793 73.5331194,79.7683918 C74.7846523,79.201712 75.3448953,77.7235579 74.7796789,76.4687848 C74.2142139,75.214261 72.7446015,74.6545618 71.494312,75.2212416" id="Fill-5" fill="url(#linearGradient-4)"></path>
            <path d="M76.0204662,71.4852335 C74.9096251,72.3003754 74.6682572,73.8639385 75.4816272,74.9771994 C75.9700981,75.6456557 76.7271157,76 77.4951046,76 C78.006266,76 78.522165,75.8430689 78.9660028,75.517462 C78.9699923,75.5147132 78.993431,75.4972209 78.9971712,75.4944721 C80.1015292,74.6748322 80.3254428,73.1215146 79.5105767,72.0125019 C78.6954612,70.9029893 77.1288138,70.6720908 76.0204662,71.4852335" id="Fill-6" fill="url(#linearGradient-4)"></path>
            <path d="M64.0041952,76.0522257 C62.6640164,76.3192611 61.7878222,77.6219643 62.0447064,78.9708805 C62.272716,80.167419 63.3159347,81 64.4865998,81 C64.6414273,81 64.7989929,80.9852618 64.9565585,80.9550361 C64.9727382,80.9517887 65.0135609,80.9435454 65.0299895,80.9400482 C66.374151,80.654028 67.2299338,79.3295922 66.9454196,77.9804263 C66.6619011,76.6352572 65.3458675,75.7739493 64.0041952,76.0522257" id="Fill-7" fill="url(#linearGradient-4)"></path>
            <path d="M83.7855006,69.7413748 L83.5083859,69.4907762 L83.8084274,69.7613031 L83.7855006,69.7413748 Z M85.1770551,67.6411796 C84.1553192,66.7199933 82.5801014,66.8009521 81.658047,67.8225273 C81.645836,67.836228 81.6171776,67.8686115 81.6052158,67.8823122 C80.7060882,68.9238157 80.8222172,70.4966578 81.8641386,71.3951757 C82.3348848,71.8012151 82.9140346,72 83.4904432,72 C84.1824824,72 84.8705343,71.7135305 85.3624628,71.1545413 C86.2800315,70.1329661 86.197545,68.5611204 85.1770551,67.6411796 Z" id="Fill-8" fill="url(#linearGradient-4)"></path>
            <path d="M90.225518,56.1072506 C88.9065378,55.7078883 87.5111746,56.4590283 87.1110373,57.7757033 C86.7056581,59.0906344 87.4450259,60.484541 88.7625084,60.8891352 C89.0068841,60.9643738 89.2540057,61 89.4971334,61 C90.5639996,61 91.5517371,60.3118909 91.8817317,59.2408624 L91.8922157,59.206731 C92.2921033,57.890056 91.5444981,56.5063639 90.225518,56.1072506" id="Fill-9" fill="url(#linearGradient-4)"></path>
            <path d="M92.9422576,42.9777493 C92.660244,41.6328677 91.3373527,40.7725317 89.9879836,41.0530057 C88.6433605,41.3322354 87.778835,42.6422755 88.0496081,43.9816821 C88.2786661,45.1690304 89.3230409,46 90.4990552,46 C90.6451828,46 90.7935584,45.9873077 90.9421839,45.9606789 C92.3000459,45.7185305 93.2035386,44.4254134 92.9604923,43.072568 C92.9549969,43.0409618 92.949002,43.0093555 92.9422576,42.9777493" id="Fill-10" fill="url(#linearGradient-4)"></path>
            <path d="M90.7202507,48.0097283 C89.3499454,47.889319 88.1328405,48.9006084 88.0116298,50.2688966 C88.0093805,50.2930283 88.0058817,50.3420379 88.0043821,50.3661695 C87.9234084,51.7376919 88.9743173,52.9149173 90.3521202,52.995522 C90.4021039,52.9985073 90.4515879,53 90.5010718,53 C91.8021495,53 92.8955447,51.998413 92.9912636,50.6940611 C93.1052266,49.3307485 92.0910558,48.1301377 90.7202507,48.0097283" id="Fill-11" fill="url(#linearGradient-4)"></path>
            <path d="M86.7357618,61.3228948 C85.5390547,60.6474315 84.0167436,61.0659656 83.3381109,62.2587627 L83.3034563,62.3208229 C82.6470125,63.5257838 83.0900435,65.0432799 84.2999642,65.696898 C84.6806667,65.9024414 85.0902896,66 85.4939289,66 C86.3737579,66 87.2236693,65.5352932 87.673681,64.7091478 L85.5066439,63.4823416 L87.6754262,64.7061689 C88.3543082,63.5133718 87.9337155,61.9988545 86.7357618,61.3228948" id="Fill-12" fill="url(#linearGradient-4)"></path>
            <path d="M44.5017076,23 C44.8791717,23 45.2621208,22.9145319 45.6213849,22.7345991 C46.853005,22.1175796 47.351886,20.6166403 46.7363252,19.3821015 C46.1207645,18.1475626 44.6226257,17.6469996 43.3920029,18.2645189 L43.3698138,18.2755148 C42.1381936,18.8927843 41.6502826,20.3879757 42.2660926,21.6222647 C42.702146,22.496688 43.5857213,23 44.5017076,23" id="Fill-13" fill="url(#linearGradient-4)"></path>
            <path d="M50.4792716,21 C50.6840561,21 50.8923199,20.9742963 51.1000867,20.920643 C52.4336711,20.5959778 53.2528091,19.2471575 52.9294783,17.9078201 C52.6061474,16.5689819 51.2646102,15.7459644 49.928789,16.0708791 C49.9173568,16.0736242 49.8820663,16.082608 49.8706342,16.0856026 C48.5415231,16.4294832 47.7365511,17.7912801 48.0787698,19.1256264 C48.3678043,20.2515981 49.3735844,21 50.4792716,21" id="Fill-14" fill="url(#linearGradient-4)"></path>
            <path d="M38.4928905,26 C39.0364745,26 39.5842935,25.8224116 40.0429269,25.4570086 L40.075811,25.4305699 C41.1445439,24.5663231 41.3099608,23.0007021 40.4484973,21.9289364 C39.5870339,20.8571707 38.0185625,20.6888109 36.9468401,21.5493163 L38.4911467,23.5060308 L36.9393665,21.555053 C35.8631599,22.4130642 35.685536,23.9819277 36.5422662,25.0594302 C37.034531,25.6779964 37.7602231,26 38.4928905,26" id="Fill-15" fill="url(#linearGradient-4)"></path>
            <path d="M25.9082512,43.929313 C26.1059823,43.9771014 26.3037133,44 26.4984484,44 C27.618425,44 28.6360408,43.2423549 28.919655,42.1131053 C29.2619395,40.7969334 28.4797534,39.4471602 27.1597988,39.0882495 C25.8296082,38.7268498 24.4574746,39.5081402 24.094718,40.834268 C24.0884765,40.8569178 24.0764928,40.9039594 24.0707506,40.9268581 C23.7461921,42.2621951 24.5690728,43.6049991 25.9082512,43.929313" id="Fill-16" fill="url(#linearGradient-4)"></path>
            <path d="M26.4251022,48.9987555 C26.4505996,48.9995022 26.4755971,49 26.5008445,49 C27.8407089,49 28.9478468,47.9414508 28.9973418,46.6014017 C29.0598355,45.2426854 28.0129415,44.083085 26.6453299,44.0039365 C25.2637197,43.9275258 24.085339,44.9726347 24.0053471,46.3445423 C24.0033473,46.3766498 24.0020974,46.4085083 24.0010975,46.4403668 C23.9606016,47.8135189 25.0457418,48.9576879 26.4251022,48.9987555" id="Fill-17" fill="url(#linearGradient-4)"></path>
            <path d="M28.3935657,35.743785 C28.7472473,35.9178319 29.1221298,36 29.4920239,36 C30.4079046,36 31.2896143,35.4940439 31.7266031,34.6225644 C32.3476659,33.409216 31.8757579,31.920231 30.6640618,31.2855449 C29.4441347,30.646626 27.9368725,31.1159799 27.297103,32.3335613 L27.256447,32.4137374 C26.6486036,33.6470054 27.1584239,35.1364883 28.3935657,35.743785" id="Fill-18" fill="url(#linearGradient-4)"></path>
            <path d="M32.9447088,29.4609653 C33.4023996,29.8240599 33.9483379,30 34.4907862,30 C35.2219447,30 35.946871,29.6800182 36.4392126,29.0664706 C37.3027425,28.0080885 37.1531703,26.4490495 36.0996839,25.5745822 C35.0404638,24.6956291 33.4689592,24.8414152 32.5897243,25.9000465 C32.5777585,25.9147497 32.5503369,25.9486419 32.5383712,25.9633451 C31.6838157,27.0416637 31.866543,28.6061853 32.9447088,29.4609653" id="Fill-19" fill="url(#linearGradient-4)"></path>
            <path d="M26.0593463,51.0395127 C24.7004746,51.2823878 23.79631,52.5778048 24.039537,53.9333173 L24.0440366,53.9577544 C24.2605162,55.1629037 25.3096671,56 26.4948052,56 C26.6425412,56 26.7922771,55.9870334 26.9427629,55.9601027 C28.3016346,55.7174769 29.2037994,54.4095919 28.9603224,53.0540795 C28.7170953,51.698567 27.4174681,50.7966376 26.0593463,51.0395127" id="Fill-20" fill="url(#linearGradient-4)"></path>
            <path d="M50.7241289,40.477072 C53.2026055,40.477072 55.4173211,41.9118932 56.3665839,44.1322953 C56.7243474,44.9684721 57.5662118,45.513834 58.5,45.513834 C59.4337882,45.513834 60.2756526,44.968696 60.6334161,44.1322953 C61.5826789,41.9118932 63.7973945,40.477072 66.2758711,40.477072 C69.642405,40.477072 72.3814093,43.1320174 72.3814093,46.3952338 C72.3814093,47.9404258 71.7746664,49.3947242 70.6706576,50.5033581 L58.4958426,59.9034631 L46.7975068,50.9262599 C45.4126456,49.7970294 44.6188217,48.1472872 44.6188217,46.3954576 C44.6185907,43.1320174 47.357595,40.477072 50.7241289,40.477072 Z M43.8605663,54.381338 C43.875348,54.3934273 43.8905916,54.4052927 43.9058353,54.4171582 L57.0664053,64.5166517 C57.4862982,64.8390332 57.9930336,65 58.499769,65 C59.0088141,65 59.5178591,64.837466 59.9386759,64.5123981 L73.6567935,53.9208251 C73.724004,53.8691097 73.7879811,53.8135885 73.8487247,53.754933 C75.8809785,51.7904212 77,49.176669 77,46.3950099 C77,40.663113 72.1892471,36 66.2758711,36 C63.2698723,36 60.4846752,37.2015424 58.5,39.2291873 C56.5150938,37.2015424 53.7301277,36 50.7241289,36 C44.8107529,36 40,40.663113 40,46.3950099 C40,49.4878567 41.4072648,52.3986923 43.8605663,54.381338 Z" id="Fill-21" fill="url(#linearGradient-4)"></path>
            <path d="M2.5,79 C3.88072059,79 5,80.1192794 5,81.5 C5,82.8807206 3.88072059,84 2.5,84 C1.11927941,84 0,82.8807206 0,81.5 C0,80.1192794 1.11927941,79 2.5,79" id="Fill-23" fill="url(#linearGradient-4)"></path>
            <path d="M115.5,12 C116.880721,12 118,13.1192794 118,14.5 C118,15.8807206 116.880721,17 115.5,17 C114.119279,17 113,15.8807206 113,14.5 C113,13.1192794 114.119279,12 115.5,12" id="Fill-25" fill="url(#linearGradient-4)"></path>
        </g>
    </g>
</svg>