<?xml version="1.0" encoding="UTF-8"?>
<svg width="212px" height="211px" viewBox="0 0 212 211" version="1.1" xmlns="http://www.w3.org/2000/svg" xmlns:xlink="http://www.w3.org/1999/xlink">
    <!-- Generator: Sketch 52.3 (67297) - http://www.bohemiancoding.com/sketch -->
    <title>cityscape (1)</title>
    <desc>Created with Sketch.</desc>
    <defs>
        <filter x="-26.1%" y="-25.9%" width="152.2%" height="151.9%" filterUnits="objectBoundingBox" id="filter-1">
            <feOffset dx="0" dy="17" in="SourceAlpha" result="shadowOffsetOuter1"></feOffset>
            <feGaussianBlur stdDeviation="16.5" in="shadowOffsetOuter1" result="shadowBlurOuter1"></feGaussianBlur>
            <feColorMatrix values="0 0 0 0 0   0 0 0 0 0   0 0 0 0 0  0 0 0 0.266502491 0" type="matrix" in="shadowBlurOuter1" result="shadowMatrixOuter1"></feColorMatrix>
            <feMerge>
                <feMergeNode in="shadowMatrixOuter1"></feMergeNode>
                <feMergeNode in="SourceGraphic"></feMergeNode>
            </feMerge>
        </filter>
    </defs>
    <g id="City-Vision-and-Goal-" stroke="none" stroke-width="1" fill="none" fill-rule="evenodd">
        <g transform="translate(-467.000000, -2242.000000)" fill="#FFFFFF" id="Group-16">
            <g transform="translate(389.000000, 2172.000000)">
                <g id="Group-11" filter="url(#filter-1)">
                    <g id="Group-12" transform="translate(109.000000, 82.000000)">
                        <g id="cityscape-(1)">
                            <path d="M95.3465615,98.91084 C95.3465615,97.4038095 94.3754579,96.1793721 93.1789593,96.1793721 C91.983413,96.1793721 91.0126269,97.4038095 91.0126269,98.91084 L91.0126269,104.377378 C91.0126269,105.884409 91.983413,107.108846 93.1789593,107.108846 C94.3754579,107.108846 95.3465615,105.884409 95.3465615,104.377378 L95.3465615,98.91084 Z" id="Fill-1"></path>
                            <path d="M93.1789593,126.7819 C91.983413,126.7819 91.0126269,127.92461 91.0126269,129.332546 L91.0126269,139.532517 C91.0126269,140.940453 91.983413,142.083163 93.1789593,142.083163 C94.3754579,142.083163 95.3465615,140.940453 95.3465615,139.532517 L95.3465615,129.332546 C95.3465615,127.92461 94.3754579,126.7819 93.1789593,126.7819 Z" id="Fill-2"></path>
                            <path d="M104.014431,68.3095133 C104.014431,66.8011026 103.043398,65.5768446 101.848257,65.5768446 C100.651529,65.5768446 99.6804961,66.8011026 99.6804961,68.3095133 L99.6804961,73.7736501 C99.6804961,75.2820608 100.651529,76.5063187 101.848257,76.5063187 C103.043398,76.5063187 104.014431,75.2820608 104.014431,73.7736501 L104.014431,68.3095133 Z" id="Fill-3"></path>
                            <path d="M95.3465615,81.4248822 C95.3465615,79.9164715 94.3754579,78.6922136 93.1789593,78.6922136 C91.983413,78.6922136 91.0126269,79.9164715 91.0126269,81.4248822 L91.0126269,86.889019 C91.0126269,88.3974297 91.983413,89.6216877 93.1789593,89.6216877 C94.3754579,89.6216877 95.3465615,88.3974297 95.3465615,86.889019 L95.3465615,81.4248822 Z" id="Fill-4"></path>
                            <path d="M95.3465615,114.212104 C95.3465615,112.705073 94.3754579,111.480636 93.1789593,111.480636 C91.983413,111.480636 91.0126269,112.705073 91.0126269,114.212104 L91.0126269,119.678242 C91.0126269,121.185673 91.983413,122.41011 93.1789593,122.41011 C94.3754579,122.41011 95.3465615,121.185673 95.3465615,119.678242 L95.3465615,114.212104 Z" id="Fill-5"></path>
                            <path d="M104.014431,81.4248822 C104.014431,79.9164715 103.043398,78.6922136 101.848257,78.6922136 C100.651529,78.6922136 99.6804961,79.9164715 99.6804961,81.4248822 L99.6804961,86.889019 C99.6804961,88.3974297 100.651529,89.6216877 101.848257,89.6216877 C103.043398,89.6216877 104.014431,88.3974297 104.014431,86.889019 L104.014431,81.4248822 Z" id="Fill-6"></path>
                            <path d="M82.3447576,68.3095133 C82.3447576,66.8011026 81.3739715,65.5768446 80.1784253,65.5768446 C78.9819266,65.5768446 78.010823,66.8011026 78.010823,68.3095133 L78.010823,73.7736501 C78.010823,75.2820608 78.9819266,76.5063187 80.1784253,76.5063187 C81.3739715,76.5063187 82.3447576,75.2820608 82.3447576,73.7736501 L82.3447576,68.3095133 Z" id="Fill-7"></path>
                            <path d="M95.3465615,68.3095133 C95.3465615,66.8011026 94.3754579,65.5768446 93.1789593,65.5768446 C91.983413,65.5768446 91.0126269,66.8011026 91.0126269,68.3095133 L91.0126269,73.7736501 C91.0126269,75.2820608 91.983413,76.5063187 93.1789593,76.5063187 C94.3754579,76.5063187 95.3465615,75.2820608 95.3465615,73.7736501 L95.3465615,68.3095133 Z" id="Fill-8"></path>
                            <path d="M104.014431,43.1723233 L104.014431,37.705785 C104.014431,36.1987545 103.043398,34.9743171 101.848257,34.9743171 C100.651529,34.9743171 99.6804961,36.1987545 99.6804961,37.705785 L99.6804961,43.1723233 C99.6804961,44.6793539 100.651529,45.9037912 101.848257,45.9037912 C103.043398,45.9037912 104.014431,44.6793539 104.014431,43.1723233 Z" id="Fill-9"></path>
                            <path d="M82.3447576,81.4248822 C82.3447576,79.9164715 81.3739715,78.6922136 80.1784253,78.6922136 C78.9819266,78.6922136 78.010823,79.9164715 78.010823,81.4248822 L78.010823,86.889019 C78.010823,88.3974297 78.9819266,89.6216877 80.1784253,89.6216877 C81.3739715,89.6216877 82.3447576,88.3974297 82.3447576,86.889019 L82.3447576,81.4248822 Z" id="Fill-10"></path>
                            <path d="M114.849267,37.705785 C114.849267,36.1987545 113.878481,34.9743171 112.681665,34.9743171 C111.486436,34.9743171 110.515333,36.1987545 110.515333,37.705785 L110.515333,43.1723233 C110.515333,44.6793539 111.486436,45.9037912 112.681665,45.9037912 C113.878481,45.9037912 114.849267,44.6793539 114.849267,43.1723233 L114.849267,37.705785 Z" id="Fill-11"></path>
                            <path d="M80.1784253,96.1793721 C78.9819266,96.1793721 78.010823,97.4038095 78.010823,98.91084 L78.010823,104.377378 C78.010823,105.884409 78.9819266,107.108846 80.1784253,107.108846 C81.3739715,107.108846 82.3447576,105.884409 82.3447576,104.377378 L82.3447576,98.91084 C82.3447576,97.4038095 81.3739715,96.1793721 80.1784253,96.1793721 Z" id="Fill-12"></path>
                            <path d="M123.517136,114.212104 C123.517136,112.705073 122.546033,111.480636 121.350804,111.480636 C120.153988,111.480636 119.183202,112.705073 119.183202,114.212104 L119.183202,119.678242 C119.183202,121.185673 120.153988,122.41011 121.350804,122.41011 C122.546033,122.41011 123.517136,121.185673 123.517136,119.678242 L123.517136,114.212104 Z" id="Fill-13"></path>
                            <path d="M121.350804,126.7819 C120.153988,126.7819 119.183202,127.92461 119.183202,129.332546 L119.183202,139.532517 C119.183202,140.940453 120.153988,142.083163 121.350804,142.083163 C122.546033,142.083163 123.517136,140.940453 123.517136,139.532517 L123.517136,129.332546 C123.517136,127.92461 122.546033,126.7819 121.350804,126.7819 Z" id="Fill-14"></path>
                            <path d="M132.184212,96.1793721 C130.989071,96.1793721 130.018038,97.4038095 130.018038,98.91084 L130.018038,104.377378 C130.018038,105.884409 130.989071,107.108846 132.184212,107.108846 C133.380941,107.108846 134.351973,105.884409 134.351973,104.377378 L134.351973,98.91084 C134.351973,97.4038095 133.380941,96.1793721 132.184212,96.1793721 Z" id="Fill-15"></path>
                            <path d="M93.4741879,45.1746734 C94.8337459,45.1746734 95.9371918,44.059134 95.9371918,42.6861343 L95.9371918,32.1831426 L120.562181,25.9581481 L120.562181,67.5806423 C120.562181,68.6192354 121.200297,69.5466028 122.159815,69.9141948 L140.262245,76.7744524 L140.262245,102.434412 C140.262245,103.807412 141.365691,104.922951 142.725248,104.922951 C144.083724,104.922951 145.18681,103.807412 145.18681,102.434412 L145.18681,75.0495418 C145.18681,74.0109486 144.550137,73.0821226 143.589176,72.7159893 L125.486746,65.8557317 L125.486746,17.7898029 C125.486746,16.4168032 124.3833,15.3012637 123.025185,15.3012637 C121.665266,15.3012637 120.562181,16.4168032 120.562181,17.7898029 L120.562181,20.8253538 L92.8768337,27.822729 C91.7806022,28.0991523 91.0126269,29.0947139 91.0126269,30.2372392 L91.0126269,42.6861343 C91.0126269,44.059134 92.1157121,45.1746734 93.4741879,45.1746734 Z" id="Fill-16"></path>
                            <path d="M134.351973,81.4248822 C134.351973,79.9164715 133.380941,78.6922136 132.184212,78.6922136 C130.989071,78.6922136 130.018038,79.9164715 130.018038,81.4248822 L130.018038,86.889019 C130.018038,88.3974297 130.989071,89.6216877 132.184212,89.6216877 C133.380941,89.6216877 134.351973,88.3974297 134.351973,86.889019 L134.351973,81.4248822 Z" id="Fill-17"></path>
                            <path d="M123.517136,81.4248822 C123.517136,79.9164715 122.546033,78.6922136 121.350804,78.6922136 C120.153988,78.6922136 119.183202,79.9164715 119.183202,81.4248822 L119.183202,86.889019 C119.183202,88.3974297 120.153988,89.6216877 121.350804,89.6216877 C122.546033,89.6216877 123.517136,88.3974297 123.517136,86.889019 L123.517136,81.4248822 Z" id="Fill-18"></path>
                            <path d="M104.014431,114.212104 C104.014431,112.705073 103.043398,111.480636 101.848257,111.480636 C100.651529,111.480636 99.6804961,112.705073 99.6804961,114.212104 L99.6804961,119.678242 C99.6804961,121.185673 100.651529,122.41011 101.848257,122.41011 C103.043398,122.41011 104.014431,121.185673 104.014431,119.678242 L104.014431,114.212104 Z" id="Fill-19"></path>
                            <path d="M123.517136,98.91084 C123.517136,97.4038095 122.546033,96.1793721 121.350804,96.1793721 C120.153988,96.1793721 119.183202,97.4038095 119.183202,98.91084 L119.183202,104.377378 C119.183202,105.884409 120.153988,107.108846 121.350804,107.108846 C122.546033,107.108846 123.517136,105.884409 123.517136,104.377378 L123.517136,98.91084 Z" id="Fill-20"></path>
                            <path d="M101.848257,126.7819 C100.651529,126.7819 99.6804961,127.92461 99.6804961,129.332546 L99.6804961,139.532517 C99.6804961,140.940453 100.651529,142.083163 101.848257,142.083163 C103.043398,142.083163 104.014431,140.940453 104.014431,139.532517 L104.014431,129.332546 C104.014431,127.92461 103.043398,126.7819 101.848257,126.7819 Z" id="Fill-21"></path>
                            <path d="M104.014431,98.91084 C104.014431,97.4038095 103.043398,96.1793721 101.848257,96.1793721 C100.651529,96.1793721 99.6804961,97.4038095 99.6804961,98.91084 L99.6804961,104.377378 C99.6804961,105.884409 100.651529,107.108846 101.848257,107.108846 C103.043398,107.108846 104.014431,105.884409 104.014431,104.377378 L104.014431,98.91084 Z" id="Fill-22"></path>
                            <path d="M110.274127,137.711374 C111.603772,137.711374 112.6823,136.602996 112.6823,135.238812 L112.6823,56.0845855 C112.6823,54.9493956 111.928952,53.9598636 110.859594,53.6855773 L72.336593,43.792069 C71.6213361,43.6065544 70.852823,43.77359 70.2698251,44.2420868 C69.6843585,44.7091343 69.3429538,45.4294528 69.3429538,46.1910772 L69.3429538,100.609178 C69.3429538,101.973362 70.4214822,103.081739 71.7511263,103.081739 C73.0804178,103.081739 74.1592988,101.973362 74.1592988,100.609178 L74.1592988,49.3600434 L107.865955,58.0165462 L107.865955,135.238812 C107.867366,136.602996 108.946247,137.711374 110.274127,137.711374 Z" id="Fill-23"></path>
                            <path d="M54.1741827,53.0070488 C54.1741827,51.5000182 53.2031502,50.2755809 52.0064218,50.2755809 C50.8112805,50.2755809 49.840248,51.5000182 49.840248,53.0070488 L49.840248,58.471986 C49.840248,59.9806177 50.8112805,61.205055 52.0064218,61.205055 C53.2031502,61.205055 54.1741827,59.9806177 54.1741827,58.471986 L54.1741827,53.0070488 Z" id="Fill-24"></path>
                            <path d="M54.1741827,37.705785 C54.1741827,36.1987545 53.2031502,34.9743171 52.0064218,34.9743171 C50.8112805,34.9743171 49.840248,36.1987545 49.840248,37.705785 L49.840248,43.1723233 C49.840248,44.6793539 50.8112805,45.9037912 52.0064218,45.9037912 C53.2031502,45.9037912 54.1741827,44.6793539 54.1741827,43.1723233 L54.1741827,37.705785 Z" id="Fill-25"></path>
                            <path d="M34.6714769,114.212104 C34.6714769,112.705073 33.7006908,111.480636 32.5038747,111.480636 C31.3083284,111.480636 30.3375423,112.705073 30.3375423,114.212104 L30.3375423,119.678242 C30.3375423,121.185673 31.307376,122.41011 32.5038747,122.41011 C33.7006908,122.41011 34.6714769,121.185673 34.6714769,119.678242 L34.6714769,114.212104 Z" id="Fill-26"></path>
                            <path d="M13.311837,89.9343766 C14.679121,89.9343766 15.7888375,88.8149496 15.7888375,87.4357014 L15.7888375,74.9448869 L40.5537636,74.9448869 L40.5537636,137.398593 C40.5537636,138.777842 41.6631173,139.897269 43.030764,139.897269 C44.3965969,139.897269 45.5063134,138.777842 45.5063134,137.398593 L45.5063134,72.4462117 C45.5063134,71.0680613 44.3965969,69.9486343 43.030764,69.9486343 L13.311837,69.9486343 C11.9441903,69.9486343 10.8348365,71.0680613 10.8348365,72.4462117 L10.8348365,87.4357014 C10.8348365,88.8149496 11.9441903,89.9343766 13.311837,89.9343766 Z" id="Fill-27"></path>
                            <path d="M39.0054115,53.0070488 L39.0054115,58.471986 C39.0054115,59.9806177 39.9761976,61.205055 41.1730137,61.205055 C42.3682426,61.205055 43.3393461,59.9806177 43.3393461,58.471986 L43.3393461,53.0070488 C43.3393461,51.5000182 42.3682426,50.2755809 41.1730137,50.2755809 C39.9761976,50.2755809 39.0054115,51.5000182 39.0054115,53.0070488 Z" id="Fill-28"></path>
                            <path d="M54.1741827,22.4057221 C54.1741827,20.8973114 53.2031502,19.6730534 52.0064218,19.6730534 C50.8112805,19.6730534 49.840248,20.8973114 49.840248,22.4057221 L49.840248,27.8698588 C49.840248,29.3782695 50.8112805,30.6025275 52.0064218,30.6025275 C53.2031502,30.6025275 54.1741827,29.3782695 54.1741827,27.8698588 L54.1741827,22.4057221 Z" id="Fill-29"></path>
                            <path d="M32.5038747,124.596005 C31.307376,124.596005 30.3375423,125.738715 30.3375423,127.146651 L30.3375423,137.346622 C30.3375423,138.754558 31.307376,139.897269 32.5038747,139.897269 C33.7006908,139.897269 34.6714769,138.754558 34.6714769,137.346622 L34.6714769,127.146651 C34.6714769,125.738715 33.7006908,124.596005 32.5038747,124.596005 Z" id="Fill-30"></path>
                            <path d="M147.027892,143.671615 L142.044378,143.671615 L142.044378,128.415339 C146.330667,127.305203 149.520744,123.447562 149.520744,118.832728 C149.520744,113.353364 145.049015,108.896082 139.551891,108.896082 C134.054768,108.896082 129.584499,113.353364 129.584499,118.832728 C129.584499,123.447562 132.774576,127.305203 137.060865,128.415339 L137.060865,143.671615 L74.7603721,143.671615 L74.7603721,133.484997 C80.4396503,132.330834 84.7273996,127.315027 84.7273996,121.317163 C84.7273996,114.468958 79.1379209,108.896082 72.2678851,108.896082 C65.3974843,108.896082 59.8080056,114.467866 59.8080056,121.317163 C59.8080056,127.315027 64.097215,132.330834 69.7753982,133.484997 L69.7753982,143.671615 L14.9523664,143.671615 L14.9523664,118.582393 C20.6320098,117.426774 24.919759,112.410967 24.919759,106.413103 C24.919759,99.5652619 19.3299153,93.9934773 12.4598795,93.9934773 C5.58947865,93.9934773 0,99.5652619 0,106.413103 C0,112.410967 4.28920939,117.426774 9.96739254,118.582393 L9.96739254,143.671615 L2.49248695,143.671615 C1.1166546,143.671615 0,144.784662 0,146.156049 C0,147.526345 1.1166546,148.640848 2.49248695,148.640848 L147.027892,148.640848 C148.402629,148.640848 149.519284,147.527801 149.519284,146.156049 C149.519284,144.784662 148.40409,143.671615 147.027892,143.671615 Z M4.98351375,106.413103 C4.98351375,102.304034 8.33895313,98.9608908 12.4598795,98.9608908 C16.582266,98.9608908 19.9358802,102.304034 19.9358802,106.413103 C19.9358802,110.520716 16.582266,113.864951 12.4598795,113.864951 C8.33895313,113.864951 4.98351375,110.520716 4.98351375,106.413103 Z M64.7915194,121.317163 C64.7915194,117.208094 68.1469588,113.864951 72.2678851,113.864951 C76.3902716,113.864951 79.7438858,117.208094 79.7438858,121.317163 C79.7438858,125.424775 76.3902716,128.769011 72.2678851,128.769011 C68.1469588,128.769011 64.7915194,125.424775 64.7915194,121.317163 Z M134.568378,118.832728 C134.568378,116.093592 136.802782,113.864951 139.551891,113.864951 C142.301001,113.864951 144.535405,116.092136 144.535405,118.832728 C144.535405,121.572956 142.301001,123.800142 139.551891,123.800142 C136.802782,123.800142 134.568378,121.572956 134.568378,118.832728 Z" id="Fill-32"></path>
                            <path d="M19.5027058,129.332546 L19.5027058,139.532517 C19.5027058,140.940453 20.4737382,142.083163 21.6701492,142.083163 C22.8656079,142.083163 23.8366404,140.940453 23.8366404,139.532517 L23.8366404,129.332546 C23.8366404,127.92461 22.8656079,126.7819 21.6701492,126.7819 C20.4737382,126.7819 19.5027058,127.92461 19.5027058,129.332546 Z" id="Fill-34"></path>
                            <path d="M34.6714769,81.4248822 C34.6714769,79.9164715 33.7006908,78.6922136 32.5038747,78.6922136 C31.3083284,78.6922136 30.3375423,79.9164715 30.3375423,81.4248822 L30.3375423,86.889019 C30.3375423,88.3974297 31.3083284,89.6216877 32.5038747,89.6216877 C33.7006908,89.6216877 34.6714769,88.3974297 34.6714769,86.889019 L34.6714769,81.4248822 Z" id="Fill-35"></path>
                            <path d="M34.6714769,98.91084 C34.6714769,97.4038095 33.7006908,96.1793721 32.5038747,96.1793721 C31.3083284,96.1793721 30.3375423,97.4038095 30.3375423,98.91084 L30.3375423,104.377378 C30.3375423,105.884409 31.3083284,107.108846 32.5038747,107.108846 C33.7006908,107.108846 34.6714769,105.884409 34.6714769,104.377378 L34.6714769,98.91084 Z" id="Fill-36"></path>
                            <path d="M19.5027058,81.4248822 L19.5027058,86.889019 C19.5027058,88.3974297 20.4737382,89.6216877 21.6701492,89.6216877 C22.8656079,89.6216877 23.8366404,88.3974297 23.8366404,86.889019 L23.8366404,81.4248822 C23.8366404,79.9164715 22.8656079,78.6922136 21.6701492,78.6922136 C20.4737382,78.6922136 19.5027058,79.9164715 19.5027058,81.4248822 Z" id="Fill-37"></path>
                            <path d="M54.1741827,98.91084 C54.1741827,97.4038095 53.2031502,96.1793721 52.0064218,96.1793721 C50.8112805,96.1793721 49.840248,97.4038095 49.840248,98.91084 L49.840248,104.377378 C49.840248,105.884409 50.8112805,107.108846 52.0064218,107.108846 C53.2031502,107.108846 54.1741827,105.884409 54.1741827,104.377378 L54.1741827,98.91084 Z" id="Fill-38"></path>
                            <path d="M62.8420519,68.3095133 C62.8420519,66.8011026 61.8712658,65.5768446 60.6757195,65.5768446 C59.4789034,65.5768446 58.5081173,66.8011026 58.5081173,68.3095133 L58.5081173,73.7736501 C58.5081173,75.2820608 59.4789034,76.5063187 60.6757195,76.5063187 C61.8712658,76.5063187 62.8420519,75.2820608 62.8420519,73.7736501 L62.8420519,68.3095133 Z" id="Fill-39"></path>
                            <path d="M62.8420519,53.0070488 C62.8420519,51.5000182 61.8712658,50.2755809 60.6757195,50.2755809 C59.4789034,50.2755809 58.5081173,51.5000182 58.5081173,53.0070488 L58.5081173,58.471986 C58.5081173,59.9806177 59.4789034,61.205055 60.6757195,61.205055 C61.8712658,61.205055 62.8420519,59.9806177 62.8420519,58.471986 L62.8420519,53.0070488 Z" id="Fill-40"></path>
                            <path d="M62.8420519,81.4248822 C62.8420519,79.9164715 61.8712658,78.6922136 60.6757195,78.6922136 C59.4789034,78.6922136 58.5081173,79.9164715 58.5081173,81.4248822 L58.5081173,86.889019 C58.5081173,88.3974297 59.4789034,89.6216877 60.6757195,89.6216877 C61.8712658,89.6216877 62.8420519,88.3974297 62.8420519,86.889019 L62.8420519,81.4248822 Z" id="Fill-41"></path>
                            <path d="M60.6757195,96.1793721 C59.4789034,96.1793721 58.5081173,97.4038095 58.5081173,98.91084 L58.5081173,104.377378 C58.5081173,105.884409 59.4789034,107.108846 60.6757195,107.108846 C61.8712658,107.108846 62.8420519,105.884409 62.8420519,104.377378 L62.8420519,98.91084 C62.8420519,97.4038095 61.8712658,96.1793721 60.6757195,96.1793721 Z" id="Fill-42"></path>
                            <path d="M62.8420519,37.705785 C62.8420519,36.1987545 61.8712658,34.9743171 60.6757195,34.9743171 C59.4789034,34.9743171 58.5081173,36.1987545 58.5081173,37.705785 L58.5081173,43.1723233 C58.5081173,44.6793539 59.4789034,45.9037912 60.6757195,45.9037912 C61.8712658,45.9037912 62.8420519,44.6793539 62.8420519,43.1723233 L62.8420519,37.705785 Z" id="Fill-43"></path>
                            <path d="M54.1741827,114.212104 C54.1741827,112.705073 53.2031502,111.480636 52.0064218,111.480636 C50.8112805,111.480636 49.840248,112.705073 49.840248,114.212104 L49.840248,119.678242 C49.840248,121.185673 50.8112805,122.41011 52.0064218,122.41011 C53.2031502,122.41011 54.1741827,121.185673 54.1741827,119.678242 L54.1741827,114.212104 Z" id="Fill-44"></path>
                            <path d="M32.7443628,65.5768446 C34.0740394,65.5768446 35.1525941,64.4470247 35.1525941,63.0556246 L35.1525941,44.4365032 L43.451963,40.0897632 C44.2677567,39.6611854 44.7830505,38.7892511 44.7830505,37.8323403 L44.7830505,16.6923683 L56.8217381,10.386732 L68.8604258,16.6923683 L68.8604258,37.8323403 C68.8604258,39.2252183 69.9389805,40.3554076 71.2686571,40.3554076 C72.597981,40.3554076 73.6768884,39.2252183 73.6768884,37.8323403 L73.6768884,15.1336011 C73.6768884,14.1766902 73.1615946,13.3051255 72.3443902,12.8765476 L59.2299694,6.0082181 L59.2299694,2.5226979 C59.2299694,1.13018935 58.1510621,0 56.8217381,0 C55.4934723,0 54.4149176,1.13018935 54.4149176,2.5226979 L54.4149176,6.0082181 L41.3001442,12.8750698 C40.4832924,13.3051255 39.9679986,14.1766902 39.9679986,15.1336011 L39.9679986,36.2739425 L31.668277,40.6192047 C30.8528361,41.048152 30.3375423,41.9211946 30.3375423,42.8766277 L30.3375423,63.0541467 C30.3375423,64.4470247 31.4150389,65.5768446 32.7443628,65.5768446 Z" id="Fill-45"></path>
                            <path d="M54.1741827,81.4248822 C54.1741827,79.9164715 53.2031502,78.6922136 52.0064218,78.6922136 C50.8112805,78.6922136 49.840248,79.9164715 49.840248,81.4248822 L49.840248,86.889019 C49.840248,88.3974297 50.8112805,89.6216877 52.0064218,89.6216877 C53.2031502,89.6216877 54.1741827,88.3974297 54.1741827,86.889019 L54.1741827,81.4248822 Z" id="Fill-46"></path>
                            <path d="M52.0064218,126.7819 C50.8112805,126.7819 49.840248,127.92461 49.840248,129.332546 L49.840248,139.532517 C49.840248,140.940453 50.8112805,142.083163 52.0064218,142.083163 C53.2031502,142.083163 54.1741827,140.940453 54.1741827,139.532517 L54.1741827,129.332546 C54.1741827,127.92461 53.2031502,126.7819 52.0064218,126.7819 Z" id="Fill-47"></path>
                            <path d="M62.8420519,22.4057221 C62.8420519,20.8973114 61.8712658,19.6730534 60.6757195,19.6730534 C59.4789034,19.6730534 58.5081173,20.8973114 58.5081173,22.4057221 L58.5081173,27.8698588 C58.5081173,29.3782695 59.4789034,30.6025275 60.6757195,30.6025275 C61.8712658,30.6025275 62.8420519,29.3782695 62.8420519,27.8698588 L62.8420519,22.4057221 Z" id="Fill-48"></path>
                            <path d="M54.1741827,68.3095133 C54.1741827,66.8011026 53.2031502,65.5768446 52.0064218,65.5768446 C50.8112805,65.5768446 49.840248,66.8011026 49.840248,68.3095133 L49.840248,73.7736501 C49.840248,75.2820608 50.8112805,76.5063187 52.0064218,76.5063187 C53.2031502,76.5063187 54.1741827,75.2820608 54.1741827,73.7736501 L54.1741827,68.3095133 Z" id="Fill-49"></path>
                        </g>
                    </g>
                </g>
            </g>
        </g>
    </g>
</svg>