<?xml version="1.0" encoding="UTF-8"?>
<svg width="150px" height="150px" viewBox="0 0 150 150" version="1.1" xmlns="http://www.w3.org/2000/svg" xmlns:xlink="http://www.w3.org/1999/xlink">
    <!-- Generator: Sketch 52.3 (67297) - http://www.bohemiancoding.com/sketch -->
    <title>wind-turbine</title>
    <desc>Created with Sketch.</desc>
    <g id="City-Vision-and-Goal-" stroke="none" stroke-width="1" fill="none" fill-rule="evenodd">
        <g transform="translate(-499.000000, -3265.000000)" fill="#FFFFFF" id="Group-15-Copy">
            <g transform="translate(390.000000, 3182.000000)">
                <g id="Group-11-Copy-2">
                    <g id="wind-turbine" transform="translate(109.000000, 83.000000)">
                        <path d="M76,86 C81.515,86 86,81.515 86,76 C86,70.485 81.515,66 76,66 C70.485,66 66,70.485 66,76 C66,81.515 70.485,86 76,86 Z M76,71 C78.7575,71 81,73.2425 81,76 C81,78.7575 78.7575,81 76,81 C73.2425,81 71,78.7575 71,76 C71,73.2425 73.2425,71 76,71 Z" id="Fill-1"></path>
                        <path d="M121.237762,93.4100752 C123.521818,87.5436499 124.73678,81.3708689 124.73678,75.0012097 C124.73678,51.3035493 108.303537,30.8155172 85.4279462,25.5370046 C84.031178,11.7047251 80.3373677,0 74.000117,0 C67.6604502,0 63.96664,11.7119833 62.5698717,25.5487992 C56.5901936,26.9275513 50.951176,29.305513 45.819525,32.7467983 L48.5067561,36.7669237 C52.7194091,33.943491 57.3156071,31.911805 62.1663944,30.6228729 C62.0096544,33.3056783 61.9199592,36.0202382 61.9199592,38.7103018 C61.9199592,45.8989258 62.4898407,52.7600244 63.5220901,58.7601211 C58.2038007,62.2119913 54.6718646,68.1954548 54.6718646,75.0012097 C54.6718646,75.4996048 54.7108231,75.9889272 54.7461575,76.4767375 C49.0259008,78.9055065 42.8040156,82.2524355 36.5930025,86.3161099 C34.6263528,87.6038323 32.6738973,88.9541565 30.7697624,90.3444007 C29.0287097,85.4312166 28.0955175,80.2924241 28.0955175,75.0012097 C28.0955175,64.6749343 31.5117861,54.859151 37.7596437,46.8297876 L37.7596437,55.6460588 L42.5917068,55.6460588 L42.5917068,41.1296956 C42.5917068,39.7947951 41.5087207,38.7103018 40.1756753,38.7103018 L25.679486,38.7103018 L25.679486,43.5490895 L34.1745549,43.5490895 C27.1176288,52.4811892 23.2634544,63.4558622 23.2634544,75.0012097 C23.2634544,81.3708689 24.4784163,87.5436499 26.7624721,93.4100752 C15.5363815,102.323425 7.28080172,112.169753 10.8353881,117.615808 C12.0044454,119.409184 14.0994468,120.307082 17.0947219,120.307082 C19.5451819,120.307082 22.5969317,119.706769 26.2375893,118.506448 C30.3641712,117.146748 35.0098978,115.078469 39.8395449,112.492439 C47.4095757,119.41614 56.7233774,123.800081 66.7520223,125.235387 L66.7520223,126.050723 C62.0283786,127.013339 58.3170522,130.755839 57.3533576,135.483637 L49.8398015,135.483637 C43.1791045,135.483637 37.7596437,140.910942 37.7596437,147.580606 C37.7596437,148.915507 38.8426299,150 40.1756753,150 L107.824559,150 C109.157604,150 110.24059,148.915507 110.24059,147.580606 C110.24059,140.910942 104.821129,135.483637 98.1604325,135.483637 L90.6468764,135.483637 C89.6807657,130.753722 85.9718553,127.013339 81.2482116,126.050723 L81.2482116,125.235387 C91.2792726,123.800081 100.593074,119.41614 108.160689,112.492439 C112.988222,115.07605 117.633647,117.144631 121.762645,118.506448 C125.403302,119.709189 128.455052,120.307082 130.905512,120.307082 C133.900787,120.307082 135.995789,119.409184 137.164846,117.615808 C140.719432,112.169753 132.460228,102.323425 121.237762,93.4100752 Z M119.904716,75.0012097 C119.904716,80.2924241 118.971524,85.4312166 117.230471,90.3444007 C115.328753,88.9541565 113.376297,87.6038323 111.407231,86.3161099 C105.196218,82.2524355 98.9743331,78.9055065 93.2540764,76.4767375 C93.2894109,75.9889272 93.3283694,75.4996048 93.3283694,75.0012097 C93.3283694,68.1954548 89.7964332,62.2119913 84.4781438,58.7601211 C85.5103933,52.7600244 86.0802747,45.8989258 86.0802747,38.7103018 C86.0802747,36.0157019 85.9905796,33.2938838 85.8314235,30.6050299 C105.74949,35.9059219 119.904716,54.0737552 119.904716,75.0012097 Z M98.1604325,100.719064 C93.3884682,97.4289908 89.0060889,93.9405273 85.4185841,90.5821062 C88.5470429,88.2761214 90.9561284,85.0592348 92.2514233,81.3155253 C94.1742824,82.1577767 96.1385161,83.0886385 98.1604325,84.1434942 L98.1604325,100.719064 Z M74.000117,94.3563606 C74.8188497,94.3563606 75.6233882,94.28892 76.4161485,94.1897248 L76.4161485,120.853865 C75.61161,120.895297 74.8119036,120.969693 74.000117,120.969693 C73.1883304,120.969693 72.3886239,120.895297 71.5840854,120.853865 L71.5840854,94.1897248 C72.3768458,94.28892 73.1813843,94.3563606 74.000117,94.3563606 Z M74.000117,4.83878772 C76.1165606,4.83878772 81.0038904,15.8712237 81.2270713,37.2253988 L66.8722199,44.4103937 C66.7958129,42.5426217 66.7520223,40.6382563 66.7520223,38.7103018 C66.7520223,16.3626631 71.8329367,4.83878772 74.000117,4.83878772 Z M67.2062363,49.6553372 L81.1657645,42.6654059 C81.0205006,47.6118566 80.6028292,52.3124365 79.9363065,56.5899248 C78.064184,55.982657 76.070354,55.6460588 74.000117,55.6460588 C71.9298799,55.6460588 69.9360499,55.982657 68.0639275,56.5899248 C67.7181329,54.3737601 67.413713,52.0819892 67.2062363,49.6553372 Z M74.000117,60.4848465 C81.9950674,60.4848465 88.4963063,66.995133 88.4963063,75.0012097 C88.4963063,83.0072864 81.9950674,89.5175729 74.000117,89.5175729 C66.0051666,89.5175729 59.5039277,83.0072864 59.5039277,75.0012097 C59.5039277,66.995133 66.0051666,60.4848465 74.000117,60.4848465 Z M62.5816499,90.5821062 C58.994145,93.9405273 54.6117658,97.4314102 49.8398015,100.719064 L49.8398015,84.1413773 C51.8596039,83.0862191 53.8259515,82.1553573 55.7488106,81.3131059 C57.0441056,85.0592348 59.453191,88.2761214 62.5816499,90.5821062 Z M24.7251535,113.912321 C17.5323256,116.285747 15.1259582,115.354885 14.8792209,114.972016 C13.6959695,113.155051 20.550251,102.589255 39.233121,90.3691995 C41.1665502,89.1041589 43.0918254,87.9358941 45.0077384,86.8169245 L45.0077384,103.890889 C37.7986022,108.417878 30.6685911,111.952612 24.7251535,113.912321 Z M44.292895,109.988064 C46.1236429,108.909317 47.967679,107.774017 49.805675,106.571578 C56.2302049,102.369393 62.1663944,97.7066162 66.7520223,93.2897103 L66.7520223,120.350631 C58.4599,119.0369 50.7364512,115.489464 44.292895,109.988064 Z M104.995688,145.163632 L43.0045462,145.163632 C44.0026693,142.347457 46.6886923,140.324844 49.8398015,140.324844 L98.1604325,140.324844 C101.311542,140.324844 103.997565,142.347457 104.995688,145.163632 Z M78.8321801,130.647269 C81.9772491,130.647269 84.6351859,132.676838 85.6354229,135.486056 L62.3669251,135.486056 C63.3674641,132.676838 66.0254008,130.647269 69.1704699,130.647269 C70.5047233,130.647269 71.5865015,129.562775 71.5865015,128.227875 L71.5865015,125.692652 C72.3886239,125.728036 73.1883304,125.808481 74.000117,125.808481 C74.8119036,125.808481 75.61161,125.728036 76.4161485,125.692652 L76.4161485,128.227875 C76.4161485,129.562775 77.4991347,130.647269 78.8321801,130.647269 Z M81.2482116,120.350631 L81.2482116,93.2897103 C85.8338395,97.7066162 91.767613,102.369393 98.1945589,106.571578 C100.032555,107.774017 101.876591,108.909317 103.707339,109.988064 C97.2637828,115.489464 89.5403339,119.0369 81.2482116,120.350631 Z M133.118597,114.972016 C132.872162,115.352465 130.47727,116.285747 123.272664,113.912321 C117.329529,111.952612 110.199216,108.417878 102.99008,103.893309 L102.99008,86.8193439 C104.905993,87.9380111 106.831268,89.1086953 108.764697,90.3716189 C127.449983,102.589255 134.304264,113.155051 133.118597,114.972016 Z" id="Fill-3"></path>
                        <path d="M11.474125,38 C14.3333125,38 17.112,36.9044487 19.234325,34.9065562 C21.6266125,32.6505541 23,29.4398148 23,26.0918339 L23,25.2627278 C23,22.3217085 22.3284,19.3759259 21.058225,16.7421373 L13.5585,1.21150705 C12.7790875,-0.403835683 10.2232125,-0.403835683 9.4438,1.21150705 L1.941775,16.7445189 C0.6716,19.3759259 0,22.3217085 0,25.2627278 L0,25.6824907 C0,31.9842922 4.5583125,37.3685695 10.378175,37.9452224 C10.7430125,37.9815423 11.1113,38 11.474125,38 Z M4.6,25.6824907 L4.6,25.2627278 C4.6,23.0579309 5.104275,20.8471798 6.055325,18.873699 L11.5,7.60053587 L16.944675,18.873699 C17.895725,20.8471798 18.4,23.0579309 18.4,25.2627278 L18.4,26.0918339 C18.4,28.0989553 17.5768875,30.0283759 16.1393875,31.3820367 C14.682625,32.7529643 12.7859875,33.3983869 10.8148875,33.203093 C7.3301,32.8577562 4.6,29.5550263 4.6,25.6824907 Z" id="Fill-4"></path>
                        <path d="M148.058225,16.7445189 L140.5585,1.21150705 C139.779088,-0.403835683 137.223212,-0.403835683 136.4438,1.21150705 L128.944075,16.7445189 C127.6716,19.3759259 127,22.3217085 127,25.2627278 L127,25.6824907 C127,31.9842922 131.558312,37.3685695 137.378175,37.9452224 C137.743012,37.9815423 138.1113,38 138.474125,38 C141.333313,38 144.112,36.9044487 146.234325,34.9065562 C148.626612,32.6505541 150,29.4398148 150,26.0918339 L150,25.2627278 C150,22.3217085 149.3284,19.3759259 148.058225,16.7445189 Z M145.4,26.0918339 C145.4,28.0989553 144.576888,30.0283759 143.139388,31.3820367 C141.682625,32.7529643 139.788,33.3983869 137.814888,33.203093 C134.3301,32.8577562 131.6,29.5550263 131.6,25.6824907 L131.6,25.2627278 C131.6,23.0579309 132.104275,20.8471798 133.055325,18.873699 L138.5,7.60053587 L143.944675,18.873699 C144.895725,20.8471798 145.4,23.0579309 145.4,25.2627278 L145.4,26.0918339 Z" id="Fill-5"></path>
                    </g>
                </g>
            </g>
        </g>
    </g>
</svg>