<?xml version="1.0" encoding="UTF-8"?>
<svg width="153px" height="153px" viewBox="0 0 153 153" version="1.1" xmlns="http://www.w3.org/2000/svg" xmlns:xlink="http://www.w3.org/1999/xlink">
    <!-- Generator: Sketch 52.3 (67297) - http://www.bohemiancoding.com/sketch -->
    <title>sustainable Development</title>
    <desc>Created with Sketch.</desc>
    <defs>
        <linearGradient x1="9.21158451%" y1="-22.5501053%" x2="81.8045833%" y2="88.4714304%" id="linearGradient-1">
            <stop stop-color="#2F7AE5" offset="0%"></stop>
            <stop stop-color="#7FB156" offset="67.121188%"></stop>
            <stop stop-color="#9DD835" offset="100%"></stop>
        </linearGradient>
    </defs>
    <g id="strategy" stroke="none" stroke-width="1" fill="none" fill-rule="evenodd">
        <g id="Strategic-Plan" transform="translate(-678.000000, -2243.000000)">
            <g id="Group-75-Copy-3" transform="translate(592.000000, 2243.000000)">
                <g id="sustainable-Development" transform="translate(86.000000, 0.000000)">
                    <circle id="Oval-Copy" fill="url(#linearGradient-1)" transform="translate(76.500000, 76.500000) scale(1, -1) translate(-76.500000, -76.500000) " cx="76.5" cy="76.5" r="76.5"></circle>
                    <g id="wind-turbine" transform="translate(32.000000, 32.000000)" fill="#FFFFFF">
                        <path d="M45,51 C48.309,51 51,48.309 51,45 C51,41.691 48.309,39 45,39 C41.691,39 39,41.691 39,45 C39,48.309 41.691,51 45,51 Z M45,42 C46.6545,42 48,43.3455 48,45 C48,46.6545 46.6545,48 45,48 C43.3455,48 42,46.6545 42,45 C42,43.3455 43.3455,42 45,42 Z" id="Fill-1"></path>
                        <path d="M73.0474211,56.0460451 C74.4035792,52.5261899 75.1249628,48.8225213 75.1249628,45.0007258 C75.1249628,30.7821296 65.367725,18.4893103 51.7853431,15.3222028 C50.9560119,7.02283505 48.7628121,0 45.0000695,0 C41.2358923,0 39.0426925,7.02718995 38.2133613,15.3292795 C34.6629275,16.1565308 31.3147607,17.5833078 28.267843,19.648079 L29.8633864,22.0601542 C32.3646491,20.3660946 35.0936417,19.147083 37.9737967,18.3737238 C37.8807323,19.983407 37.8274758,21.6121429 37.8274758,23.2261811 C37.8274758,27.5393555 38.1658429,31.6560146 38.778741,35.2560727 C35.6210067,37.3271948 33.5239196,40.9172729 33.5239196,45.0007258 C33.5239196,45.2997629 33.5470512,45.5933563 33.568031,45.8860425 C30.1716286,47.3433039 26.4773843,49.3514613 22.7895952,51.789666 C21.621897,52.5622994 20.4626265,53.3724939 19.3320465,54.2066404 C18.2982964,51.25873 17.7442135,48.1754544 17.7442135,45.0007258 C17.7442135,38.8049606 19.772623,32.9154906 23.4822885,28.0978725 L23.4822885,33.3876353 L26.3513259,33.3876353 L26.3513259,24.6778174 C26.3513259,23.876877 25.7083029,23.2261811 24.9168072,23.2261811 L16.3096948,23.2261811 L16.3096948,26.1294537 L21.353642,26.1294537 C17.1635921,31.4887135 14.8751761,38.0735173 14.8751761,45.0007258 C14.8751761,48.8225213 15.5965597,52.5261899 16.9527178,56.0460451 C10.2872265,61.3940547 5.38547602,67.3018516 7.4960117,70.569485 C8.19013946,71.6455104 9.43404651,72.1842489 11.2124911,72.1842489 C12.6674517,72.1842489 14.4794282,71.8240617 16.6410686,71.1038686 C19.0912266,70.288049 21.8496268,69.0470814 24.7172298,67.4954636 C29.2119356,71.6496839 34.7420053,74.2800489 40.6965133,75.1412321 L40.6965133,75.6304336 C37.8918498,76.2080034 35.6882497,78.4535033 35.1160561,81.2901821 L30.6548821,81.2901821 C26.7000933,81.2901821 23.4822885,84.5465653 23.4822885,88.5483637 C23.4822885,89.349304 24.1253115,90 24.9168072,90 L65.0833317,90 C65.8748274,90 66.5178504,89.349304 66.5178504,88.5483637 C66.5178504,84.5465653 63.3000456,81.2901821 59.3452568,81.2901821 L54.8840828,81.2901821 C54.3104547,78.4522331 52.1082891,76.2080034 49.3036257,75.6304336 L49.3036257,75.1412321 C55.2595681,74.2800489 60.7896378,71.6496839 65.2829091,67.4954636 C68.1492569,69.0456298 70.9074778,70.2867788 73.3590703,71.1038686 C75.5207107,71.8255133 77.3326872,72.1842489 78.7876478,72.1842489 C80.5660924,72.1842489 81.8099994,71.6455104 82.5041272,70.569485 C84.6146629,67.3018516 79.7107606,61.3940547 73.0474211,56.0460451 Z M72.2559254,45.0007258 C72.2559254,48.1754544 71.7018425,51.25873 70.6680925,54.2066404 C69.5389469,53.3724939 68.3796764,52.5622994 67.2105437,51.789666 C63.5227546,49.3514613 59.8285103,47.3433039 56.4321079,45.8860425 C56.4530877,45.5933563 56.4762193,45.2997629 56.4762193,45.0007258 C56.4762193,40.9172729 54.3791322,37.3271948 51.2213979,35.2560727 C51.834296,31.6560146 52.1726631,27.5393555 52.1726631,23.2261811 C52.1726631,21.6094211 52.1194066,19.9763303 52.0249077,18.363018 C63.8512594,21.5435531 72.2559254,32.4442531 72.2559254,45.0007258 Z M59.3452568,60.4314384 C56.511903,58.4573945 53.9098653,56.3643164 51.7797843,54.3492637 C53.6373067,52.9656728 55.0677012,51.0355409 55.8367826,48.7893152 C56.9784802,49.294666 58.1447439,49.8531831 59.3452568,50.4860965 L59.3452568,60.4314384 Z M45.0000695,56.6138164 C45.486192,56.6138164 45.9638867,56.573352 46.4345882,56.5138349 L46.4345882,72.5123187 C45.9568934,72.537178 45.4820677,72.5818158 45.0000695,72.5818158 C44.5180712,72.5818158 44.0432455,72.537178 43.5655507,72.5123187 L43.5655507,56.5138349 C44.0362522,56.573352 44.5139469,56.6138164 45.0000695,56.6138164 Z M45.0000695,2.90327263 C46.2567079,2.90327263 49.1585599,9.52273424 49.2910736,22.3352393 L40.7678806,26.6462362 C40.7225139,25.525573 40.6965133,24.3829538 40.6965133,23.2261811 C40.6965133,9.81759786 43.7133061,2.90327263 45.0000695,2.90327263 Z M40.9662028,29.7932023 L49.2546727,25.5992435 C49.1684223,28.567114 48.9204298,31.3874619 48.524682,33.9539549 C47.4131093,33.5895942 46.2292727,33.3876353 45.0000695,33.3876353 C43.7708662,33.3876353 42.5870296,33.5895942 41.4754569,33.9539549 C41.2701414,32.624256 41.0893921,31.2491935 40.9662028,29.7932023 Z M45.0000695,36.2909079 C49.7470713,36.2909079 53.6071818,40.1970798 53.6071818,45.0007258 C53.6071818,49.8043718 49.7470713,53.7105437 45.0000695,53.7105437 C40.2530677,53.7105437 36.3929571,49.8043718 36.3929571,45.0007258 C36.3929571,40.1970798 40.2530677,36.2909079 45.0000695,36.2909079 Z M38.2203546,54.3492637 C36.0902736,56.3643164 33.4882359,58.4588461 30.6548821,60.4314384 L30.6548821,50.4848264 C31.8541398,49.8517315 33.0216587,49.2932144 34.1633563,48.7878635 C34.9324377,51.0355409 36.3628322,52.9656728 38.2203546,54.3492637 Z M15.7430599,68.3473927 C11.4723183,69.7714479 10.0435377,69.2129309 9.89703743,68.9832094 C9.19448188,67.8930305 13.2642115,61.5535533 24.3571656,54.2215197 C25.5051392,53.4624954 26.6482713,52.7615365 27.7858447,52.0901547 L27.7858447,62.3345336 C23.5054201,65.0507266 19.271976,67.1715673 15.7430599,68.3473927 Z M27.3614064,65.9928386 C28.448413,65.3455903 29.5433094,64.6644099 30.6346195,63.9429467 C34.4491842,61.4216358 37.9737967,58.6239697 40.6965133,55.9738262 L40.6965133,72.2103784 C35.7730656,71.4221399 31.1872679,69.2936781 27.3614064,65.9928386 Z M63.4036896,87.098179 L26.5964493,87.098179 C27.1890849,85.4084743 28.7839111,84.1949064 30.6548821,84.1949064 L59.3452568,84.1949064 C61.2162278,84.1949064 62.811054,85.4084743 63.4036896,87.098179 Z M47.8691069,78.3883611 C49.7364917,78.3883611 51.3146416,79.6061025 51.9085324,81.2916337 L38.0928618,81.2916337 C38.6869318,79.6061025 40.2650817,78.3883611 42.1324665,78.3883611 C42.9246795,78.3883611 43.5669852,77.7376651 43.5669852,76.9367248 L43.5669852,75.4155914 C44.0432455,75.4368216 44.5180712,75.4850885 45.0000695,75.4850885 C45.4820677,75.4850885 45.9568934,75.4368216 46.4345882,75.4155914 L46.4345882,76.9367248 C46.4345882,77.7376651 47.0776112,78.3883611 47.8691069,78.3883611 Z M49.3036257,72.2103784 L49.3036257,55.9738262 C52.0263422,58.6239697 55.5495202,61.4216358 59.3655194,63.9429467 C60.4568295,64.6644099 61.5517259,65.3455903 62.6387325,65.9928386 C58.812871,69.2936781 54.2270733,71.4221399 49.3036257,72.2103784 Z M80.101667,68.9832094 C79.955346,69.2114792 78.5333793,69.7714479 74.2556445,68.3473927 C70.7269077,67.1715673 66.4932843,65.0507266 62.2128597,62.3359853 L62.2128597,52.0916063 C63.3504331,52.7628067 64.4935652,53.4652172 65.6415388,54.2229713 C76.7359274,61.5535533 80.805657,67.8930305 80.101667,68.9832094 Z" id="Fill-3"></path>
                        <path d="M6.98425,23 C8.724625,23 10.416,22.3369032 11.70785,21.1276524 C13.164025,19.7621775 14,17.8188353 14,15.7924258 L14,15.2905984 C14,13.5105078 13.5912,11.7275341 12.81805,10.1333989 L8.253,0.733280582 C7.778575,-0.244426861 6.222825,-0.244426861 5.7484,0.733280582 L1.18195,10.1348404 C0.4088,11.7275341 0,13.5105078 0,15.2905984 L0,15.5446654 C0,19.3589137 2.774625,22.6178184 6.31715,22.9668452 C6.539225,22.9888283 6.7634,23 6.98425,23 Z M2.8,15.5446654 L2.8,15.2905984 C2.8,13.9561161 3.10695,12.6180299 3.68585,11.4235547 L7,4.60032434 L10.31415,11.4235547 C10.89305,12.6180299 11.2,13.9561161 11.2,15.2905984 L11.2,15.7924258 C11.2,17.0072624 10.698975,18.1750696 9.823975,18.9943906 C8.93725,19.8241626 7.782775,20.2148131 6.582975,20.0966089 C4.4618,19.8875893 2.8,17.8885686 2.8,15.5446654 Z" id="Fill-4"></path>
                        <path d="M88.81805,10.1348404 L84.253,0.733280582 C83.778575,-0.244426861 82.222825,-0.244426861 81.7484,0.733280582 L77.18335,10.1348404 C76.4088,11.7275341 76,13.5105078 76,15.2905984 L76,15.5446654 C76,19.3589137 78.774625,22.6178184 82.31715,22.9668452 C82.539225,22.9888283 82.7634,23 82.98425,23 C84.724625,23 86.416,22.3369032 87.70785,21.1276524 C89.164025,19.7621775 90,17.8188353 90,15.7924258 L90,15.2905984 C90,13.5105078 89.5912,11.7275341 88.81805,10.1348404 Z M87.2,15.7924258 C87.2,17.0072624 86.698975,18.1750696 85.823975,18.9943906 C84.93725,19.8241626 83.784,20.2148131 82.582975,20.0966089 C80.4618,19.8875893 78.8,17.8885686 78.8,15.5446654 L78.8,15.2905984 C78.8,13.9561161 79.10695,12.6180299 79.68585,11.4235547 L83,4.60032434 L86.31415,11.4235547 C86.89305,12.6180299 87.2,13.9561161 87.2,15.2905984 L87.2,15.7924258 Z" id="Fill-5"></path>
                    </g>
                </g>
            </g>
        </g>
    </g>
</svg>