<?xml version="1.0" encoding="UTF-8"?>
<svg width="149px" height="127px" viewBox="0 0 149 127" version="1.1" xmlns="http://www.w3.org/2000/svg" xmlns:xlink="http://www.w3.org/1999/xlink">
    <!-- Generator: Sketch 52.3 (67297) - http://www.bohemiancoding.com/sketch -->
    <title>care</title>
    <desc>Created with Sketch.</desc>
    <defs>
        <polygon id="path-1" points="0.0174446879 0.179887918 97.8094578 0.179887918 97.8094578 55.7388437 0.0174446879 55.7388437"></polygon>
    </defs>
    <g id="City-Vision-and-Goal-" stroke="none" stroke-width="1" fill="none" fill-rule="evenodd">
        <g transform="translate(-1266.000000, -3158.000000)" id="Group-16-Copy">
            <g transform="translate(1156.000000, 3074.000000)">
                <g id="Group-11">
                    <g id="care" transform="translate(110.000000, 84.000000)">
                        <g id="Group-3" transform="translate(0.000000, 71.000000)">
                            <mask id="mask-2" fill="white">
                                <use xlink:href="#path-1"></use>
                            </mask>
                            <g id="Clip-2"></g>
                            <path d="M88.8379455,37.6461688 L77.5573381,37.6461688 C75.9518453,37.6461688 74.6501808,38.9596734 74.6501808,40.5804254 C74.6501808,42.2011774 75.9518453,43.514682 77.5573381,43.514682 L88.8379455,43.514682 C90.5789254,43.514682 91.9954341,44.9441013 91.9954341,46.7013099 C91.9954341,48.4585185 90.5792161,49.8879378 88.8379455,49.8879378 L58.4713958,49.8879378 C53.9067024,49.8879378 49.6141462,47.8566423 46.6950684,44.3146404 L39.4331356,35.5045342 C35.5365738,30.7769741 29.8655965,28.0082261 23.7977525,27.8330334 L23.7977525,10.4995266 L34.5018131,10.4995266 C39.7805756,10.4995266 44.7787695,12.5372782 48.5761873,16.2371589 L64.2496579,31.5070901 C65.3576863,32.5867111 65.4094389,34.3943939 64.3647928,35.5365208 C63.3000854,36.7003633 61.4928157,36.7763682 60.3359422,35.7061378 L48.03075,24.3212574 C46.8477094,23.2263768 45.0084578,23.3067834 43.923689,24.5014388 C42.8386294,25.6960941 42.9185842,27.552197 44.1022063,28.6470776 L56.4073984,40.031958 C58.0669697,41.5673146 60.1670194,42.3256023 62.2618357,42.3256023 C64.6005869,42.3256023 66.9326509,41.3803838 68.6372877,39.516651 C71.8081504,36.0494801 71.651439,30.5624584 68.2878124,27.2851529 L52.6143418,12.0152217 C47.7272125,7.25362082 41.2947745,4.63130689 34.5018131,4.63130689 L23.2331261,4.63130689 C22.1393442,2.01838353 19.5741028,0.179887918 16.5916427,0.179887918 L2.90715724,0.179887918 C1.30166446,0.179887918 0,1.49339252 0,3.11414452 L0,24.5706941 C0,26.1911527 1.30166446,27.5049507 2.90715724,27.5049507 C4.51265002,27.5049507 5.81431449,26.1914461 5.81431449,24.5706941 L5.81431449,6.04810766 L16.5919334,6.04810766 C17.3594997,6.04810766 17.9837288,6.67844901 17.9837288,7.45287677 L17.9837288,30.9712413 C17.9837288,31.745669 17.3594997,32.3760104 16.5919334,32.3760104 L13.5725487,32.3760104 C11.9670559,32.3760104 10.6653915,33.689515 10.6653915,35.310267 C10.6653915,36.9307255 11.9670559,38.2445236 13.5725487,38.2445236 L16.5916427,38.2445236 C19.6142256,38.2445236 22.2062155,36.3558472 23.2747026,33.6868739 C27.8068326,33.7129914 32.0630457,35.7387113 34.9635158,39.2578237 L42.2254486,48.0679299 C46.2528456,52.9542492 52.1741542,55.756451 58.4713958,55.756451 L88.8379455,55.756451 C93.7846775,55.756451 97.8094578,51.6944468 97.8094578,46.7013099 C97.8094578,41.708173 93.7846775,37.6461688 88.8379455,37.6461688" id="Fill-1" fill="#FFFFFF" mask="url(#mask-2)"></path>
                        </g>
                        <path d="M146.086897,27.3119238 C144.478281,27.3119238 143.174085,28.635443 143.174085,30.2685521 L143.174085,50.0873349 L132.375502,50.0873349 C131.606443,50.0873349 130.980999,49.4521876 130.980999,48.6718554 L130.980999,24.9741797 C130.980999,24.1938475 131.606443,23.5587002 132.375502,23.5587002 L135.186938,23.5587002 C136.795554,23.5587002 138.09975,22.2351811 138.09975,20.602072 C138.09975,18.9692586 136.795554,17.6454437 135.186938,17.6454437 L132.375502,17.6454437 C129.34704,17.6454437 126.750008,19.54852 125.679443,22.2378423 C121.138497,22.2115257 116.874005,20.1703611 113.967893,16.6244179 L106.691835,7.74743645 C102.656896,2.82386238 96.7237784,0 90.4139966,0 L59.9889629,0 C55.0326089,0 51,4.09297414 51,9.12388455 C51,14.154795 55.0326089,18.2477691 59.9889629,18.2477691 L72.4302446,18.2477691 C74.0388602,18.2477691 75.3430566,16.9242499 75.3430566,15.2911408 C75.3430566,13.6580317 74.0388602,12.3345126 72.4302446,12.3345126 L59.9889629,12.3345126 C58.2445966,12.3345126 56.8253327,10.8941949 56.8253327,9.12358886 C56.8253327,7.35327849 58.2443053,5.91266514 59.9889629,5.91266514 L90.4142879,5.91266514 C94.9881514,5.91266514 99.2890571,7.9594479 102.213813,11.5284551 L109.489871,20.4054365 C113.393721,25.169041 119.07602,27.9588988 125.155667,28.1357228 L125.155667,45.6013855 L114.430786,45.6013855 C109.141755,45.6013855 104.133839,43.5480975 100.329035,39.8200078 L84.6250777,24.433654 C83.514894,23.3458017 83.4630407,21.5246322 84.5097188,20.3735017 C85.5764972,19.20049 87.3872822,19.1242014 88.546406,20.2025915 L100.875825,31.6742737 C102.061749,32.777502 103.903704,32.6964823 104.991166,31.4927186 C106.078044,30.2889548 105.997934,28.4187004 104.81201,27.3154721 L92.4825912,15.8440856 C88.9635624,12.5698837 83.4671191,12.803185 80.2289134,16.3633215 C77.051883,19.8572228 77.2088992,25.3860792 80.5790685,28.6880762 L96.2830258,44.07443 C101.179661,48.8723348 107.624611,51.5146421 114.430786,51.5146421 L125.721391,51.5146421 C126.817301,54.1474871 129.387532,56 132.375793,56 L146.087188,56 C147.695804,56 149,54.6764808 149,53.0433717 L149,30.2679607 C148.999709,28.635443 147.695512,27.3119238 146.086897,27.3119238" id="Fill-4" fill="#FFFFFF"></path>
                        <path d="M90.7931744,98.2654899 C89.2820847,98.925162 88.5909939,100.687878 89.2489624,102.202281 C89.7377391,103.328062 90.8346518,104 91.985873,104 C92.3836382,104 92.7876697,103.919822 93.1755876,103.750491 C93.1881204,103.745106 93.227509,103.727455 93.2397433,103.72207 C94.7415827,103.042054 95.4138744,101.268269 94.7356147,99.7625417 C94.0570567,98.2571131 92.2935218,97.5854742 90.7931744,98.2654899" id="Fill-5" fill="#FFFFFF"></path>
                        <path d="M96.2245594,93.5822802 C94.8915502,94.5604505 94.6019086,96.4367262 95.5779527,97.7726392 C96.1641177,98.5747868 97.0725388,99 97.9941255,99 C98.6075192,99 99.2265981,98.8116827 99.7592033,98.4209544 C99.7639908,98.4176558 99.7921171,98.3966651 99.7966054,98.3933665 C101.121835,97.4097986 101.390531,95.5458176 100.412692,94.2150022 C99.4345535,92.8835872 97.5545765,92.6065089 96.2245594,93.5822802" id="Fill-6" fill="#FFFFFF"></path>
                        <path d="M80.4050342,101.062671 C78.7968197,101.383113 77.7453867,102.946357 78.0536477,104.565057 C78.3272593,106.000903 79.5791216,107 80.9839197,107 C81.1697127,107 81.3587915,106.982314 81.5478702,106.946043 C81.5672858,106.942146 81.6162731,106.932254 81.6359874,106.928058 C83.2489812,106.584834 84.2759206,104.995511 83.9345036,103.376512 C83.5942813,101.762309 82.015041,100.728739 80.4050342,101.062671" id="Fill-7" fill="#FFFFFF"></path>
                        <path d="M105.342601,90.2896497 L105.010063,89.9889315 L105.370113,90.3135637 L105.342601,90.2896497 Z M107.012466,87.7694155 C105.786383,86.663992 103.896122,86.7611425 102.789656,87.9870327 C102.775003,88.0034736 102.740613,88.0423338 102.726259,88.0587746 C101.647306,89.3085788 101.786661,91.1959894 103.036966,92.2742108 C103.601862,92.7614581 104.296842,93 104.988532,93 C105.818979,93 106.644641,92.6562366 107.234955,91.9854496 C108.336038,90.7595593 108.237054,88.8733445 107.012466,87.7694155 Z" id="Fill-8" fill="#FFFFFF"></path>
                        <path d="M113.870622,72.1287008 C112.287845,71.6494659 110.61341,72.550834 110.133245,74.130844 C109.64679,75.7087613 110.534031,77.3814493 112.11501,77.8669623 C112.408261,77.9572485 112.704807,78 112.99656,78 C114.2768,78 115.462084,77.1742691 115.858078,75.8890349 L115.870659,75.8480772 C116.350524,74.2680672 115.453398,72.6076366 113.870622,72.1287008" id="Fill-9" fill="#FFFFFF"></path>
                        <path d="M117.930709,56.3732992 C117.592293,54.7594412 116.004823,53.727038 114.38558,54.0636068 C112.772033,54.3986825 111.734602,55.9707306 112.05953,57.5780185 C112.334399,59.0028365 113.587649,60 114.998866,60 C115.174219,60 115.35227,59.9847693 115.530621,59.9528147 C117.160055,59.6622366 118.244246,58.110496 117.952591,56.4870816 C117.945996,56.4491541 117.938802,56.4112266 117.930709,56.3732992" id="Fill-10" fill="#FFFFFF"></path>
                        <path d="M115.264301,63.011674 C113.619935,62.8671828 112.159409,64.0807301 112.013956,65.722676 C112.011257,65.7516339 112.007058,65.8104454 112.005259,65.8394034 C111.90809,67.4852303 113.169181,68.8979008 114.822544,68.9946264 C114.882525,68.9982088 114.941905,69 115.001286,69 C116.562579,69 117.874654,67.7980956 117.989516,66.2328733 C118.126272,64.5968981 116.909267,63.1561652 115.264301,63.011674" id="Fill-11" fill="#FFFFFF"></path>
                        <path d="M111.482914,80.3874738 C110.046866,79.5769178 108.220092,80.0791587 107.405733,81.5105152 L107.364148,81.5849874 C106.576415,83.0309406 107.108052,84.8519359 108.559957,85.6362776 C109.0168,85.8829296 109.508347,86 109.992715,86 C111.04851,86 112.068403,85.4423518 112.608417,84.4509773 L110.007973,82.97881 L112.610511,84.4474026 C113.42517,83.0160461 112.920459,81.1986254 111.482914,80.3874738" id="Fill-12" fill="#FFFFFF"></path>
                        <path d="M56.0020491,30 C56.455006,30 56.914545,29.8974383 57.3456619,29.681519 C58.823606,28.9410956 59.4222632,27.1399684 58.6835903,25.6585218 C57.9449174,24.1770752 56.1471509,23.5763995 54.6704034,24.3174227 L54.6437765,24.3306178 C53.1658324,25.0713411 52.5803391,26.8655709 53.3193112,28.3467176 C53.8425752,29.3960256 54.9028655,30 56.0020491,30" id="Fill-13" fill="#FFFFFF"></path>
                        <path d="M62.9751259,26 C63.2208673,26 63.4707839,25.9691556 63.720104,25.9047715 C65.3204054,25.5151733 66.3033709,23.896589 65.9153739,22.2893842 C65.5273769,20.6827782 63.9175322,19.6951573 62.3145468,20.085055 C62.3008282,20.088349 62.2584796,20.0991296 62.244761,20.1027231 C60.6498278,20.5153798 59.6838613,22.1495361 60.0945238,23.7507517 C60.4413651,25.1019178 61.6483013,26 62.9751259,26" id="Fill-14" fill="#FFFFFF"></path>
                        <path d="M47.9914686,33 C48.6437694,33 49.3011522,32.786894 49.8515123,32.3484103 L49.8909732,32.3166839 C51.1734527,31.2795878 51.371953,29.4008426 50.3381968,28.1147237 C49.3044406,26.8286048 47.422275,26.6265731 46.1362081,27.6591796 L47.989376,30.007237 L46.1272397,27.6660636 C44.8357919,28.6956771 44.6226432,30.5783133 45.6507194,31.8713162 C46.2414372,32.6135957 47.1122677,33 47.9914686,33" id="Fill-15" fill="#FFFFFF"></path>
                        <path d="M33.2899015,55.9151756 C33.5271787,55.9725217 33.764456,56 33.9981381,56 C35.34211,56 36.563249,55.0908259 36.903586,53.7357263 C37.3143273,52.15632 36.3757041,50.5365923 34.7917586,50.1058994 C33.1955298,49.6722198 31.5489695,50.6097683 31.1136616,52.2011217 C31.1061718,52.2283013 31.0917914,52.2847513 31.0849007,52.3122297 C30.6954305,53.9146341 31.6828873,55.5259989 33.2899015,55.9151756" id="Fill-16" fill="#FFFFFF"></path>
                        <path d="M33.9101226,62.9985066 C33.9407195,62.9994027 33.9707165,63 34.0010134,63 C35.6088507,63 36.9374162,61.729741 36.9968102,60.121682 C37.0718026,58.4912225 35.8155298,57.099702 34.1743959,57.0047238 C32.5164637,56.913031 31.1024068,58.1671616 31.0064165,59.8134508 C31.0040168,59.8519797 31.0025169,59.8902099 31.0013171,59.9284402 C30.952722,61.5762227 32.2548902,62.9492255 33.9101226,62.9985066" id="Fill-17" fill="#FFFFFF"></path>
                        <path d="M36.6722789,46.692542 C37.0966968,46.9013983 37.5465558,47 37.9904287,47 C39.0894855,47 40.1475371,46.3928527 40.6719237,45.3470773 C41.4171991,43.8910592 40.8509095,42.1042772 39.3968742,41.3426539 C37.9329617,40.5759512 36.124247,41.1391759 35.3565235,42.6002735 L35.3077364,42.6964849 C34.5783243,44.1764064 35.1901086,45.963786 36.6722789,46.692542" id="Fill-18" fill="#FFFFFF"></path>
                        <path d="M41.1336506,38.3531583 C41.6828795,38.7888718 42.3380055,39 42.9889434,39 C43.8663336,39 44.7362452,38.6160219 45.3270552,37.8797647 C46.3632909,36.6097062 46.1838044,34.7388594 44.9196206,33.6894986 C43.6485566,32.6347549 41.762751,32.8096982 40.7076691,34.0800558 C40.6933102,34.0976996 40.6604043,34.1383702 40.6460454,34.1560141 C39.6205788,35.4499965 39.8398516,37.3274223 41.1336506,38.3531583" id="Fill-19" fill="#FFFFFF"></path>
                        <path d="M33.4712156,66.0474152 C31.8405695,66.3388653 30.755572,67.8933658 31.0474444,69.5199808 L31.0528439,69.5493053 C31.3126194,70.9954845 32.5716005,72 33.9937662,72 C34.1710495,72 34.3507325,71.98444 34.5313155,71.9521232 C36.1619615,71.6609723 37.2445593,70.0915103 36.9523869,68.4648953 C36.6605144,66.8382804 35.1009617,65.7559651 33.4712156,66.0474152" id="Fill-20" fill="#FFFFFF"></path>
                        <path d="M64.6225421,52.8665082 C67.7708773,52.8665082 70.5841646,54.7466187 71.7899849,57.656111 C72.2444413,58.751791 73.3138366,59.4664032 74.5,59.4664032 C75.6861634,59.4664032 76.7555587,58.7520844 77.2100151,57.656111 C78.4158354,54.7466187 81.2291227,52.8665082 84.3774579,52.8665082 C88.6538658,52.8665082 92.1331415,56.3454021 92.1331415,60.6213408 C92.1331415,62.6460752 91.362414,64.5517076 89.9600245,66.0044003 L74.494719,78.3217793 L59.6346708,66.5585474 C57.8755228,65.0788661 56.8671519,62.917135 56.8671519,60.6216341 C56.8668585,56.3454021 60.3461342,52.8665082 64.6225421,52.8665082 Z M55.9039626,71.0858912 C55.9227394,71.1017323 55.9421029,71.1172801 55.9614664,71.1328279 L72.6789473,84.3666471 C73.2123247,84.7890779 73.8560157,85 74.4997066,85 C75.1463314,85 75.7929562,84.7870245 76.3275072,84.3610734 L93.7532241,70.4824605 C93.8385997,70.4146955 93.9198679,70.3419436 93.9970287,70.2650846 C96.5785403,67.6908967 98,64.2659801 98,60.6210474 C98,53.1102859 91.8890436,47 84.3774579,47 C80.559027,47 77.0210739,48.5744349 74.5,51.2313488 C71.9786327,48.5744349 68.440973,47 64.6225421,47 C57.1109564,47 51,53.1102859 51,60.6210474 C51,64.6737432 52.7876066,68.4879416 55.9039626,71.0858912 Z" id="Fill-21" fill="#FFFFFF"></path>
                        <path d="M3,102 C4.65686471,102 6,103.343135 6,105 C6,106.656865 4.65686471,108 3,108 C1.34313529,108 0,106.656865 0,105 C0,103.343135 1.34313529,102 3,102" id="Fill-23" fill="#FFFFFF"></path>
                        <path d="M146,17 C147.656865,17 149,18.3431353 149,20 C149,21.6568647 147.656865,23 146,23 C144.343135,23 143,21.6568647 143,20 C143,18.3431353 144.343135,17 146,17" id="Fill-25" fill="#FFFFFF"></path>
                    </g>
                </g>
            </g>
        </g>
    </g>
</svg>