<?xml version="1.0" encoding="UTF-8"?>
<svg width="128px" height="128px" viewBox="0 0 128 128" version="1.1" xmlns="http://www.w3.org/2000/svg" xmlns:xlink="http://www.w3.org/1999/xlink">
    <!-- Generator: Sketch 52.2 (67145) - http://www.bohemiancoding.com/sketch -->
    <title>swatch</title>
    <desc>Created with Sketch.</desc>
    <defs>
        <polygon id="path-1" points="0 0 107 0 107 107 0 107"></polygon>
        <linearGradient x1="24.3404839%" y1="50%" x2="60.2974822%" y2="100%" id="linearGradient-3">
            <stop stop-color="#123ECF" offset="0%"></stop>
            <stop stop-color="#53C1FD" offset="47.5247532%"></stop>
            <stop stop-color="#A8E63C" offset="100%"></stop>
        </linearGradient>
    </defs>
    <g id="swatch" stroke="none" stroke-width="1" fill="none" fill-rule="evenodd">
        <g id="wind-turbine" transform="translate(11.000000, 11.000000)">
            <mask id="mask-2" fill="white">
                <use xlink:href="#path-1"></use>
            </mask>
            <g id="Clip-2"></g>
            <path d="M54,61 C57.8605,61 61,57.8605 61,54 C61,50.1395 57.8605,47 54,47 C50.1395,47 47,50.1395 47,54 C47,57.8605 50.1395,61 54,61 Z M54,50.5 C55.93025,50.5 57.5,52.06975 57.5,54 C57.5,55.93025 55.93025,57.5 54,57.5 C52.06975,57.5 50.5,55.93025 50.5,54 C50.5,52.06975 52.06975,50.5 54,50.5 Z" id="Fill-1" fill="url(#linearGradient-3)" mask="url(#mask-2)"></path>
            <path d="M86.0830963,66.6325203 C87.7069172,62.4478036 88.5706792,58.0445531 88.5706792,53.5008629 C88.5706792,36.5965318 76.8876708,21.9817356 60.6245555,18.2163966 C59.6315406,8.34937055 57.0054724,0 52.5000832,0 C47.9929763,0 45.3669081,8.35454806 44.3738932,18.2248101 C40.1227158,19.2083199 36.1137267,20.9045993 32.4654435,23.3593828 L34.3758969,26.2270722 C37.3708299,24.2130236 40.6384394,22.7637543 44.087046,21.844316 C43.9756137,23.7580505 43.911846,25.6944366 43.911846,27.6133486 C43.911846,32.7412337 44.3169961,37.635484 45.050861,41.9155531 C41.2698896,44.3778871 38.7589037,48.6460911 38.7589037,53.5008629 C38.7589037,53.8563848 38.7866008,54.2054348 38.8117214,54.5534061 C34.7449764,56.285928 30.3216048,58.673404 25.9059627,61.5721584 C24.5077977,62.4907337 23.1197239,63.453965 21.766003,64.4456725 C20.5282233,60.9409345 19.864782,57.2752625 19.864782,53.5008629 C19.864782,46.1347864 22.2935355,39.132861 26.7353717,33.4052485 L26.7353717,39.6941886 L30.1706666,39.6941886 L30.1706666,29.3391829 C30.1706666,28.3869538 29.4007311,27.6133486 28.4530191,27.6133486 L18.1471346,27.6133486 L18.1471346,31.0650172 L24.1865976,31.0650172 C19.1695642,37.4365816 16.4294871,45.2651817 16.4294871,53.5008629 C16.4294871,58.0445531 17.2932491,62.4478036 18.91707,66.6325203 C10.9360212,72.9907095 5.06681997,80.0144236 7.59390875,83.8992766 C8.4250354,85.1785513 9.91445043,85.8190515 12.0439038,85.8190515 C13.7860277,85.8190515 15.9556311,85.3908289 18.5439111,84.5345993 C21.4776529,83.5646805 24.7804742,82.0893079 28.2140514,80.2446068 C33.5958703,85.183513 40.2174011,88.3107248 47.3471409,89.334576 L47.3471409,89.9161821 C43.9889254,90.6028484 41.3504043,93.2724983 40.6652777,96.6449943 L35.3236089,96.6449943 C30.5882696,96.6449943 26.7353717,100.516472 26.7353717,105.274166 C26.7353717,106.226395 27.5053072,107 28.4530191,107 L76.5471472,107 C77.4948591,107 78.2647946,106.226395 78.2647946,105.274166 C78.2647946,100.516472 74.4118967,96.6449943 69.6765575,96.6449943 L64.3348887,96.6449943 C63.6480444,93.2709882 61.0112409,90.6028484 57.6530255,89.9161821 L57.6530255,89.334576 C64.7844829,88.3107248 71.4060137,85.183513 76.7861149,80.2446068 C80.2181891,82.0875821 83.5207957,83.5631704 86.4562552,84.5345993 C89.0445352,85.3925547 91.2141386,85.8190515 92.9562625,85.8190515 C95.0857159,85.8190515 96.5751309,85.1785513 97.4062576,83.8992766 C99.9333464,80.0144236 94.0615686,72.9907095 86.0830963,66.6325203 Z M85.1353843,53.5008629 C85.1353843,57.2752625 84.471943,60.9409345 83.2341633,64.4456725 C81.8821601,63.453965 80.4940863,62.4907337 79.0942036,61.5721584 C74.6785615,58.673404 70.2551899,56.285928 66.1884449,54.5534061 C66.2135655,54.2054348 66.2412626,53.8563848 66.2412626,53.5008629 C66.2412626,48.6460911 63.7302768,44.3778871 59.9493054,41.9155531 C60.6831702,37.635484 61.0883203,32.7412337 61.0883203,27.6133486 C61.0883203,25.6912007 61.0245526,23.7496371 60.9114026,21.831588 C75.0719027,25.6128909 85.1353843,38.5726121 85.1353843,53.5008629 Z M69.6765575,71.8462657 C66.2839891,69.4993468 63.1683913,67.0109095 60.6178996,64.6152357 C62.8420383,62.9702999 64.5547475,60.6755875 65.4756213,58.0050747 C66.8426539,58.6058807 68.2391013,59.2698955 69.6765575,60.0223592 L69.6765575,71.8462657 Z M52.5000832,67.3075372 C53.0821509,67.3075372 53.6541275,67.2594296 54.2177306,67.1886704 L54.2177306,86.2090901 C53.645754,86.238645 53.0772127,86.2917144 52.5000832,86.2917144 C51.9229536,86.2917144 51.3544123,86.238645 50.7824357,86.2090901 L50.7824357,67.1886704 C51.3460388,67.2594296 51.9180154,67.3075372 52.5000832,67.3075372 Z M52.5000832,3.45166858 C54.0047423,3.45166858 57.4793284,11.3214729 57.637996,26.5541178 L47.4325938,31.6794142 C47.3782732,30.3470701 47.3471409,28.9886228 47.3471409,27.6133486 C47.3471409,11.672033 50.9593534,3.45166858 52.5000832,3.45166858 Z M47.6700586,35.4208072 L57.5944107,30.4346562 C57.4911372,33.9631244 57.1941989,37.3162047 56.7203429,40.3674797 C55.3893808,39.9342953 53.9718923,39.6941886 52.5000832,39.6941886 C51.028274,39.6941886 49.6107855,39.9342953 48.2798234,40.3674797 C48.0339851,38.7866155 47.8175616,37.151819 47.6700586,35.4208072 Z M52.5000832,43.1458572 C58.1839932,43.1458572 62.8059677,47.7898615 62.8059677,53.5008629 C62.8059677,59.2118643 58.1839932,63.8558686 52.5000832,63.8558686 C46.8161731,63.8558686 42.1941986,59.2118643 42.1941986,53.5008629 C42.1941986,47.7898615 46.8161731,43.1458572 52.5000832,43.1458572 Z M44.3822667,64.6152357 C41.831775,67.0109095 38.7161772,69.5010726 35.3236089,71.8462657 L35.3236089,60.0208491 C36.7595621,59.2681696 38.1575124,58.6041549 39.5245451,58.0033488 C40.4454188,60.6755875 42.158128,62.9702999 44.3822667,64.6152357 Z M17.4686638,81.2574558 C12.3550127,82.9504992 10.6442359,82.2864845 10.4688211,82.0133712 C9.62760331,80.7172696 14.5005691,73.1803356 27.7829219,64.4633623 C29.1574693,63.5609667 30.5262196,62.7276045 31.888314,61.9294061 L31.888314,74.1088344 C26.7630688,77.3380861 21.6940765,79.85953 17.4686638,81.2574558 Z M31.3801051,78.4581526 C32.6816524,77.6886462 33.9926468,76.8787984 35.2993471,76.0210588 C39.8667863,73.0235004 44.087046,69.6973862 47.3471409,66.54666 L47.3471409,85.8501165 C41.4519602,84.9129885 35.9610708,82.382484 31.3801051,78.4581526 Z M74.5359967,103.550057 L30.4641696,103.550057 C31.1737727,101.541186 33.0833672,100.098389 35.3236089,100.098389 L69.6765575,100.098389 C71.9167991,100.098389 73.8263937,101.541186 74.5359967,103.550057 Z M55.935378,93.1950515 C58.1713256,93.1950515 60.0609524,94.6428108 60.7720585,96.6467201 L44.2296108,96.6467201 C44.9409315,94.6428108 46.8305584,93.1950515 49.0665059,93.1950515 C50.0150767,93.1950515 50.7841534,92.4214463 50.7841534,91.4692172 L50.7841534,89.6607586 C51.3544123,89.685999 51.9229536,89.743383 52.5000832,89.743383 C53.0772127,89.743383 53.645754,89.685999 54.2177306,89.6607586 L54.2177306,91.4692172 C54.2177306,92.4214463 54.9876661,93.1950515 55.935378,93.1950515 Z M57.6530255,85.8501165 L57.6530255,66.54666 C60.9131203,69.6973862 65.1316624,73.0235004 69.7008192,76.0210588 C71.0075195,76.8787984 72.3185139,77.6886462 73.6200613,78.4581526 C69.0390956,82.382484 63.5482061,84.9129885 57.6530255,85.8501165 Z M94.5296275,82.0133712 C94.3544275,82.2847586 92.6518095,82.9504992 87.5297848,81.2574558 C83.3045869,79.85953 78.2353799,77.3380861 73.1101347,74.1105603 L73.1101347,61.931132 C74.4722291,62.7291146 75.8409794,63.5642026 77.2155267,64.4650881 C90.4995973,73.1803356 95.372563,80.7172696 94.5296275,82.0133712 Z" id="Fill-3" fill="url(#linearGradient-3)" mask="url(#mask-2)"></path>
            <path d="M8.480875,27 C10.5941875,27 12.648,26.221582 14.216675,24.8020267 C15.9848875,23.1990779 17,20.9177631 17,18.5389346 L17,17.9498329 C17,15.8601613 16.5036,13.7671053 15.564775,11.8957291 L10.0215,0.86080764 C9.4454125,-0.28693588 7.5562875,-0.28693588 6.9802,0.86080764 L1.435225,11.8974213 C0.4964,13.7671053 0,15.8601613 0,17.9498329 L0,18.2480855 C0,22.7256813 3.3691875,26.551352 7.670825,26.9610791 C7.9404875,26.9868853 8.2127,27 8.480875,27 Z M3.4,18.2480855 L3.4,17.9498329 C3.4,16.3832667 3.772725,14.8124699 4.475675,13.4102598 L8.5,5.40038075 L12.524325,13.4102598 C13.227275,14.8124699 13.6,16.3832667 13.6,17.9498329 L13.6,18.5389346 C13.6,19.9650472 12.9916125,21.3359513 11.9291125,22.2977629 C10.852375,23.2718431 9.4505125,23.7304328 7.9936125,23.5916713 C5.4179,23.3463004 3.4,20.999624 3.4,18.2480855 Z" id="Fill-4" fill="url(#linearGradient-3)" mask="url(#mask-2)"></path>
            <path d="M105.564775,11.8974213 L100.0215,0.86080764 C99.4454125,-0.28693588 97.5562875,-0.28693588 96.9802,0.86080764 L91.436925,11.8974213 C90.4964,13.7671053 90,15.8601613 90,17.9498329 L90,18.2480855 C90,22.7256813 93.3691875,26.551352 97.670825,26.9610791 C97.9404875,26.9868853 98.2127,27 98.480875,27 C100.594188,27 102.648,26.221582 104.216675,24.8020267 C105.984887,23.1990779 107,20.9177631 107,18.5389346 L107,17.9498329 C107,15.8601613 106.5036,13.7671053 105.564775,11.8974213 Z M103.6,18.5389346 C103.6,19.9650472 102.991613,21.3359513 101.929113,22.2977629 C100.852375,23.2718431 99.452,23.7304328 97.9936125,23.5916713 C95.4179,23.3463004 93.4,20.999624 93.4,18.2480855 L93.4,17.9498329 C93.4,16.3832667 93.772725,14.8124699 94.475675,13.4102598 L98.5,5.40038075 L102.524325,13.4102598 C103.227275,14.8124699 103.6,16.3832667 103.6,17.9498329 L103.6,18.5389346 Z" id="Fill-5" fill="url(#linearGradient-3)" mask="url(#mask-2)"></path>
        </g>
    </g>
</svg>