<?xml version="1.0" encoding="UTF-8"?>
<svg width="128px" height="128px" viewBox="0 0 128 128" version="1.1" xmlns="http://www.w3.org/2000/svg" xmlns:xlink="http://www.w3.org/1999/xlink">
    <!-- Generator: Sketch 52.2 (67145) - http://www.bohemiancoding.com/sketch -->
    <title>youth</title>
    <desc>Created with Sketch.</desc>
    <g id="youth" stroke="none" stroke-width="1" fill="none" fill-rule="evenodd">
        <g id="female-and-male-shapes-silhouettes" transform="translate(11.000000, 12.000000)" stroke="#5AC4ED" stroke-width="3">
            <path d="M83.5007746,19 C88.7399103,19 93,14.7399103 93,9.50077456 C93,4.26008969 88.7399103,0 83.5007746,0 C78.2600897,0 74,4.26008969 74,9.50077456 C74,14.7399103 78.2600897,19 83.5007746,19 Z" id="Fill-1"></path>
            <g id="Group-5">
                <path d="M22.9673333,19.4485191 C28.2673667,19.4485191 32.5757,15.1075104 32.5757,9.76885885 C32.5757,4.42862879 28.2673667,0.0876200159 22.9673333,0.0876200159 C17.6673,0.0876200159 13.3589667,4.42862879 13.3589667,9.76885885 C13.3589667,15.1075104 17.6735667,19.4485191 22.9673333,19.4485191 Z" id="Fill-2"></path>
                <path d="M45.8861,57.0016794 L38.6105,31.4733907 C38.2000333,29.1245104 36.1978333,27.4212564 33.8306,27.4212564 L12.1103333,27.4212564 C9.7431,27.4212564 7.7409,29.1245104 7.32573333,31.4733907 L0.0485666667,57.0016794 C-0.0188,57.247933 -0.0125333333,57.4941866 0.0548333333,57.7230762 C0.0188,57.9567014 0,58.1792767 0,58.4065877 C0,61.1137986 2.1855,63.315874 4.87703333,63.315874 C7.22076667,63.315874 9.2355,61.6189342 9.63813333,59.3931806 L12.7777333,47.640886 L7.58266667,73.0144769 C7.3555,73.5938042 7.23956667,74.1983884 7.23956667,74.8219151 C7.23956667,77.529126 9.42506667,79.7296228 12.1166,79.7296228 L12.643,79.7296228 L12.643,100.923217 C12.643,103.630428 14.8285,105.830925 17.5153333,105.830925 C20.2021667,105.830925 22.3923667,103.624114 22.3923667,100.923217 L22.3923667,79.7296228 L23.5548333,79.7296228 L23.5548333,100.923217 C23.5548333,103.630428 25.7403333,105.830925 28.4271667,105.830925 C31.1124333,105.830925 33.2979333,103.624114 33.2979333,100.923217 L33.2979333,79.7296228 L33.8306,79.7296228 C36.5174333,79.7296228 38.7013667,77.529126 38.7013667,74.8219151 C38.7013667,74.1983884 38.5917,73.5890686 38.3582667,73.0081627 L33.1694667,47.6345718 L36.284,59.2953106 C36.707,61.6189342 38.7201667,63.315874 41.0701667,63.315874 C43.757,63.315874 45.9409333,61.1074844 45.9409333,58.4065877 C45.9409333,58.1792767 45.9221333,57.9503872 45.8861,57.7230762 C45.9534667,57.4941866 45.9597333,57.247933 45.8861,57.0016794 Z" id="Fill-4"></path>
            </g>
            <path d="M106.944093,57.5299565 C107.005271,57.3375141 107.01782,57.1323482 106.973898,56.9208206 L102.187957,31.1637542 C101.80207,28.7526574 99.7800839,27 97.3847604,27 L70.6189416,27 C68.2173435,27 66.1953579,28.7526574 65.82202,31.1255838 L61.0235297,56.9208206 C60.9874508,57.1323482 61,57.3375141 61.0549026,57.5299565 C61.0172551,57.7589789 61,57.9895917 61,58.2186141 C61,60.9462071 63.1929681,63.1648615 65.8831972,63.1648615 C68.2361673,63.1648615 70.2456037,61.4551458 70.6754129,59.0822194 L73.7013324,39.9286318 L73.6589789,101.055343 C73.6589789,103.782936 75.8456724,106 78.5359015,106 C81.2324052,106 83.4206674,103.776574 83.4206674,101.055343 L83.4206674,70.7941698 L84.5846033,70.7941698 L84.5846033,101.055343 C84.5846033,103.782936 86.7712968,106 89.4615259,106 C92.151755,106 94.3384485,103.776574 94.3384485,101.048981 L94.3023696,39.9286318 L97.3298578,59.114028 C97.7518237,61.4551458 99.7675347,63.1648615 102.120505,63.1648615 C104.810734,63.1648615 106.998996,60.9398454 106.998996,58.2186141 C106.998996,57.9895917 106.980172,57.7589789 106.944093,57.5299565 Z" id="Fill-6"></path>
        </g>
    </g>
</svg>